<ttFont>
<head>
    <!-- Most of this table will be recalculated by the compiler -->
    <tableVersion value="1.0"/>
    <fontRevision value="1.001"/>
    <checkSumAdjustment value="0xebf0608f"/>
    <magicNumber value="0x5f0f3cf5"/>
    <flags value="00000000 00000011"/>
    <unitsPerEm value="1000"/>
    <created value="Mon Jul  3 17:30:18 2017"/>
    <modified value="Thu Sep  6 07:15:32 2018"/>
    <xMin value="-93"/>
    <yMin value="-252"/>
    <xMax value="1208"/>
    <yMax value="1017"/>
    <macStyle value="00000000 00000000"/>
    <lowestRecPPEM value="6"/>
    <fontDirectionHint value="2"/>
    <indexToLocFormat value="0"/>
    <glyphDataFormat value="0"/>
  </head>
    <TTGlyph name=".notdef" xMin="57" yMin="0" xMax="470" yMax="600">
      <contour>
        <pt x="387" y="0" on="1"/>
        <pt x="387" y="600" on="1"/>
        <pt x="470" y="600" on="1"/>
        <pt x="470" y="0" on="1"/>
      </contour>
      <contour>
        <pt x="57" y="0" on="1"/>
        <pt x="57" y="73" on="1"/>
        <pt x="470" y="73" on="1"/>
        <pt x="470" y="0" on="1"/>
      </contour>
      <contour>
        <pt x="57" y="0" on="1"/>
        <pt x="57" y="600" on="1"/>
        <pt x="140" y="600" on="1"/>
        <pt x="140" y="0" on="1"/>
      </contour>
      <contour>
        <pt x="57" y="527" on="1"/>
        <pt x="57" y="600" on="1"/>
        <pt x="470" y="600" on="1"/>
        <pt x="470" y="527" on="1"/>
      </contour>
    </TTGlyph>
    <TTGlyph name="A" xMin="6" yMin="0" xMax="579" yMax="610">
      <contour>
        <pt x="6" y="0" on="1"/>
        <pt x="6" y="38" on="1"/>
        <pt x="68" y="58" on="1"/>
        <pt x="228" y="596" on="1"/>
        <pt x="242" y="598" on="0"/>
        <pt x="279" y="603" on="0"/>
        <pt x="314" y="607" on="0"/>
        <pt x="337" y="610" on="0"/>
        <pt x="338" y="610" on="1"/>
        <pt x="341" y="610" on="0"/>
        <pt x="354" y="602" on="0"/>
        <pt x="354" y="602" on="1"/>
        <pt x="517" y="58" on="1"/>
        <pt x="579" y="38" on="1"/>
        <pt x="579" y="0" on="1"/>
        <pt x="350" y="0" on="1"/>
        <pt x="350" y="43" on="1"/>
        <pt x="418" y="63" on="1"/>
        <pt x="379" y="202" on="1"/>
        <pt x="193" y="202" on="1"/>
        <pt x="156" y="63" on="1"/>
        <pt x="227" y="43" on="1"/>
        <pt x="227" y="0" on="1"/>
      </contour>
      <contour>
        <pt x="208" y="255" on="1"/>
        <pt x="364" y="255" on="1"/>
        <pt x="292" y="523" on="1"/>
        <pt x="280" y="523" on="1"/>
      </contour>
    </TTGlyph>
    <TTGlyph name="AE" xMin="6" yMin="0" xMax="721" yMax="603">
      <contour>
        <pt x="6" y="0" on="1"/>
        <pt x="6" y="38" on="1"/>
        <pt x="68" y="58" on="1"/>
        <pt x="283" y="545" on="1"/>
        <pt x="214" y="565" on="1"/>
        <pt x="214" y="603" on="1"/>
        <pt x="701" y="603" on="1"/>
        <pt x="688" y="428" on="1"/>
        <pt x="634" y="428" on="1"/>
        <pt x="623" y="554" on="1"/>
        <pt x="473" y="540" on="1"/>
        <pt x="473" y="342" on="1"/>
        <pt x="612" y="337" on="1"/>
        <pt x="612" y="290" on="1"/>
        <pt x="473" y="285" on="1"/>
        <pt x="473" y="65" on="1"/>
        <pt x="647" y="49" on="1"/>
        <pt x="663" y="179" on="1"/>
        <pt x="717" y="179" on="1"/>
        <pt x="721" y="0" on="1"/>
        <pt x="318" y="0" on="1"/>
        <pt x="318" y="38" on="1"/>
        <pt x="380" y="58" on="1"/>
        <pt x="380" y="203" on="1"/>
        <pt x="218" y="203" on="1"/>
        <pt x="158" y="63" on="1"/>
        <pt x="227" y="43" on="1"/>
        <pt x="227" y="0" on="1"/>
      </contour>
      <contour>
        <pt x="231" y="256" on="1"/>
        <pt x="380" y="256" on="1"/>
        <pt x="380" y="540" on="1"/>
        <pt x="357" y="540" on="1"/>
      </contour>
    </TTGlyph>
    <TTGlyph name="AEacute" xMin="6" yMin="0" xMax="721" yMax="790">
      <component glyphName="AE" x="0" y="0" flags="0x204"/>
      <component glyphName="acutecomb.case" x="355" y="0" flags="0x4"/>
    </TTGlyph>
    <TTGlyph name="Aacute" xMin="6" yMin="0" xMax="579" yMax="790">
      <component glyphName="A" x="0" y="0" flags="0x204"/>
      <component glyphName="acutecomb.case" x="195" y="0" flags="0x4"/>
    </TTGlyph>
    <TTGlyph name="Abreve" xMin="6" yMin="0" xMax="579" yMax="787">
      <component glyphName="A" x="0" y="0" flags="0x204"/>
      <component glyphName="uni0306.case" x="143" y="0" flags="0x4"/>
    </TTGlyph>
    <TTGlyph name="Acircumflex" xMin="6" yMin="0" xMax="579" yMax="782">
      <component glyphName="A" x="0" y="0" flags="0x204"/>
      <component glyphName="uni0302.case" x="158" y="0" flags="0x4"/>
    </TTGlyph>
    <TTGlyph name="Adieresis" xMin="6" yMin="0" xMax="579" yMax="769">
      <component glyphName="A" x="0" y="0" flags="0x204"/>
      <component glyphName="uni0308.case" x="156" y="0" flags="0x4"/>
    </TTGlyph>
    <TTGlyph name="Agrave" xMin="6" yMin="0" xMax="579" yMax="790">
      <component glyphName="A" x="0" y="0" flags="0x204"/>
      <component glyphName="gravecomb.case" x="179" y="0" flags="0x4"/>
    </TTGlyph>
    <TTGlyph name="Amacron" xMin="6" yMin="0" xMax="579" yMax="726">
      <component glyphName="A" x="0" y="0" flags="0x204"/>
      <component glyphName="uni0304.case" x="150" y="0" flags="0x4"/>
    </TTGlyph>
    <TTGlyph name="Aogonek" xMin="6" yMin="-229" xMax="579" yMax="610">
      <component glyphName="A" x="0" y="0" flags="0x204"/>
      <component glyphName="uni0328.case" x="325" y="0" flags="0x4"/>
    </TTGlyph>
    <TTGlyph name="Aring" xMin="6" yMin="0" xMax="579" yMax="862">
      <component glyphName="A" x="0" y="0" flags="0x204"/>
      <component glyphName="uni030A.case" x="187" y="0" flags="0x4"/>
    </TTGlyph>
    <TTGlyph name="Aringacute" xMin="6" yMin="0" xMax="579" yMax="1017">
      <component glyphName="A" x="0" y="0" flags="0x204"/>
      <component glyphName="uni030A.case" x="187" y="0" flags="0x4"/>
      <component glyphName="acutecomb.case" x="198" y="227" flags="0x4"/>
    </TTGlyph>
    <TTGlyph name="Atilde" xMin="6" yMin="0" xMax="579" yMax="765">
      <component glyphName="A" x="0" y="0" flags="0x204"/>
      <component glyphName="tildecomb.case" x="139" y="0" flags="0x4"/>
    </TTGlyph>
    <TTGlyph name="B" xMin="42" yMin="0" xMax="483" yMax="603">
      <contour>
        <pt x="42" y="0" on="1"/>
        <pt x="42" y="38" on="1"/>
        <pt x="104" y="58" on="1"/>
        <pt x="104" y="545" on="1"/>
        <pt x="42" y="565" on="1"/>
        <pt x="42" y="603" on="1"/>
        <pt x="289" y="603" on="1"/>
        <pt x="363" y="603" on="0"/>
        <pt x="443" y="537" on="0"/>
        <pt x="443" y="447" on="1"/>
        <pt x="443" y="404" on="0"/>
        <pt x="410" y="353" on="0"/>
        <pt x="368" y="326" on="0"/>
        <pt x="353" y="319" on="1"/>
        <pt x="353" y="313" on="1"/>
        <pt x="410" y="303" on="0"/>
        <pt x="483" y="231" on="0"/>
        <pt x="483" y="174" on="1"/>
        <pt x="483" y="107" on="0"/>
        <pt x="433" y="31" on="0"/>
        <pt x="351" y="0" on="0"/>
        <pt x="301" y="0" on="1"/>
      </contour>
      <contour>
        <pt x="329" y="47" on="1"/>
        <pt x="359" y="44" on="0"/>
        <pt x="385" y="109" on="0"/>
        <pt x="385" y="186" on="1"/>
        <pt x="385" y="217" on="0"/>
        <pt x="373" y="252" on="0"/>
        <pt x="351" y="269" on="0"/>
        <pt x="320" y="273" on="0"/>
        <pt x="300" y="273" on="1"/>
        <pt x="197" y="273" on="1"/>
        <pt x="197" y="61" on="1"/>
      </contour>
      <contour>
        <pt x="197" y="330" on="1"/>
        <pt x="266" y="330" on="1"/>
        <pt x="292" y="330" on="0"/>
        <pt x="327" y="345" on="0"/>
        <pt x="345" y="389" on="0"/>
        <pt x="345" y="432" on="1"/>
        <pt x="345" y="497" on="0"/>
        <pt x="327" y="559" on="0"/>
        <pt x="302" y="556" on="1"/>
        <pt x="197" y="544" on="1"/>
      </contour>
    </TTGlyph>
    <TTGlyph name="C" xMin="43" yMin="-9" xMax="424" yMax="611">
      <contour>
        <pt x="223" y="-9" on="1"/>
        <pt x="179" y="-9" on="0"/>
        <pt x="96" y="51" on="0"/>
        <pt x="43" y="178" on="0"/>
        <pt x="43" y="277" on="1"/>
        <pt x="43" y="346" on="0"/>
        <pt x="60" y="460" on="0"/>
        <pt x="73" y="494" on="1"/>
        <pt x="85" y="513" on="0"/>
        <pt x="131" y="554" on="0"/>
        <pt x="183" y="589" on="0"/>
        <pt x="228" y="611" on="0"/>
        <pt x="239" y="611" on="1"/>
        <pt x="247" y="611" on="0"/>
        <pt x="289" y="609" on="0"/>
        <pt x="344" y="606" on="0"/>
        <pt x="402" y="603" on="0"/>
        <pt x="424" y="601" on="1"/>
        <pt x="412" y="428" on="1"/>
        <pt x="358" y="428" on="1"/>
        <pt x="346" y="530" on="1"/>
        <pt x="328" y="534" on="0"/>
        <pt x="279" y="538" on="0"/>
        <pt x="235" y="541" on="0"/>
        <pt x="224" y="541" on="1"/>
        <pt x="213" y="541" on="0"/>
        <pt x="198" y="538" on="0"/>
        <pt x="192" y="535" on="1"/>
        <pt x="167" y="522" on="0"/>
        <pt x="142" y="403" on="0"/>
        <pt x="142" y="312" on="1"/>
        <pt x="142" y="211" on="0"/>
        <pt x="177" y="104" on="0"/>
        <pt x="236" y="65" on="0"/>
        <pt x="270" y="65" on="1"/>
        <pt x="342" y="65" on="1"/>
        <pt x="359" y="192" on="1"/>
        <pt x="410" y="191" on="1"/>
        <pt x="411" y="14" on="1"/>
        <pt x="398" y="10" on="0"/>
        <pt x="341" y="2" on="0"/>
        <pt x="277" y="-5" on="0"/>
        <pt x="229" y="-9" on="0"/>
      </contour>
    </TTGlyph>
    <TTGlyph name="Cacute" xMin="43" yMin="-9" xMax="424" yMax="790">
      <component glyphName="C" x="0" y="0" flags="0x204"/>
      <component glyphName="acutecomb.case" x="167" y="0" flags="0x4"/>
    </TTGlyph>
    <TTGlyph name="Cacute.loclPLK" xMin="43" yMin="-9" xMax="424" yMax="819">
      <component glyphName="C" x="0" y="0" flags="0x204"/>
      <component glyphName="acute.loclPLK.case" x="239" y="0" flags="0x4"/>
    </TTGlyph>
    <TTGlyph name="Ccaron" xMin="43" yMin="-9" xMax="424" yMax="805">
      <component glyphName="C" x="0" y="0" flags="0x204"/>
      <component glyphName="uni030C.case" x="132" y="0" flags="0x4"/>
    </TTGlyph>
    <TTGlyph name="Ccedilla" xMin="43" yMin="-218" xMax="424" yMax="611">
      <component glyphName="C" x="0" y="0" flags="0x204"/>
      <component glyphName="uni0327.case" x="203" y="0" flags="0x4"/>
    </TTGlyph>
    <TTGlyph name="Ccircumflex" xMin="43" yMin="-9" xMax="424" yMax="782">
      <component glyphName="C" x="0" y="0" flags="0x204"/>
      <component glyphName="uni0302.case" x="130" y="0" flags="0x4"/>
    </TTGlyph>
    <TTGlyph name="Cdotaccent" xMin="43" yMin="-9" xMax="424" yMax="768">
      <component glyphName="C" x="0" y="0" flags="0x204"/>
      <component glyphName="uni0307.case" x="215" y="0" flags="0x4"/>
    </TTGlyph>
    <TTGlyph name="D" xMin="42" yMin="0" xMax="530" yMax="603">
      <contour>
        <pt x="42" y="0" on="1"/>
        <pt x="42" y="38" on="1"/>
        <pt x="104" y="58" on="1"/>
        <pt x="104" y="545" on="1"/>
        <pt x="42" y="565" on="1"/>
        <pt x="42" y="603" on="1"/>
        <pt x="319" y="603" on="1"/>
        <pt x="357" y="603" on="0"/>
        <pt x="432" y="575" on="0"/>
        <pt x="493" y="509" on="0"/>
        <pt x="530" y="399" on="0"/>
        <pt x="530" y="318" on="1"/>
        <pt x="530" y="152" on="0"/>
        <pt x="417" y="0" on="0"/>
        <pt x="319" y="0" on="1"/>
      </contour>
      <contour>
        <pt x="338" y="47" on="1"/>
        <pt x="367" y="47" on="0"/>
        <pt x="409" y="112" on="0"/>
        <pt x="431" y="231" on="0"/>
        <pt x="431" y="312" on="1"/>
        <pt x="431" y="377" on="0"/>
        <pt x="409" y="488" on="0"/>
        <pt x="367" y="556" on="0"/>
        <pt x="338" y="556" on="1"/>
        <pt x="197" y="542" on="1"/>
        <pt x="197" y="63" on="1"/>
      </contour>
    </TTGlyph>
    <TTGlyph name="Dcaron" xMin="42" yMin="0" xMax="530" yMax="805">
      <component glyphName="D" x="0" y="0" flags="0x204"/>
      <component glyphName="uni030C.case" x="158" y="0" flags="0x4"/>
    </TTGlyph>
    <TTGlyph name="Dcroat" xMin="39" yMin="0" xMax="530" yMax="603">
      <component glyphName="Eth" x="0" y="0" flags="0x204"/>
    </TTGlyph>
    <TTGlyph name="Delta" xMin="6" yMin="0" xMax="510" yMax="603">
      <contour>
        <pt x="510" y="0" on="1"/>
        <pt x="392" y="63" on="1"/>
        <pt x="262" y="545" on="1"/>
        <pt x="320" y="603" on="1"/>
      </contour>
      <contour>
        <pt x="6" y="0" on="1"/>
        <pt x="73" y="63" on="1"/>
        <pt x="432" y="63" on="1"/>
        <pt x="510" y="0" on="1"/>
      </contour>
      <contour>
        <pt x="6" y="0" on="1"/>
        <pt x="201" y="603" on="1"/>
        <pt x="252" y="545" on="1"/>
        <pt x="113" y="63" on="1"/>
      </contour>
      <contour>
        <pt x="212" y="545" on="1"/>
        <pt x="201" y="603" on="1"/>
        <pt x="320" y="603" on="1"/>
        <pt x="302" y="545" on="1"/>
      </contour>
    </TTGlyph>
    <TTGlyph name="E" xMin="42" yMin="0" xMax="445" yMax="603">
      <contour>
        <pt x="42" y="0" on="1"/>
        <pt x="42" y="38" on="1"/>
        <pt x="104" y="58" on="1"/>
        <pt x="104" y="545" on="1"/>
        <pt x="42" y="565" on="1"/>
        <pt x="42" y="603" on="1"/>
        <pt x="440" y="603" on="1"/>
        <pt x="427" y="428" on="1"/>
        <pt x="373" y="428" on="1"/>
        <pt x="362" y="554" on="1"/>
        <pt x="197" y="540" on="1"/>
        <pt x="197" y="342" on="1"/>
        <pt x="343" y="337" on="1"/>
        <pt x="343" y="290" on="1"/>
        <pt x="197" y="285" on="1"/>
        <pt x="197" y="65" on="1"/>
        <pt x="371" y="49" on="1"/>
        <pt x="387" y="179" on="1"/>
        <pt x="441" y="179" on="1"/>
        <pt x="445" y="0" on="1"/>
      </contour>
    </TTGlyph>
    <TTGlyph name="Eacute" xMin="42" yMin="0" xMax="445" yMax="790">
      <component glyphName="E" x="0" y="0" flags="0x204"/>
      <component glyphName="acutecomb.case" x="159" y="0" flags="0x4"/>
    </TTGlyph>
    <TTGlyph name="Ebreve" xMin="42" yMin="0" xMax="445" yMax="787">
      <component glyphName="E" x="0" y="0" flags="0x204"/>
      <component glyphName="uni0306.case" x="107" y="0" flags="0x4"/>
    </TTGlyph>
    <TTGlyph name="Ecaron" xMin="42" yMin="0" xMax="445" yMax="805">
      <component glyphName="E" x="0" y="0" flags="0x204"/>
      <component glyphName="uni030C.case" x="124" y="0" flags="0x4"/>
    </TTGlyph>
    <TTGlyph name="Ecircumflex" xMin="42" yMin="0" xMax="445" yMax="782">
      <component glyphName="E" x="0" y="0" flags="0x204"/>
      <component glyphName="uni0302.case" x="122" y="0" flags="0x4"/>
    </TTGlyph>
    <TTGlyph name="Edieresis" xMin="42" yMin="0" xMax="445" yMax="769">
      <component glyphName="E" x="0" y="0" flags="0x204"/>
      <component glyphName="uni0308.case" x="120" y="0" flags="0x4"/>
    </TTGlyph>
    <TTGlyph name="Edotaccent" xMin="42" yMin="0" xMax="445" yMax="768">
      <component glyphName="E" x="0" y="0" flags="0x204"/>
      <component glyphName="uni0307.case" x="207" y="0" flags="0x4"/>
    </TTGlyph>
    <TTGlyph name="Egrave" xMin="42" yMin="0" xMax="445" yMax="790">
      <component glyphName="E" x="0" y="0" flags="0x204"/>
      <component glyphName="gravecomb.case" x="143" y="0" flags="0x4"/>
    </TTGlyph>
    <TTGlyph name="Emacron" xMin="42" yMin="0" xMax="445" yMax="726">
      <component glyphName="E" x="0" y="0" flags="0x204"/>
      <component glyphName="uni0304.case" x="114" y="0" flags="0x4"/>
    </TTGlyph>
    <TTGlyph name="Eng" xMin="42" yMin="-153" xMax="570" yMax="603">
      <contour>
        <pt x="421" y="-6" on="1"/>
        <pt x="277" y="295" on="1"/>
        <pt x="268" y="314" on="0"/>
        <pt x="238" y="377" on="0"/>
        <pt x="207" y="442" on="0"/>
        <pt x="186" y="486" on="0"/>
        <pt x="186" y="486" on="1"/>
        <pt x="179" y="486" on="1"/>
        <pt x="189" y="99" on="1"/>
        <pt x="189" y="63" on="1"/>
        <pt x="255" y="43" on="1"/>
        <pt x="255" y="0" on="1"/>
        <pt x="42" y="0" on="1"/>
        <pt x="42" y="38" on="1"/>
        <pt x="104" y="58" on="1"/>
        <pt x="104" y="545" on="1"/>
        <pt x="42" y="565" on="1"/>
        <pt x="42" y="603" on="1"/>
        <pt x="226" y="603" on="1"/>
        <pt x="381" y="268" on="1"/>
        <pt x="389" y="250" on="0"/>
        <pt x="409" y="205" on="0"/>
        <pt x="423" y="172" on="0"/>
        <pt x="423" y="172" on="1"/>
        <pt x="431" y="172" on="1"/>
        <pt x="423" y="505" on="1"/>
        <pt x="423" y="540" on="1"/>
        <pt x="357" y="560" on="1"/>
        <pt x="357" y="603" on="1"/>
        <pt x="570" y="603" on="1"/>
        <pt x="570" y="565" on="1"/>
        <pt x="508" y="545" on="1"/>
        <pt x="508" y="7" on="1"/>
      </contour>
      <contour>
        <pt x="373" y="-153" on="1"/>
        <pt x="361" y="-153" on="0"/>
        <pt x="300" y="-136" on="0"/>
        <pt x="273" y="-129" on="1"/>
        <pt x="273" y="-82" on="1"/>
        <pt x="287" y="-82" on="0"/>
        <pt x="337" y="-82" on="0"/>
        <pt x="384" y="-80" on="0"/>
        <pt x="391" y="-79" on="1"/>
        <pt x="406" y="-76" on="0"/>
        <pt x="420" y="-32" on="0"/>
        <pt x="423" y="23" on="0"/>
        <pt x="423" y="40" on="1"/>
        <pt x="508" y="8" on="1"/>
        <pt x="508" y="-15" on="0"/>
        <pt x="475" y="-71" on="0"/>
        <pt x="429" y="-121" on="0"/>
        <pt x="385" y="-153" on="0"/>
      </contour>
    </TTGlyph>
    <TTGlyph name="Eng.alt" xMin="42" yMin="-153" xMax="502" yMax="611">
      <contour>
        <pt x="360" y="-153" on="1"/>
        <pt x="352" y="-153" on="0"/>
        <pt x="318" y="-145" on="0"/>
        <pt x="278" y="-133" on="0"/>
        <pt x="260" y="-129" on="1"/>
        <pt x="260" y="-82" on="1"/>
        <pt x="274" y="-82" on="0"/>
        <pt x="322" y="-82" on="0"/>
        <pt x="367" y="-80" on="0"/>
        <pt x="374" y="-79" on="1"/>
        <pt x="389" y="-76" on="0"/>
        <pt x="403" y="-32" on="0"/>
        <pt x="406" y="23" on="0"/>
        <pt x="406" y="40" on="1"/>
        <pt x="406" y="412" on="1"/>
        <pt x="406" y="465" on="0"/>
        <pt x="391" y="515" on="0"/>
        <pt x="366" y="530" on="0"/>
        <pt x="351" y="530" on="1"/>
        <pt x="338" y="530" on="0"/>
        <pt x="279" y="517" on="0"/>
        <pt x="216" y="501" on="0"/>
        <pt x="197" y="495" on="1"/>
        <pt x="197" y="63" on="1"/>
        <pt x="263" y="46" on="1"/>
        <pt x="263" y="0" on="1"/>
        <pt x="42" y="0" on="1"/>
        <pt x="42" y="38" on="1"/>
        <pt x="104" y="58" on="1"/>
        <pt x="104" y="545" on="1"/>
        <pt x="42" y="565" on="1"/>
        <pt x="42" y="603" on="1"/>
        <pt x="174" y="603" on="1"/>
        <pt x="195" y="544" on="1"/>
        <pt x="214" y="553" on="0"/>
        <pt x="263" y="575" on="0"/>
        <pt x="311" y="597" on="0"/>
        <pt x="346" y="611" on="0"/>
        <pt x="350" y="611" on="1"/>
        <pt x="399" y="611" on="0"/>
        <pt x="465" y="568" on="0"/>
        <pt x="499" y="488" on="0"/>
        <pt x="499" y="433" on="1"/>
        <pt x="502" y="8" on="1"/>
        <pt x="502" y="-15" on="0"/>
        <pt x="467" y="-71" on="0"/>
        <pt x="418" y="-121" on="0"/>
        <pt x="372" y="-153" on="0"/>
      </contour>
    </TTGlyph>
    <TTGlyph name="Eogonek" xMin="42" yMin="-229" xMax="445" yMax="603">
      <component glyphName="E" x="0" y="0" flags="0x204"/>
      <component glyphName="uni0328.case" x="267" y="0" flags="0x4"/>
    </TTGlyph>
    <TTGlyph name="Eth" xMin="39" yMin="0" xMax="530" yMax="603">
      <component glyphName="D" x="0" y="0" flags="0x204"/>
      <component glyphName="uni0335" x="39" y="2" flags="0x4"/>
    </TTGlyph>
    <TTGlyph name="Euro" xMin="38" yMin="-9" xMax="504" yMax="556">
      <contour>
        <pt x="297" y="-9" on="1"/>
        <pt x="253" y="-9" on="0"/>
        <pt x="176" y="38" on="0"/>
        <pt x="122" y="129" on="0"/>
        <pt x="114" y="195" on="1"/>
        <pt x="38" y="195" on="1"/>
        <pt x="43" y="245" on="1"/>
        <pt x="110" y="245" on="1"/>
        <pt x="110" y="260" on="0"/>
        <pt x="111" y="279" on="0"/>
        <pt x="111" y="294" on="1"/>
        <pt x="38" y="294" on="1"/>
        <pt x="43" y="343" on="1"/>
        <pt x="114" y="343" on="1"/>
        <pt x="122" y="414" on="0"/>
        <pt x="180" y="509" on="0"/>
        <pt x="262" y="556" on="0"/>
        <pt x="305" y="556" on="1"/>
        <pt x="323" y="556" on="0"/>
        <pt x="379" y="550" on="0"/>
        <pt x="439" y="541" on="0"/>
        <pt x="488" y="533" on="0"/>
        <pt x="499" y="531" on="1"/>
        <pt x="490" y="396" on="1"/>
        <pt x="438" y="396" on="1"/>
        <pt x="430" y="487" on="1"/>
        <pt x="324" y="487" on="1"/>
        <pt x="285" y="487" on="0"/>
        <pt x="235" y="452" on="0"/>
        <pt x="211" y="388" on="0"/>
        <pt x="211" y="343" on="1"/>
        <pt x="425" y="343" on="1"/>
        <pt x="420" y="294" on="1"/>
        <pt x="207" y="294" on="1"/>
        <pt x="207" y="279" on="0"/>
        <pt x="207" y="260" on="0"/>
        <pt x="207" y="245" on="1"/>
        <pt x="425" y="245" on="1"/>
        <pt x="420" y="195" on="1"/>
        <pt x="212" y="195" on="1"/>
        <pt x="212" y="157" on="0"/>
        <pt x="235" y="96" on="0"/>
        <pt x="285" y="61" on="0"/>
        <pt x="324" y="61" on="1"/>
        <pt x="435" y="61" on="1"/>
        <pt x="445" y="152" on="1"/>
        <pt x="498" y="152" on="1"/>
        <pt x="504" y="15" on="1"/>
        <pt x="504" y="15" on="0"/>
        <pt x="471" y="10" on="0"/>
        <pt x="419" y="3" on="0"/>
        <pt x="362" y="-4" on="0"/>
        <pt x="311" y="-9" on="0"/>
      </contour>
    </TTGlyph>
    <TTGlyph name="F" xMin="42" yMin="0" xMax="421" yMax="603">
      <contour>
        <pt x="42" y="0" on="1"/>
        <pt x="42" y="38" on="1"/>
        <pt x="104" y="58" on="1"/>
        <pt x="104" y="545" on="1"/>
        <pt x="42" y="565" on="1"/>
        <pt x="42" y="603" on="1"/>
        <pt x="421" y="603" on="1"/>
        <pt x="408" y="428" on="1"/>
        <pt x="354" y="428" on="1"/>
        <pt x="343" y="554" on="1"/>
        <pt x="197" y="540" on="1"/>
        <pt x="197" y="325" on="1"/>
        <pt x="336" y="320" on="1"/>
        <pt x="336" y="273" on="1"/>
        <pt x="197" y="268" on="1"/>
        <pt x="197" y="65" on="1"/>
        <pt x="297" y="43" on="1"/>
        <pt x="297" y="0" on="1"/>
      </contour>
    </TTGlyph>
    <TTGlyph name="G" xMin="43" yMin="-9" xMax="507" yMax="611">
      <contour>
        <pt x="256" y="-9" on="1"/>
        <pt x="197" y="-9" on="0"/>
        <pt x="100" y="53" on="0"/>
        <pt x="43" y="180" on="0"/>
        <pt x="43" y="277" on="1"/>
        <pt x="43" y="346" on="0"/>
        <pt x="60" y="460" on="0"/>
        <pt x="73" y="494" on="1"/>
        <pt x="85" y="513" on="0"/>
        <pt x="131" y="554" on="0"/>
        <pt x="183" y="589" on="0"/>
        <pt x="228" y="611" on="0"/>
        <pt x="239" y="611" on="1"/>
        <pt x="247" y="611" on="0"/>
        <pt x="295" y="609" on="0"/>
        <pt x="358" y="605" on="0"/>
        <pt x="422" y="601" on="0"/>
        <pt x="444" y="599" on="1"/>
        <pt x="432" y="428" on="1"/>
        <pt x="378" y="428" on="1"/>
        <pt x="366" y="527" on="1"/>
        <pt x="348" y="531" on="0"/>
        <pt x="289" y="537" on="0"/>
        <pt x="235" y="541" on="0"/>
        <pt x="224" y="541" on="1"/>
        <pt x="213" y="541" on="0"/>
        <pt x="198" y="538" on="0"/>
        <pt x="192" y="535" on="1"/>
        <pt x="167" y="522" on="0"/>
        <pt x="142" y="403" on="0"/>
        <pt x="142" y="312" on="1"/>
        <pt x="142" y="236" on="0"/>
        <pt x="160" y="137" on="0"/>
        <pt x="193" y="82" on="0"/>
        <pt x="236" y="59" on="0"/>
        <pt x="260" y="59" on="1"/>
        <pt x="369" y="69" on="1"/>
        <pt x="369" y="228" on="1"/>
        <pt x="276" y="245" on="1"/>
        <pt x="276" y="291" on="1"/>
        <pt x="507" y="291" on="1"/>
        <pt x="507" y="252" on="1"/>
        <pt x="455" y="239" on="1"/>
        <pt x="455" y="59" on="1"/>
        <pt x="446" y="53" on="0"/>
        <pt x="404" y="35" on="0"/>
        <pt x="352" y="17" on="0"/>
        <pt x="300" y="1" on="0"/>
        <pt x="262" y="-9" on="0"/>
      </contour>
    </TTGlyph>
    <TTGlyph name="Gbreve" xMin="43" yMin="-9" xMax="507" yMax="787">
      <component glyphName="G" x="0" y="0" flags="0x204"/>
      <component glyphName="uni0306.case" x="138" y="0" flags="0x4"/>
    </TTGlyph>
    <TTGlyph name="Gcaron" xMin="43" yMin="-9" xMax="507" yMax="805">
      <component glyphName="G" x="0" y="0" flags="0x204"/>
      <component glyphName="uni030C.case" x="155" y="0" flags="0x4"/>
    </TTGlyph>
    <TTGlyph name="Gcircumflex" xMin="43" yMin="-9" xMax="507" yMax="782">
      <component glyphName="G" x="0" y="0" flags="0x204"/>
      <component glyphName="uni0302.case" x="153" y="0" flags="0x4"/>
    </TTGlyph>
    <TTGlyph name="Gdotaccent" xMin="43" yMin="-9" xMax="507" yMax="768">
      <component glyphName="G" x="0" y="0" flags="0x204"/>
      <component glyphName="uni0307.case" x="238" y="0" flags="0x4"/>
    </TTGlyph>
    <TTGlyph name="H" xMin="42" yMin="0" xMax="579" yMax="603">
      <contour>
        <pt x="42" y="0" on="1"/>
        <pt x="42" y="38" on="1"/>
        <pt x="104" y="58" on="1"/>
        <pt x="104" y="545" on="1"/>
        <pt x="42" y="565" on="1"/>
        <pt x="42" y="603" on="1"/>
        <pt x="263" y="603" on="1"/>
        <pt x="263" y="560" on="1"/>
        <pt x="197" y="540" on="1"/>
        <pt x="197" y="337" on="1"/>
        <pt x="424" y="337" on="1"/>
        <pt x="424" y="540" on="1"/>
        <pt x="358" y="560" on="1"/>
        <pt x="358" y="603" on="1"/>
        <pt x="579" y="603" on="1"/>
        <pt x="579" y="565" on="1"/>
        <pt x="517" y="545" on="1"/>
        <pt x="517" y="58" on="1"/>
        <pt x="579" y="38" on="1"/>
        <pt x="579" y="0" on="1"/>
        <pt x="358" y="0" on="1"/>
        <pt x="358" y="43" on="1"/>
        <pt x="424" y="63" on="1"/>
        <pt x="424" y="284" on="1"/>
        <pt x="197" y="284" on="1"/>
        <pt x="197" y="63" on="1"/>
        <pt x="263" y="43" on="1"/>
        <pt x="263" y="0" on="1"/>
      </contour>
    </TTGlyph>
    <TTGlyph name="Hbar" xMin="42" yMin="0" xMax="579" yMax="603">
      <component glyphName="H" x="0" y="0" flags="0x204"/>
      <component glyphName="uni0336" x="52" y="142" flags="0x4"/>
    </TTGlyph>
    <TTGlyph name="Hcircumflex" xMin="42" yMin="0" xMax="579" yMax="782">
      <component glyphName="H" x="0" y="0" flags="0x204"/>
      <component glyphName="uni0302.case" x="179" y="0" flags="0x4"/>
    </TTGlyph>
    <TTGlyph name="I" xMin="42" yMin="0" xMax="264" yMax="603">
      <contour>
        <pt x="43" y="0" on="1"/>
        <pt x="43" y="38" on="1"/>
        <pt x="105" y="58" on="1"/>
        <pt x="105" y="545" on="1"/>
        <pt x="42" y="565" on="1"/>
        <pt x="42" y="603" on="1"/>
        <pt x="264" y="603" on="1"/>
        <pt x="264" y="560" on="1"/>
        <pt x="198" y="540" on="1"/>
        <pt x="198" y="63" on="1"/>
        <pt x="264" y="43" on="1"/>
        <pt x="264" y="0" on="1"/>
      </contour>
    </TTGlyph>
    <TTGlyph name="IJ" xMin="42" yMin="-123" xMax="568" yMax="603">
      <component glyphName="I" x="0" y="0" flags="0x4"/>
      <component glyphName="J" x="306" y="0" flags="0x4"/>
    </TTGlyph>
    <TTGlyph name="Iacute" xMin="42" yMin="0" xMax="264" yMax="790">
      <component glyphName="I" x="0" y="0" flags="0x204"/>
      <component glyphName="acutecomb.case" x="60" y="0" flags="0x4"/>
    </TTGlyph>
    <TTGlyph name="Ibreve" xMin="8" yMin="0" xMax="300" yMax="787">
      <component glyphName="I" x="0" y="0" flags="0x204"/>
      <component glyphName="uni0306.case" x="8" y="0" flags="0x4"/>
    </TTGlyph>
    <TTGlyph name="Icircumflex" xMin="23" yMin="0" xMax="285" yMax="782">
      <component glyphName="I" x="0" y="0" flags="0x204"/>
      <component glyphName="uni0302.case" x="23" y="0" flags="0x4"/>
    </TTGlyph>
    <TTGlyph name="Idieresis" xMin="21" yMin="0" xMax="288" yMax="769">
      <component glyphName="I" x="0" y="0" flags="0x204"/>
      <component glyphName="uni0308.case" x="21" y="0" flags="0x4"/>
    </TTGlyph>
    <TTGlyph name="Idotaccent" xMin="42" yMin="0" xMax="264" yMax="768">
      <component glyphName="I" x="0" y="0" flags="0x204"/>
      <component glyphName="uni0307.case" x="108" y="0" flags="0x4"/>
    </TTGlyph>
    <TTGlyph name="Igrave" xMin="42" yMin="0" xMax="264" yMax="790">
      <component glyphName="I" x="0" y="0" flags="0x204"/>
      <component glyphName="gravecomb.case" x="44" y="0" flags="0x4"/>
    </TTGlyph>
    <TTGlyph name="Imacron" xMin="15" yMin="0" xMax="300" yMax="726">
      <component glyphName="I" x="0" y="0" flags="0x204"/>
      <component glyphName="uni0304.case" x="15" y="0" flags="0x4"/>
    </TTGlyph>
    <TTGlyph name="Iogonek" xMin="42" yMin="-229" xMax="264" yMax="603">
      <component glyphName="I" x="0" y="0" flags="0x204"/>
      <component glyphName="uni0328.case" x="85" y="0" flags="0x4"/>
    </TTGlyph>
    <TTGlyph name="Itilde" xMin="4" yMin="0" xMax="309" yMax="765">
      <component glyphName="I" x="0" y="0" flags="0x204"/>
      <component glyphName="tildecomb.case" x="4" y="0" flags="0x4"/>
    </TTGlyph>
    <TTGlyph name="J" xMin="-38" yMin="-123" xMax="262" yMax="603">
      <contour>
        <pt x="62" y="-123" on="1"/>
        <pt x="50" y="-123" on="0"/>
        <pt x="-11" y="-106" on="0"/>
        <pt x="-38" y="-99" on="1"/>
        <pt x="-38" y="-52" on="1"/>
        <pt x="-24" y="-52" on="0"/>
        <pt x="22" y="-52" on="0"/>
        <pt x="65" y="-50" on="0"/>
        <pt x="72" y="-49" on="1"/>
        <pt x="87" y="-46" on="0"/>
        <pt x="101" y="-2" on="0"/>
        <pt x="104" y="53" on="0"/>
        <pt x="104" y="70" on="1"/>
        <pt x="104" y="545" on="1"/>
        <pt x="39" y="565" on="1"/>
        <pt x="39" y="603" on="1"/>
        <pt x="262" y="603" on="1"/>
        <pt x="262" y="565" on="1"/>
        <pt x="197" y="545" on="1"/>
        <pt x="197" y="38" on="1"/>
        <pt x="197" y="19" on="0"/>
        <pt x="175" y="-24" on="0"/>
        <pt x="142" y="-67" on="0"/>
        <pt x="104" y="-102" on="0"/>
        <pt x="71" y="-123" on="0"/>
      </contour>
    </TTGlyph>
    <TTGlyph name="Jacute" xMin="42" yMin="-123" xMax="568" yMax="790">
      <component glyphName="I" x="0" y="0" flags="0x4"/>
      <component glyphName="acutecomb.case" x="60" y="0" flags="0x4"/>
      <component glyphName="J" x="306" y="0" flags="0x4"/>
      <component glyphName="acutecomb.case" x="363" y="0" flags="0x4"/>
    </TTGlyph>
    <TTGlyph name="Jcircumflex" xMin="-38" yMin="-123" xMax="282" yMax="782">
      <component glyphName="J" x="0" y="0" flags="0x204"/>
      <component glyphName="uni0302.case" x="20" y="0" flags="0x4"/>
    </TTGlyph>
    <TTGlyph name="K" xMin="42" yMin="0" xMax="562" yMax="603">
      <contour>
        <pt x="427" y="0" on="1"/>
        <pt x="411" y="24" on="0"/>
        <pt x="359" y="99" on="0"/>
        <pt x="299" y="185" on="0"/>
        <pt x="245" y="265" on="0"/>
        <pt x="227" y="292" on="1"/>
        <pt x="227" y="320" on="1"/>
        <pt x="380" y="540" on="1"/>
        <pt x="315" y="560" on="1"/>
        <pt x="315" y="603" on="1"/>
        <pt x="536" y="603" on="1"/>
        <pt x="536" y="565" on="1"/>
        <pt x="474" y="545" on="1"/>
        <pt x="311" y="320" on="1"/>
        <pt x="328" y="296" on="0"/>
        <pt x="382" y="223" on="0"/>
        <pt x="442" y="144" on="0"/>
        <pt x="496" y="76" on="0"/>
        <pt x="512" y="58" on="1"/>
        <pt x="562" y="42" on="1"/>
        <pt x="562" y="0" on="1"/>
      </contour>
      <contour>
        <pt x="42" y="0" on="1"/>
        <pt x="42" y="38" on="1"/>
        <pt x="104" y="58" on="1"/>
        <pt x="104" y="545" on="1"/>
        <pt x="42" y="565" on="1"/>
        <pt x="42" y="603" on="1"/>
        <pt x="263" y="603" on="1"/>
        <pt x="263" y="560" on="1"/>
        <pt x="197" y="540" on="1"/>
        <pt x="197" y="63" on="1"/>
        <pt x="263" y="43" on="1"/>
        <pt x="263" y="0" on="1"/>
      </contour>
    </TTGlyph>
    <TTGlyph name="L" xMin="42" yMin="0" xMax="452" yMax="603">
      <contour>
        <pt x="42" y="0" on="1"/>
        <pt x="42" y="38" on="1"/>
        <pt x="104" y="58" on="1"/>
        <pt x="104" y="545" on="1"/>
        <pt x="42" y="565" on="1"/>
        <pt x="42" y="603" on="1"/>
        <pt x="273" y="603" on="1"/>
        <pt x="273" y="560" on="1"/>
        <pt x="197" y="540" on="1"/>
        <pt x="197" y="65" on="1"/>
        <pt x="378" y="49" on="1"/>
        <pt x="394" y="179" on="1"/>
        <pt x="448" y="179" on="1"/>
        <pt x="452" y="0" on="1"/>
      </contour>
    </TTGlyph>
    <TTGlyph name="Lacute" xMin="42" yMin="0" xMax="452" yMax="790">
      <component glyphName="L" x="0" y="0" flags="0x204"/>
      <component glyphName="acutecomb.case" x="56" y="0" flags="0x4"/>
    </TTGlyph>
    <TTGlyph name="Lcaron" xMin="42" yMin="0" xMax="452" yMax="665">
      <component glyphName="L" x="0" y="0" flags="0x204"/>
      <component glyphName="uni030C.alt" x="355" y="0" flags="0x4"/>
    </TTGlyph>
    <TTGlyph name="Ldot" xMin="42" yMin="0" xMax="452" yMax="603">
      <component glyphName="L" x="0" y="0" flags="0x204"/>
      <component glyphName="periodcentered.loclCAT.case" x="342" y="0" flags="0x4"/>
    </TTGlyph>
    <TTGlyph name="Lslash" xMin="42" yMin="0" xMax="452" yMax="603">
      <component glyphName="L" x="0" y="0" flags="0x204"/>
      <component glyphName="uni0337.case" x="43" y="-54" flags="0x4"/>
    </TTGlyph>
    <TTGlyph name="M" xMin="42" yMin="0" xMax="751" yMax="603">
      <contour>
        <pt x="42" y="0" on="1"/>
        <pt x="42" y="38" on="1"/>
        <pt x="104" y="58" on="1"/>
        <pt x="122" y="545" on="1"/>
        <pt x="60" y="565" on="1"/>
        <pt x="60" y="603" on="1"/>
        <pt x="254" y="603" on="1"/>
        <pt x="390" y="124" on="1"/>
        <pt x="402" y="124" on="1"/>
        <pt x="537" y="603" on="1"/>
        <pt x="732" y="603" on="1"/>
        <pt x="732" y="565" on="1"/>
        <pt x="670" y="545" on="1"/>
        <pt x="689" y="58" on="1"/>
        <pt x="751" y="38" on="1"/>
        <pt x="751" y="0" on="1"/>
        <pt x="530" y="0" on="1"/>
        <pt x="530" y="43" on="1"/>
        <pt x="596" y="63" on="1"/>
        <pt x="588" y="491" on="1"/>
        <pt x="581" y="491" on="1"/>
        <pt x="581" y="491" on="0"/>
        <pt x="570" y="451" on="0"/>
        <pt x="554" y="390" on="0"/>
        <pt x="536" y="325" on="0"/>
        <pt x="528" y="301" on="1"/>
        <pt x="451" y="48" on="1"/>
        <pt x="437" y="46" on="0"/>
        <pt x="403" y="41" on="0"/>
        <pt x="371" y="37" on="0"/>
        <pt x="351" y="34" on="0"/>
        <pt x="350" y="34" on="1"/>
        <pt x="347" y="34" on="0"/>
        <pt x="334" y="42" on="0"/>
        <pt x="334" y="42" on="1"/>
        <pt x="258" y="295" on="1"/>
        <pt x="253" y="311" on="0"/>
        <pt x="239" y="360" on="0"/>
        <pt x="225" y="414" on="0"/>
        <pt x="212" y="461" on="0"/>
        <pt x="204" y="491" on="0"/>
        <pt x="204" y="491" on="1"/>
        <pt x="197" y="491" on="1"/>
        <pt x="189" y="63" on="1"/>
        <pt x="255" y="43" on="1"/>
        <pt x="255" y="0" on="1"/>
      </contour>
    </TTGlyph>
    <TTGlyph name="M.alt" xMin="42" yMin="0" xMax="788" yMax="611">
      <contour>
        <pt x="42" y="0" on="1"/>
        <pt x="42" y="38" on="1"/>
        <pt x="104" y="58" on="1"/>
        <pt x="104" y="545" on="1"/>
        <pt x="42" y="565" on="1"/>
        <pt x="42" y="603" on="1"/>
        <pt x="174" y="603" on="1"/>
        <pt x="195" y="544" on="1"/>
        <pt x="214" y="554" on="0"/>
        <pt x="254" y="577" on="0"/>
        <pt x="289" y="598" on="0"/>
        <pt x="312" y="611" on="0"/>
        <pt x="313" y="611" on="1"/>
        <pt x="369" y="611" on="0"/>
        <pt x="431" y="573" on="0"/>
        <pt x="447" y="544" on="1"/>
        <pt x="466" y="554" on="0"/>
        <pt x="509" y="577" on="0"/>
        <pt x="548" y="598" on="0"/>
        <pt x="575" y="611" on="0"/>
        <pt x="577" y="611" on="1"/>
        <pt x="621" y="611" on="0"/>
        <pt x="688" y="581" on="0"/>
        <pt x="726" y="503" on="0"/>
        <pt x="726" y="431" on="1"/>
        <pt x="726" y="58" on="1"/>
        <pt x="788" y="38" on="1"/>
        <pt x="788" y="0" on="1"/>
        <pt x="567" y="0" on="1"/>
        <pt x="567" y="46" on="1"/>
        <pt x="633" y="63" on="1"/>
        <pt x="633" y="435" on="1"/>
        <pt x="633" y="475" on="0"/>
        <pt x="621" y="515" on="0"/>
        <pt x="602" y="530" on="0"/>
        <pt x="592" y="530" on="1"/>
        <pt x="578" y="530" on="0"/>
        <pt x="531" y="518" on="0"/>
        <pt x="481" y="502" on="0"/>
        <pt x="461" y="495" on="1"/>
        <pt x="461" y="63" on="1"/>
        <pt x="527" y="46" on="1"/>
        <pt x="527" y="0" on="1"/>
        <pt x="306" y="0" on="1"/>
        <pt x="306" y="38" on="1"/>
        <pt x="368" y="58" on="1"/>
        <pt x="368" y="434" on="1"/>
        <pt x="368" y="474" on="0"/>
        <pt x="356" y="515" on="0"/>
        <pt x="335" y="530" on="0"/>
        <pt x="322" y="530" on="1"/>
        <pt x="311" y="530" on="0"/>
        <pt x="266" y="518" on="0"/>
        <pt x="217" y="501" on="0"/>
        <pt x="197" y="495" on="1"/>
        <pt x="197" y="63" on="1"/>
        <pt x="263" y="46" on="1"/>
        <pt x="263" y="0" on="1"/>
      </contour>
    </TTGlyph>
    <TTGlyph name="N" xMin="42" yMin="-7" xMax="570" yMax="603">
      <contour>
        <pt x="391" y="-7" on="1"/>
        <pt x="388" y="-7" on="0"/>
        <pt x="375" y="1" on="0"/>
        <pt x="375" y="1" on="1"/>
        <pt x="257" y="295" on="1"/>
        <pt x="249" y="315" on="0"/>
        <pt x="225" y="378" on="0"/>
        <pt x="202" y="442" on="0"/>
        <pt x="186" y="486" on="0"/>
        <pt x="186" y="486" on="1"/>
        <pt x="179" y="486" on="1"/>
        <pt x="189" y="99" on="1"/>
        <pt x="189" y="63" on="1"/>
        <pt x="255" y="43" on="1"/>
        <pt x="255" y="0" on="1"/>
        <pt x="42" y="0" on="1"/>
        <pt x="42" y="38" on="1"/>
        <pt x="104" y="58" on="1"/>
        <pt x="104" y="545" on="1"/>
        <pt x="42" y="565" on="1"/>
        <pt x="42" y="603" on="1"/>
        <pt x="226" y="603" on="1"/>
        <pt x="363" y="268" on="1"/>
        <pt x="368" y="255" on="0"/>
        <pt x="389" y="196" on="0"/>
        <pt x="410" y="132" on="0"/>
        <pt x="425" y="87" on="0"/>
        <pt x="425" y="87" on="1"/>
        <pt x="433" y="87" on="1"/>
        <pt x="423" y="505" on="1"/>
        <pt x="423" y="540" on="1"/>
        <pt x="357" y="560" on="1"/>
        <pt x="357" y="603" on="1"/>
        <pt x="570" y="603" on="1"/>
        <pt x="570" y="565" on="1"/>
        <pt x="508" y="545" on="1"/>
        <pt x="508" y="7" on="1"/>
        <pt x="497" y="5" on="0"/>
        <pt x="467" y="1" on="0"/>
        <pt x="436" y="-2" on="0"/>
        <pt x="409" y="-5" on="0"/>
        <pt x="392" y="-7" on="0"/>
      </contour>
    </TTGlyph>
    <TTGlyph name="N.alt" xMin="42" yMin="0" xMax="561" yMax="611">
      <contour>
        <pt x="42" y="0" on="1"/>
        <pt x="42" y="38" on="1"/>
        <pt x="104" y="58" on="1"/>
        <pt x="104" y="545" on="1"/>
        <pt x="42" y="565" on="1"/>
        <pt x="42" y="603" on="1"/>
        <pt x="174" y="603" on="1"/>
        <pt x="195" y="544" on="1"/>
        <pt x="214" y="553" on="0"/>
        <pt x="263" y="575" on="0"/>
        <pt x="311" y="597" on="0"/>
        <pt x="346" y="611" on="0"/>
        <pt x="350" y="611" on="1"/>
        <pt x="399" y="611" on="0"/>
        <pt x="465" y="568" on="0"/>
        <pt x="499" y="488" on="0"/>
        <pt x="499" y="433" on="1"/>
        <pt x="499" y="58" on="1"/>
        <pt x="561" y="38" on="1"/>
        <pt x="561" y="0" on="1"/>
        <pt x="340" y="0" on="1"/>
        <pt x="340" y="46" on="1"/>
        <pt x="406" y="63" on="1"/>
        <pt x="406" y="412" on="1"/>
        <pt x="406" y="465" on="0"/>
        <pt x="391" y="515" on="0"/>
        <pt x="366" y="530" on="0"/>
        <pt x="351" y="530" on="1"/>
        <pt x="338" y="530" on="0"/>
        <pt x="279" y="517" on="0"/>
        <pt x="216" y="501" on="0"/>
        <pt x="197" y="495" on="1"/>
        <pt x="197" y="63" on="1"/>
        <pt x="263" y="46" on="1"/>
        <pt x="263" y="0" on="1"/>
      </contour>
    </TTGlyph>
    <TTGlyph name="Nacute" xMin="42" yMin="-7" xMax="570" yMax="790">
      <component glyphName="N" x="0" y="0" flags="0x204"/>
      <component glyphName="acutecomb.case" x="207" y="0" flags="0x4"/>
    </TTGlyph>
    <TTGlyph name="Nacute.alt" xMin="42" yMin="0" xMax="561" yMax="790">
      <component glyphName="N.alt" x="0" y="0" flags="0x204"/>
      <component glyphName="acutecomb.case" x="194" y="0" flags="0x4"/>
    </TTGlyph>
    <TTGlyph name="Nacute.loclPLK" xMin="42" yMin="-7" xMax="570" yMax="819">
      <component glyphName="N" x="0" y="0" flags="0x204"/>
      <component glyphName="acute.loclPLK.case" x="279" y="0" flags="0x4"/>
    </TTGlyph>
    <TTGlyph name="Ncaron" xMin="42" yMin="-7" xMax="570" yMax="805">
      <component glyphName="N" x="0" y="0" flags="0x204"/>
      <component glyphName="uni030C.case" x="172" y="0" flags="0x4"/>
    </TTGlyph>
    <TTGlyph name="Ncaron.alt" xMin="42" yMin="0" xMax="561" yMax="805">
      <component glyphName="N.alt" x="0" y="0" flags="0x204"/>
      <component glyphName="uni030C.case" x="159" y="0" flags="0x4"/>
    </TTGlyph>
    <TTGlyph name="Ntilde" xMin="42" yMin="-7" xMax="570" yMax="765">
      <component glyphName="N" x="0" y="0" flags="0x204"/>
      <component glyphName="tildecomb.case" x="151" y="0" flags="0x4"/>
    </TTGlyph>
    <TTGlyph name="Ntilde.alt" xMin="42" yMin="0" xMax="561" yMax="765">
      <component glyphName="N.alt" x="0" y="0" flags="0x204"/>
      <component glyphName="tildecomb.case" x="138" y="0" flags="0x4"/>
    </TTGlyph>
    <TTGlyph name="O" xMin="43" yMin="-9" xMax="505" yMax="611">
      <contour>
        <pt x="309" y="-9" on="1"/>
        <pt x="243" y="-9" on="0"/>
        <pt x="143" y="25" on="0"/>
        <pt x="77" y="96" on="0"/>
        <pt x="43" y="207" on="0"/>
        <pt x="43" y="283" on="1"/>
        <pt x="43" y="352" on="0"/>
        <pt x="60" y="460" on="0"/>
        <pt x="73" y="494" on="1"/>
        <pt x="85" y="513" on="0"/>
        <pt x="130" y="554" on="0"/>
        <pt x="182" y="589" on="0"/>
        <pt x="227" y="611" on="0"/>
        <pt x="239" y="611" on="1"/>
        <pt x="327" y="611" on="0"/>
        <pt x="445" y="550" on="0"/>
        <pt x="505" y="421" on="0"/>
        <pt x="505" y="318" on="1"/>
        <pt x="505" y="249" on="0"/>
        <pt x="489" y="142" on="0"/>
        <pt x="480" y="108" on="1"/>
        <pt x="467" y="91" on="0"/>
        <pt x="420" y="50" on="0"/>
        <pt x="366" y="14" on="0"/>
        <pt x="320" y="-9" on="0"/>
      </contour>
      <contour>
        <pt x="301" y="51" on="1"/>
        <pt x="309" y="51" on="0"/>
        <pt x="349" y="69" on="0"/>
        <pt x="385" y="90" on="0"/>
        <pt x="387" y="94" on="1"/>
        <pt x="392" y="116" on="0"/>
        <pt x="401" y="173" on="0"/>
        <pt x="406" y="249" on="0"/>
        <pt x="406" y="300" on="1"/>
        <pt x="406" y="379" on="0"/>
        <pt x="381" y="490" on="0"/>
        <pt x="320" y="549" on="0"/>
        <pt x="265" y="549" on="1"/>
        <pt x="249" y="549" on="0"/>
        <pt x="206" y="545" on="0"/>
        <pt x="192" y="537" on="1"/>
        <pt x="167" y="524" on="0"/>
        <pt x="142" y="403" on="0"/>
        <pt x="142" y="303" on="1"/>
        <pt x="142" y="231" on="0"/>
        <pt x="158" y="134" on="0"/>
        <pt x="194" y="76" on="0"/>
        <pt x="256" y="51" on="0"/>
      </contour>
    </TTGlyph>
    <TTGlyph name="OE" xMin="43" yMin="0" xMax="714" yMax="603">
      <contour>
        <pt x="309" y="0" on="1"/>
        <pt x="221" y="0" on="0"/>
        <pt x="103" y="57" on="0"/>
        <pt x="43" y="181" on="0"/>
        <pt x="43" y="283" on="1"/>
        <pt x="43" y="352" on="0"/>
        <pt x="60" y="452" on="0"/>
        <pt x="73" y="486" on="1"/>
        <pt x="85" y="505" on="0"/>
        <pt x="130" y="546" on="0"/>
        <pt x="182" y="581" on="0"/>
        <pt x="227" y="603" on="0"/>
        <pt x="239" y="603" on="1"/>
        <pt x="444" y="603" on="1"/>
        <pt x="401" y="524" on="1"/>
        <pt x="377" y="533" on="0"/>
        <pt x="300" y="544" on="0"/>
        <pt x="265" y="544" on="1"/>
        <pt x="249" y="544" on="0"/>
        <pt x="206" y="540" on="0"/>
        <pt x="192" y="532" on="1"/>
        <pt x="176" y="524" on="0"/>
        <pt x="153" y="466" on="0"/>
        <pt x="142" y="370" on="0"/>
        <pt x="142" y="303" on="1"/>
        <pt x="142" y="231" on="0"/>
        <pt x="158" y="137" on="0"/>
        <pt x="194" y="82" on="0"/>
        <pt x="256" y="60" on="0"/>
        <pt x="301" y="60" on="1"/>
        <pt x="310" y="60" on="0"/>
        <pt x="345" y="66" on="0"/>
        <pt x="386" y="74" on="0"/>
        <pt x="403" y="77" on="1"/>
        <pt x="424" y="0" on="1"/>
      </contour>
      <contour>
        <pt x="373" y="0" on="1"/>
        <pt x="373" y="603" on="1"/>
        <pt x="709" y="603" on="1"/>
        <pt x="696" y="428" on="1"/>
        <pt x="642" y="428" on="1"/>
        <pt x="631" y="554" on="1"/>
        <pt x="466" y="540" on="1"/>
        <pt x="466" y="342" on="1"/>
        <pt x="605" y="337" on="1"/>
        <pt x="605" y="290" on="1"/>
        <pt x="466" y="285" on="1"/>
        <pt x="466" y="65" on="1"/>
        <pt x="640" y="49" on="1"/>
        <pt x="656" y="179" on="1"/>
        <pt x="710" y="179" on="1"/>
        <pt x="714" y="0" on="1"/>
      </contour>
    </TTGlyph>
    <TTGlyph name="Oacute" xMin="43" yMin="-9" xMax="505" yMax="790">
      <component glyphName="O" x="0" y="0" flags="0x204"/>
      <component glyphName="acutecomb.case" x="176" y="0" flags="0x4"/>
    </TTGlyph>
    <TTGlyph name="Oacute.loclPLK" xMin="43" yMin="-9" xMax="505" yMax="819">
      <component glyphName="O" x="0" y="0" flags="0x204"/>
      <component glyphName="acute.loclPLK.case" x="248" y="0" flags="0x4"/>
    </TTGlyph>
    <TTGlyph name="Obreve" xMin="43" yMin="-9" xMax="505" yMax="787">
      <component glyphName="O" x="0" y="0" flags="0x204"/>
      <component glyphName="uni0306.case" x="124" y="0" flags="0x4"/>
    </TTGlyph>
    <TTGlyph name="Ocircumflex" xMin="43" yMin="-9" xMax="505" yMax="782">
      <component glyphName="O" x="0" y="0" flags="0x204"/>
      <component glyphName="uni0302.case" x="139" y="0" flags="0x4"/>
    </TTGlyph>
    <TTGlyph name="Odieresis" xMin="43" yMin="-9" xMax="505" yMax="769">
      <component glyphName="O" x="0" y="0" flags="0x204"/>
      <component glyphName="uni0308.case" x="137" y="0" flags="0x4"/>
    </TTGlyph>
    <TTGlyph name="Ograve" xMin="43" yMin="-9" xMax="505" yMax="790">
      <component glyphName="O" x="0" y="0" flags="0x204"/>
      <component glyphName="gravecomb.case" x="160" y="0" flags="0x4"/>
    </TTGlyph>
    <TTGlyph name="Ohorn" xMin="43" yMin="-9" xMax="505" yMax="710">
      <component glyphName="O" x="0" y="0" flags="0x204"/>
      <component glyphName="uni031B.case" x="321" y="34" flags="0x4"/>
    </TTGlyph>
    <TTGlyph name="Ohungarumlaut" xMin="43" yMin="-9" xMax="505" yMax="790">
      <component glyphName="O" x="0" y="0" flags="0x204"/>
      <component glyphName="uni030B.case" x="88" y="0" flags="0x4"/>
    </TTGlyph>
    <TTGlyph name="Omacron" xMin="43" yMin="-9" xMax="505" yMax="726">
      <component glyphName="O" x="0" y="0" flags="0x204"/>
      <component glyphName="uni0304.case" x="131" y="0" flags="0x4"/>
    </TTGlyph>
    <TTGlyph name="Omega" xMin="40" yMin="0" xMax="661" yMax="611">
      <contour>
        <pt x="304" y="0" on="1"/>
        <pt x="241" y="41" on="0"/>
        <pt x="147" y="146" on="0"/>
        <pt x="95" y="275" on="0"/>
        <pt x="95" y="350" on="1"/>
        <pt x="95" y="397" on="0"/>
        <pt x="119" y="489" on="0"/>
        <pt x="176" y="565" on="0"/>
        <pt x="277" y="611" on="0"/>
        <pt x="353" y="611" on="1"/>
        <pt x="444" y="611" on="0"/>
        <pt x="555" y="540" on="0"/>
        <pt x="606" y="421" on="0"/>
        <pt x="606" y="350" on="1"/>
        <pt x="606" y="293" on="0"/>
        <pt x="578" y="194" on="0"/>
        <pt x="524" y="107" on="0"/>
        <pt x="446" y="32" on="0"/>
        <pt x="397" y="0" on="1"/>
        <pt x="387" y="46" on="1"/>
        <pt x="417" y="78" on="0"/>
        <pt x="472" y="156" on="0"/>
        <pt x="507" y="269" on="0"/>
        <pt x="507" y="350" on="1"/>
        <pt x="507" y="427" on="0"/>
        <pt x="479" y="515" on="0"/>
        <pt x="419" y="552" on="0"/>
        <pt x="371" y="552" on="1"/>
        <pt x="324" y="552" on="0"/>
        <pt x="239" y="536" on="0"/>
        <pt x="204" y="522" on="1"/>
        <pt x="200" y="497" on="0"/>
        <pt x="193" y="427" on="0"/>
        <pt x="193" y="387" on="1"/>
        <pt x="193" y="342" on="0"/>
        <pt x="204" y="245" on="0"/>
        <pt x="231" y="152" on="0"/>
        <pt x="278" y="73" on="0"/>
        <pt x="314" y="46" on="1"/>
      </contour>
      <contour>
        <pt x="40" y="0" on="1"/>
        <pt x="40" y="144" on="1"/>
        <pt x="94" y="144" on="1"/>
        <pt x="114" y="0" on="1"/>
      </contour>
      <contour>
        <pt x="40" y="0" on="1"/>
        <pt x="76" y="57" on="1"/>
        <pt x="280" y="57" on="1"/>
        <pt x="304" y="0" on="1"/>
      </contour>
      <contour>
        <pt x="397" y="0" on="1"/>
        <pt x="420" y="57" on="1"/>
        <pt x="625" y="57" on="1"/>
        <pt x="661" y="0" on="1"/>
      </contour>
      <contour>
        <pt x="587" y="0" on="1"/>
        <pt x="607" y="144" on="1"/>
        <pt x="661" y="144" on="1"/>
        <pt x="661" y="0" on="1"/>
      </contour>
    </TTGlyph>
    <TTGlyph name="Oslash" xMin="43" yMin="-86" xMax="505" yMax="660">
      <component glyphName="O" x="0" y="0" flags="0x204"/>
      <component glyphName="uni0338.case" x="63" y="-7" flags="0x4"/>
    </TTGlyph>
    <TTGlyph name="Oslashacute" xMin="43" yMin="-86" xMax="505" yMax="790">
      <component glyphName="Oslash" x="0" y="0" flags="0x204"/>
      <component glyphName="acutecomb.case" x="176" y="0" flags="0x4"/>
    </TTGlyph>
    <TTGlyph name="Otilde" xMin="43" yMin="-9" xMax="505" yMax="765">
      <component glyphName="O" x="0" y="0" flags="0x204"/>
      <component glyphName="tildecomb.case" x="120" y="0" flags="0x4"/>
    </TTGlyph>
    <TTGlyph name="P" xMin="42" yMin="0" xMax="465" yMax="603">
      <contour>
        <pt x="42" y="0" on="1"/>
        <pt x="42" y="38" on="1"/>
        <pt x="104" y="58" on="1"/>
        <pt x="104" y="545" on="1"/>
        <pt x="42" y="565" on="1"/>
        <pt x="42" y="603" on="1"/>
        <pt x="304" y="603" on="1"/>
        <pt x="354" y="603" on="0"/>
        <pt x="426" y="569" on="0"/>
        <pt x="465" y="493" on="0"/>
        <pt x="465" y="429" on="1"/>
        <pt x="465" y="350" on="0"/>
        <pt x="411" y="256" on="0"/>
        <pt x="325" y="215" on="0"/>
        <pt x="275" y="215" on="1"/>
        <pt x="197" y="215" on="1"/>
        <pt x="197" y="63" on="1"/>
        <pt x="282" y="43" on="1"/>
        <pt x="282" y="0" on="1"/>
      </contour>
      <contour>
        <pt x="197" y="272" on="1"/>
        <pt x="287" y="272" on="1"/>
        <pt x="313" y="272" on="0"/>
        <pt x="349" y="284" on="0"/>
        <pt x="367" y="337" on="0"/>
        <pt x="367" y="396" on="1"/>
        <pt x="367" y="470" on="0"/>
        <pt x="339" y="552" on="0"/>
        <pt x="310" y="552" on="1"/>
        <pt x="197" y="542" on="1"/>
      </contour>
    </TTGlyph>
    <TTGlyph name="Q" xMin="43" yMin="-118" xMax="507" yMax="611">
      <contour>
        <pt x="309" y="-9" on="1"/>
        <pt x="243" y="-9" on="0"/>
        <pt x="143" y="25" on="0"/>
        <pt x="77" y="96" on="0"/>
        <pt x="43" y="207" on="0"/>
        <pt x="43" y="283" on="1"/>
        <pt x="43" y="352" on="0"/>
        <pt x="60" y="460" on="0"/>
        <pt x="73" y="494" on="1"/>
        <pt x="85" y="513" on="0"/>
        <pt x="130" y="554" on="0"/>
        <pt x="182" y="589" on="0"/>
        <pt x="227" y="611" on="0"/>
        <pt x="239" y="611" on="1"/>
        <pt x="327" y="611" on="0"/>
        <pt x="445" y="550" on="0"/>
        <pt x="505" y="421" on="0"/>
        <pt x="505" y="318" on="1"/>
        <pt x="505" y="249" on="0"/>
        <pt x="489" y="142" on="0"/>
        <pt x="480" y="108" on="1"/>
        <pt x="467" y="91" on="0"/>
        <pt x="420" y="50" on="0"/>
        <pt x="366" y="14" on="0"/>
        <pt x="320" y="-9" on="0"/>
      </contour>
      <contour>
        <pt x="437" y="-118" on="1"/>
        <pt x="245" y="-4" on="1"/>
        <pt x="305" y="10" on="1"/>
        <pt x="507" y="-62" on="1"/>
        <pt x="483" y="-118" on="1"/>
      </contour>
      <contour>
        <pt x="301" y="51" on="1"/>
        <pt x="309" y="51" on="0"/>
        <pt x="349" y="69" on="0"/>
        <pt x="385" y="90" on="0"/>
        <pt x="387" y="94" on="1"/>
        <pt x="392" y="116" on="0"/>
        <pt x="401" y="173" on="0"/>
        <pt x="406" y="249" on="0"/>
        <pt x="406" y="300" on="1"/>
        <pt x="406" y="379" on="0"/>
        <pt x="381" y="490" on="0"/>
        <pt x="320" y="549" on="0"/>
        <pt x="265" y="549" on="1"/>
        <pt x="249" y="549" on="0"/>
        <pt x="206" y="545" on="0"/>
        <pt x="192" y="537" on="1"/>
        <pt x="167" y="524" on="0"/>
        <pt x="142" y="403" on="0"/>
        <pt x="142" y="303" on="1"/>
        <pt x="142" y="231" on="0"/>
        <pt x="158" y="134" on="0"/>
        <pt x="194" y="76" on="0"/>
        <pt x="256" y="51" on="0"/>
      </contour>
    </TTGlyph>
    <TTGlyph name="R" xMin="42" yMin="0" xMax="519" yMax="603">
      <contour>
        <pt x="42" y="0" on="1"/>
        <pt x="42" y="38" on="1"/>
        <pt x="104" y="58" on="1"/>
        <pt x="104" y="545" on="1"/>
        <pt x="42" y="565" on="1"/>
        <pt x="42" y="603" on="1"/>
        <pt x="294" y="603" on="1"/>
        <pt x="347" y="603" on="0"/>
        <pt x="419" y="573" on="0"/>
        <pt x="455" y="502" on="0"/>
        <pt x="455" y="439" on="1"/>
        <pt x="455" y="363" on="0"/>
        <pt x="387" y="280" on="0"/>
        <pt x="338" y="269" on="1"/>
        <pt x="338" y="263" on="1"/>
        <pt x="354" y="236" on="0"/>
        <pt x="390" y="177" on="0"/>
        <pt x="424" y="121" on="0"/>
        <pt x="455" y="73" on="0"/>
        <pt x="465" y="57" on="1"/>
        <pt x="519" y="42" on="1"/>
        <pt x="519" y="0" on="1"/>
        <pt x="387" y="0" on="1"/>
        <pt x="378" y="20" on="0"/>
        <pt x="345" y="80" on="0"/>
        <pt x="306" y="153" on="0"/>
        <pt x="267" y="227" on="0"/>
        <pt x="252" y="260" on="1"/>
        <pt x="197" y="260" on="1"/>
        <pt x="197" y="63" on="1"/>
        <pt x="264" y="46" on="1"/>
        <pt x="264" y="0" on="1"/>
      </contour>
      <contour>
        <pt x="197" y="317" on="1"/>
        <pt x="278" y="317" on="1"/>
        <pt x="298" y="317" on="0"/>
        <pt x="327" y="325" on="0"/>
        <pt x="347" y="347" on="0"/>
        <pt x="357" y="387" on="0"/>
        <pt x="357" y="419" on="1"/>
        <pt x="357" y="490" on="0"/>
        <pt x="329" y="552" on="0"/>
        <pt x="300" y="552" on="1"/>
        <pt x="197" y="542" on="1"/>
      </contour>
    </TTGlyph>
    <TTGlyph name="Racute" xMin="42" yMin="0" xMax="519" yMax="790">
      <component glyphName="R" x="0" y="0" flags="0x204"/>
      <component glyphName="acutecomb.case" x="160" y="0" flags="0x4"/>
    </TTGlyph>
    <TTGlyph name="Rcaron" xMin="42" yMin="0" xMax="519" yMax="805">
      <component glyphName="R" x="0" y="0" flags="0x204"/>
      <component glyphName="uni030C.case" x="125" y="0" flags="0x4"/>
    </TTGlyph>
    <TTGlyph name="S" xMin="44" yMin="-9" xMax="409" yMax="611">
      <contour>
        <pt x="239" y="-9" on="1"/>
        <pt x="220" y="-9" on="0"/>
        <pt x="172" y="-7" on="0"/>
        <pt x="119" y="-4" on="0"/>
        <pt x="67" y="-1" on="0"/>
        <pt x="44" y="1" on="1"/>
        <pt x="51" y="184" on="1"/>
        <pt x="107" y="184" on="1"/>
        <pt x="123" y="72" on="1"/>
        <pt x="149" y="69" on="0"/>
        <pt x="202" y="62" on="0"/>
        <pt x="251" y="57" on="0"/>
        <pt x="272" y="57" on="1"/>
        <pt x="278" y="57" on="0"/>
        <pt x="298" y="82" on="0"/>
        <pt x="314" y="119" on="0"/>
        <pt x="314" y="137" on="1"/>
        <pt x="314" y="166" on="0"/>
        <pt x="281" y="209" on="0"/>
        <pt x="228" y="244" on="0"/>
        <pt x="198" y="261" on="1"/>
        <pt x="163" y="281" on="0"/>
        <pt x="96" y="327" on="0"/>
        <pt x="52" y="391" on="0"/>
        <pt x="52" y="436" on="1"/>
        <pt x="52" y="448" on="0"/>
        <pt x="54" y="474" on="0"/>
        <pt x="57" y="488" on="1"/>
        <pt x="66" y="505" on="0"/>
        <pt x="109" y="547" on="0"/>
        <pt x="162" y="586" on="0"/>
        <pt x="209" y="611" on="0"/>
        <pt x="222" y="611" on="1"/>
        <pt x="232" y="611" on="0"/>
        <pt x="290" y="605" on="0"/>
        <pt x="361" y="598" on="0"/>
        <pt x="391" y="595" on="1"/>
        <pt x="384" y="422" on="1"/>
        <pt x="328" y="422" on="1"/>
        <pt x="313" y="524" on="1"/>
        <pt x="294" y="528" on="0"/>
        <pt x="240" y="535" on="0"/>
        <pt x="188" y="541" on="0"/>
        <pt x="172" y="541" on="1"/>
        <pt x="166" y="541" on="0"/>
        <pt x="155" y="533" on="0"/>
        <pt x="146" y="516" on="0"/>
        <pt x="141" y="489" on="0"/>
        <pt x="141" y="469" on="1"/>
        <pt x="141" y="440" on="0"/>
        <pt x="172" y="396" on="0"/>
        <pt x="223" y="361" on="0"/>
        <pt x="252" y="344" on="1"/>
        <pt x="280" y="328" on="0"/>
        <pt x="335" y="294" on="0"/>
        <pt x="381" y="253" on="0"/>
        <pt x="409" y="199" on="0"/>
        <pt x="409" y="163" on="1"/>
        <pt x="409" y="150" on="0"/>
        <pt x="405" y="123" on="0"/>
        <pt x="403" y="114" on="1"/>
        <pt x="393" y="95" on="0"/>
        <pt x="351" y="52" on="0"/>
        <pt x="301" y="14" on="0"/>
        <pt x="254" y="-9" on="0"/>
      </contour>
    </TTGlyph>
    <TTGlyph name="Sacute" xMin="44" yMin="-9" xMax="409" yMax="790">
      <component glyphName="S" x="0" y="0" flags="0x204"/>
      <component glyphName="acutecomb.case" x="139" y="0" flags="0x4"/>
    </TTGlyph>
    <TTGlyph name="Sacute.loclPLK" xMin="44" yMin="-9" xMax="409" yMax="819">
      <component glyphName="S" x="0" y="0" flags="0x204"/>
      <component glyphName="acute.loclPLK.case" x="211" y="0" flags="0x4"/>
    </TTGlyph>
    <TTGlyph name="Scaron" xMin="44" yMin="-9" xMax="409" yMax="805">
      <component glyphName="S" x="0" y="0" flags="0x204"/>
      <component glyphName="uni030C.case" x="104" y="0" flags="0x4"/>
    </TTGlyph>
    <TTGlyph name="Scedilla" xMin="44" yMin="-218" xMax="409" yMax="611">
      <component glyphName="S" x="0" y="0" flags="0x204"/>
      <component glyphName="uni0327.case" x="167" y="0" flags="0x4"/>
    </TTGlyph>
    <TTGlyph name="Scircumflex" xMin="44" yMin="-9" xMax="409" yMax="782">
      <component glyphName="S" x="0" y="0" flags="0x204"/>
      <component glyphName="uni0302.case" x="102" y="0" flags="0x4"/>
    </TTGlyph>
    <TTGlyph name="T" xMin="8" yMin="0" xMax="471" yMax="603">
      <contour>
        <pt x="131" y="0" on="1"/>
        <pt x="131" y="38" on="1"/>
        <pt x="193" y="58" on="1"/>
        <pt x="193" y="545" on="1"/>
        <pt x="84" y="539" on="1"/>
        <pt x="74" y="415" on="1"/>
        <pt x="21" y="415" on="1"/>
        <pt x="8" y="603" on="1"/>
        <pt x="471" y="603" on="1"/>
        <pt x="458" y="415" on="1"/>
        <pt x="404" y="415" on="1"/>
        <pt x="394" y="539" on="1"/>
        <pt x="286" y="545" on="1"/>
        <pt x="286" y="63" on="1"/>
        <pt x="352" y="43" on="1"/>
        <pt x="352" y="0" on="1"/>
      </contour>
    </TTGlyph>
    <TTGlyph name="Tbar" xMin="8" yMin="0" xMax="471" yMax="603">
      <component glyphName="T" x="0" y="0" flags="0x204"/>
      <component glyphName="uni0335" x="119" y="-2" flags="0x4"/>
    </TTGlyph>
    <TTGlyph name="Tcaron" xMin="8" yMin="0" xMax="471" yMax="805">
      <component glyphName="T" x="0" y="0" flags="0x204"/>
      <component glyphName="uni030C.case" x="110" y="0" flags="0x4"/>
    </TTGlyph>
    <TTGlyph name="Thorn" xMin="42" yMin="0" xMax="453" yMax="603">
      <contour>
        <pt x="42" y="0" on="1"/>
        <pt x="42" y="38" on="1"/>
        <pt x="104" y="58" on="1"/>
        <pt x="104" y="545" on="1"/>
        <pt x="42" y="565" on="1"/>
        <pt x="42" y="603" on="1"/>
        <pt x="263" y="603" on="1"/>
        <pt x="263" y="560" on="1"/>
        <pt x="197" y="540" on="1"/>
        <pt x="197" y="63" on="1"/>
        <pt x="263" y="43" on="1"/>
        <pt x="263" y="0" on="1"/>
      </contour>
      <contour>
        <pt x="177" y="137" on="1"/>
        <pt x="177" y="194" on="1"/>
        <pt x="275" y="194" on="1"/>
        <pt x="295" y="194" on="0"/>
        <pt x="324" y="197" on="0"/>
        <pt x="345" y="216" on="0"/>
        <pt x="355" y="260" on="0"/>
        <pt x="355" y="301" on="1"/>
        <pt x="355" y="367" on="0"/>
        <pt x="327" y="440" on="0"/>
        <pt x="298" y="440" on="1"/>
        <pt x="177" y="430" on="1"/>
        <pt x="177" y="491" on="1"/>
        <pt x="292" y="491" on="1"/>
        <pt x="342" y="491" on="0"/>
        <pt x="414" y="462" on="0"/>
        <pt x="453" y="393" on="0"/>
        <pt x="453" y="334" on="1"/>
        <pt x="453" y="260" on="0"/>
        <pt x="399" y="173" on="0"/>
        <pt x="313" y="137" on="0"/>
        <pt x="263" y="137" on="1"/>
      </contour>
    </TTGlyph>
    <TTGlyph name="U" xMin="36" yMin="-8" xMax="555" yMax="603">
      <contour>
        <pt x="247" y="-8" on="1"/>
        <pt x="198" y="-8" on="0"/>
        <pt x="131" y="31" on="0"/>
        <pt x="98" y="110" on="0"/>
        <pt x="98" y="170" on="1"/>
        <pt x="98" y="545" on="1"/>
        <pt x="36" y="565" on="1"/>
        <pt x="36" y="603" on="1"/>
        <pt x="257" y="603" on="1"/>
        <pt x="257" y="560" on="1"/>
        <pt x="191" y="540" on="1"/>
        <pt x="191" y="191" on="1"/>
        <pt x="191" y="139" on="0"/>
        <pt x="209" y="88" on="0"/>
        <pt x="237" y="73" on="0"/>
        <pt x="251" y="73" on="1"/>
        <pt x="264" y="73" on="0"/>
        <pt x="321" y="86" on="0"/>
        <pt x="382" y="103" on="0"/>
        <pt x="400" y="108" on="1"/>
        <pt x="400" y="540" on="1"/>
        <pt x="334" y="560" on="1"/>
        <pt x="334" y="603" on="1"/>
        <pt x="555" y="603" on="1"/>
        <pt x="555" y="565" on="1"/>
        <pt x="493" y="545" on="1"/>
        <pt x="493" y="58" on="1"/>
        <pt x="555" y="38" on="1"/>
        <pt x="555" y="0" on="1"/>
        <pt x="423" y="0" on="1"/>
        <pt x="402" y="59" on="1"/>
        <pt x="383" y="50" on="0"/>
        <pt x="334" y="28" on="0"/>
        <pt x="286" y="6" on="0"/>
        <pt x="252" y="-8" on="0"/>
      </contour>
    </TTGlyph>
    <TTGlyph name="Uacute" xMin="36" yMin="-8" xMax="555" yMax="790">
      <component glyphName="U" x="0" y="0" flags="0x204"/>
      <component glyphName="acutecomb.case" x="201" y="0" flags="0x4"/>
    </TTGlyph>
    <TTGlyph name="Ubreve" xMin="36" yMin="-8" xMax="555" yMax="787">
      <component glyphName="U" x="0" y="0" flags="0x204"/>
      <component glyphName="uni0306.case" x="149" y="0" flags="0x4"/>
    </TTGlyph>
    <TTGlyph name="Ucircumflex" xMin="36" yMin="-8" xMax="555" yMax="782">
      <component glyphName="U" x="0" y="0" flags="0x204"/>
      <component glyphName="uni0302.case" x="164" y="0" flags="0x4"/>
    </TTGlyph>
    <TTGlyph name="Udieresis" xMin="36" yMin="-8" xMax="555" yMax="769">
      <component glyphName="U" x="0" y="0" flags="0x204"/>
      <component glyphName="uni0308.case" x="162" y="0" flags="0x4"/>
    </TTGlyph>
    <TTGlyph name="Ugrave" xMin="36" yMin="-8" xMax="555" yMax="790">
      <component glyphName="U" x="0" y="0" flags="0x204"/>
      <component glyphName="gravecomb.case" x="185" y="0" flags="0x4"/>
    </TTGlyph>
    <TTGlyph name="Uhorn" xMin="36" yMin="-8" xMax="638" yMax="710">
      <contour>
        <pt x="247" y="-8" on="1"/>
        <pt x="198" y="-8" on="0"/>
        <pt x="131" y="31" on="0"/>
        <pt x="98" y="110" on="0"/>
        <pt x="98" y="170" on="1"/>
        <pt x="98" y="545" on="1"/>
        <pt x="36" y="565" on="1"/>
        <pt x="36" y="603" on="1"/>
        <pt x="257" y="603" on="1"/>
        <pt x="257" y="557" on="1"/>
        <pt x="191" y="540" on="1"/>
        <pt x="191" y="191" on="1"/>
        <pt x="191" y="139" on="0"/>
        <pt x="209" y="88" on="0"/>
        <pt x="237" y="73" on="0"/>
        <pt x="251" y="73" on="1"/>
        <pt x="264" y="73" on="0"/>
        <pt x="321" y="86" on="0"/>
        <pt x="382" y="103" on="0"/>
        <pt x="400" y="108" on="1"/>
        <pt x="400" y="540" on="1"/>
        <pt x="334" y="557" on="1"/>
        <pt x="334" y="603" on="1"/>
        <pt x="493" y="603" on="1"/>
        <pt x="493" y="58" on="1"/>
        <pt x="555" y="38" on="1"/>
        <pt x="555" y="0" on="1"/>
        <pt x="423" y="0" on="1"/>
        <pt x="402" y="59" on="1"/>
        <pt x="383" y="50" on="0"/>
        <pt x="334" y="28" on="0"/>
        <pt x="286" y="6" on="0"/>
        <pt x="252" y="-8" on="0"/>
      </contour>
      <contour>
        <pt x="492" y="565" on="1"/>
        <pt x="486" y="603" on="1"/>
        <pt x="506" y="603" on="0"/>
        <pt x="548" y="631" on="0"/>
        <pt x="580" y="679" on="0"/>
        <pt x="585" y="710" on="1"/>
        <pt x="638" y="692" on="1"/>
        <pt x="633" y="658" on="0"/>
        <pt x="585" y="600" on="0"/>
        <pt x="522" y="565" on="0"/>
      </contour>
    </TTGlyph>
    <TTGlyph name="Uhungarumlaut" xMin="36" yMin="-8" xMax="555" yMax="790">
      <component glyphName="U" x="0" y="0" flags="0x204"/>
      <component glyphName="uni030B.case" x="113" y="0" flags="0x4"/>
    </TTGlyph>
    <TTGlyph name="Umacron" xMin="36" yMin="-8" xMax="555" yMax="726">
      <component glyphName="U" x="0" y="0" flags="0x204"/>
      <component glyphName="uni0304.case" x="156" y="0" flags="0x4"/>
    </TTGlyph>
    <TTGlyph name="Uogonek" xMin="36" yMin="-229" xMax="555" yMax="603">
      <component glyphName="U" x="0" y="0" flags="0x204"/>
      <component glyphName="uni0328.case" x="377" y="0" flags="0x4"/>
    </TTGlyph>
    <TTGlyph name="Uring" xMin="36" yMin="-8" xMax="555" yMax="862">
      <component glyphName="U" x="0" y="0" flags="0x204"/>
      <component glyphName="uni030A.case" x="193" y="0" flags="0x4"/>
    </TTGlyph>
    <TTGlyph name="Utilde" xMin="36" yMin="-8" xMax="555" yMax="765">
      <component glyphName="U" x="0" y="0" flags="0x204"/>
      <component glyphName="tildecomb.case" x="145" y="0" flags="0x4"/>
    </TTGlyph>
    <TTGlyph name="V" xMin="10" yMin="-7" xMax="542" yMax="603">
      <contour>
        <pt x="230" y="-7" on="1"/>
        <pt x="227" y="-7" on="0"/>
        <pt x="214" y="1" on="0"/>
        <pt x="214" y="1" on="1"/>
        <pt x="72" y="545" on="1"/>
        <pt x="10" y="565" on="1"/>
        <pt x="10" y="603" on="1"/>
        <pt x="239" y="603" on="1"/>
        <pt x="239" y="560" on="1"/>
        <pt x="170" y="540" on="1"/>
        <pt x="247" y="231" on="1"/>
        <pt x="251" y="215" on="0"/>
        <pt x="261" y="168" on="0"/>
        <pt x="270" y="122" on="0"/>
        <pt x="276" y="92" on="0"/>
        <pt x="276" y="92" on="1"/>
        <pt x="287" y="92" on="1"/>
        <pt x="292" y="112" on="0"/>
        <pt x="311" y="195" on="0"/>
        <pt x="337" y="300" on="0"/>
        <pt x="363" y="411" on="0"/>
        <pt x="386" y="508" on="0"/>
        <pt x="393" y="540" on="1"/>
        <pt x="321" y="560" on="1"/>
        <pt x="321" y="603" on="1"/>
        <pt x="542" y="603" on="1"/>
        <pt x="542" y="565" on="1"/>
        <pt x="480" y="545" on="1"/>
        <pt x="475" y="527" on="0"/>
        <pt x="455" y="448" on="0"/>
        <pt x="428" y="344" on="0"/>
        <pt x="398" y="229" on="0"/>
        <pt x="369" y="119" on="0"/>
        <pt x="347" y="32" on="0"/>
        <pt x="340" y="7" on="1"/>
        <pt x="329" y="5" on="0"/>
        <pt x="300" y="1" on="0"/>
        <pt x="271" y="-2" on="0"/>
        <pt x="246" y="-5" on="0"/>
        <pt x="231" y="-7" on="0"/>
      </contour>
    </TTGlyph>
    <TTGlyph name="W" xMin="10" yMin="-7" xMax="809" yMax="603">
      <contour>
        <pt x="220" y="-7" on="1"/>
        <pt x="217" y="-7" on="0"/>
        <pt x="204" y="1" on="0"/>
        <pt x="204" y="1" on="1"/>
        <pt x="72" y="545" on="1"/>
        <pt x="10" y="565" on="1"/>
        <pt x="10" y="603" on="1"/>
        <pt x="227" y="603" on="1"/>
        <pt x="227" y="560" on="1"/>
        <pt x="170" y="540" on="1"/>
        <pt x="240" y="231" on="1"/>
        <pt x="243" y="218" on="0"/>
        <pt x="251" y="182" on="0"/>
        <pt x="258" y="144" on="0"/>
        <pt x="265" y="112" on="0"/>
        <pt x="269" y="92" on="0"/>
        <pt x="269" y="92" on="1"/>
        <pt x="280" y="92" on="1"/>
        <pt x="285" y="113" on="0"/>
        <pt x="307" y="193" on="0"/>
        <pt x="336" y="295" on="0"/>
        <pt x="365" y="401" on="0"/>
        <pt x="377" y="447" on="1"/>
        <pt x="353" y="545" on="1"/>
        <pt x="299" y="568" on="1"/>
        <pt x="299" y="603" on="1"/>
        <pt x="516" y="603" on="1"/>
        <pt x="516" y="557" on="1"/>
        <pt x="451" y="540" on="1"/>
        <pt x="514" y="231" on="1"/>
        <pt x="517" y="218" on="0"/>
        <pt x="525" y="182" on="0"/>
        <pt x="532" y="144" on="0"/>
        <pt x="539" y="112" on="0"/>
        <pt x="543" y="92" on="0"/>
        <pt x="543" y="92" on="1"/>
        <pt x="554" y="92" on="1"/>
        <pt x="559" y="112" on="0"/>
        <pt x="578" y="195" on="0"/>
        <pt x="604" y="300" on="0"/>
        <pt x="630" y="411" on="0"/>
        <pt x="653" y="508" on="0"/>
        <pt x="660" y="540" on="1"/>
        <pt x="588" y="560" on="1"/>
        <pt x="588" y="603" on="1"/>
        <pt x="809" y="603" on="1"/>
        <pt x="809" y="565" on="1"/>
        <pt x="747" y="545" on="1"/>
        <pt x="742" y="527" on="0"/>
        <pt x="722" y="448" on="0"/>
        <pt x="695" y="344" on="0"/>
        <pt x="665" y="229" on="0"/>
        <pt x="636" y="119" on="0"/>
        <pt x="614" y="32" on="0"/>
        <pt x="607" y="7" on="1"/>
        <pt x="596" y="5" on="0"/>
        <pt x="567" y="1" on="0"/>
        <pt x="538" y="-2" on="0"/>
        <pt x="513" y="-5" on="0"/>
        <pt x="498" y="-7" on="0"/>
        <pt x="497" y="-7" on="1"/>
        <pt x="494" y="-7" on="0"/>
        <pt x="481" y="1" on="0"/>
        <pt x="481" y="1" on="1"/>
        <pt x="416" y="292" on="1"/>
        <pt x="407" y="292" on="1"/>
        <pt x="330" y="7" on="1"/>
        <pt x="319" y="5" on="0"/>
        <pt x="290" y="1" on="0"/>
        <pt x="261" y="-2" on="0"/>
        <pt x="236" y="-5" on="0"/>
        <pt x="221" y="-7" on="0"/>
      </contour>
    </TTGlyph>
    <TTGlyph name="Wacute" xMin="10" yMin="-7" xMax="809" yMax="790">
      <component glyphName="W" x="0" y="0" flags="0x204"/>
      <component glyphName="acutecomb.case" x="320" y="0" flags="0x4"/>
    </TTGlyph>
    <TTGlyph name="Wcircumflex" xMin="10" yMin="-7" xMax="809" yMax="782">
      <component glyphName="W" x="0" y="0" flags="0x204"/>
      <component glyphName="uni0302.case" x="283" y="0" flags="0x4"/>
    </TTGlyph>
    <TTGlyph name="Wdieresis" xMin="10" yMin="-7" xMax="809" yMax="769">
      <component glyphName="W" x="0" y="0" flags="0x204"/>
      <component glyphName="uni0308.case" x="281" y="0" flags="0x4"/>
    </TTGlyph>
    <TTGlyph name="Wgrave" xMin="10" yMin="-7" xMax="809" yMax="790">
      <component glyphName="W" x="0" y="0" flags="0x204"/>
      <component glyphName="gravecomb.case" x="304" y="0" flags="0x4"/>
    </TTGlyph>
    <TTGlyph name="X" xMin="-10" yMin="0" xMax="546" yMax="603">
      <contour>
        <pt x="-10" y="0" on="1"/>
        <pt x="-10" y="38" on="1"/>
        <pt x="52" y="58" on="1"/>
        <pt x="207" y="306" on="1"/>
        <pt x="61" y="545" on="1"/>
        <pt x="8" y="565" on="1"/>
        <pt x="8" y="603" on="1"/>
        <pt x="237" y="603" on="1"/>
        <pt x="237" y="560" on="1"/>
        <pt x="165" y="540" on="1"/>
        <pt x="273" y="371" on="1"/>
        <pt x="277" y="371" on="1"/>
        <pt x="369" y="540" on="1"/>
        <pt x="300" y="560" on="1"/>
        <pt x="300" y="603" on="1"/>
        <pt x="521" y="603" on="1"/>
        <pt x="521" y="565" on="1"/>
        <pt x="459" y="545" on="1"/>
        <pt x="324" y="319" on="1"/>
        <pt x="484" y="58" on="1"/>
        <pt x="546" y="38" on="1"/>
        <pt x="546" y="0" on="1"/>
        <pt x="307" y="0" on="1"/>
        <pt x="307" y="43" on="1"/>
        <pt x="374" y="63" on="1"/>
        <pt x="260" y="254" on="1"/>
        <pt x="256" y="254" on="1"/>
        <pt x="142" y="63" on="1"/>
        <pt x="211" y="43" on="1"/>
        <pt x="211" y="0" on="1"/>
      </contour>
    </TTGlyph>
    <TTGlyph name="Y" xMin="-6" yMin="0" xMax="525" yMax="603">
      <contour>
        <pt x="150" y="0" on="1"/>
        <pt x="150" y="38" on="1"/>
        <pt x="215" y="58" on="1"/>
        <pt x="215" y="224" on="1"/>
        <pt x="56" y="545" on="1"/>
        <pt x="-6" y="565" on="1"/>
        <pt x="-6" y="603" on="1"/>
        <pt x="223" y="603" on="1"/>
        <pt x="223" y="560" on="1"/>
        <pt x="157" y="540" on="1"/>
        <pt x="183" y="484" on="0"/>
        <pt x="237" y="371" on="0"/>
        <pt x="263" y="315" on="1"/>
        <pt x="272" y="315" on="1"/>
        <pt x="289" y="353" on="0"/>
        <pt x="323" y="428" on="0"/>
        <pt x="356" y="503" on="0"/>
        <pt x="373" y="540" on="1"/>
        <pt x="304" y="560" on="1"/>
        <pt x="304" y="603" on="1"/>
        <pt x="525" y="603" on="1"/>
        <pt x="525" y="565" on="1"/>
        <pt x="463" y="545" on="1"/>
        <pt x="444" y="505" on="0"/>
        <pt x="405" y="426" on="0"/>
        <pt x="366" y="346" on="0"/>
        <pt x="328" y="267" on="0"/>
        <pt x="308" y="227" on="1"/>
        <pt x="308" y="58" on="1"/>
        <pt x="373" y="38" on="1"/>
        <pt x="373" y="0" on="1"/>
      </contour>
    </TTGlyph>
    <TTGlyph name="Yacute" xMin="-6" yMin="0" xMax="525" yMax="790">
      <component glyphName="Y" x="0" y="0" flags="0x204"/>
      <component glyphName="acutecomb.case" x="173" y="0" flags="0x4"/>
    </TTGlyph>
    <TTGlyph name="Ycircumflex" xMin="-6" yMin="0" xMax="525" yMax="782">
      <component glyphName="Y" x="0" y="0" flags="0x204"/>
      <component glyphName="uni0302.case" x="136" y="0" flags="0x4"/>
    </TTGlyph>
    <TTGlyph name="Ydieresis" xMin="-6" yMin="0" xMax="525" yMax="769">
      <component glyphName="Y" x="0" y="0" flags="0x204"/>
      <component glyphName="uni0308.case" x="134" y="0" flags="0x4"/>
    </TTGlyph>
    <TTGlyph name="Ygrave" xMin="-6" yMin="0" xMax="525" yMax="790">
      <component glyphName="Y" x="0" y="0" flags="0x204"/>
      <component glyphName="gravecomb.case" x="157" y="0" flags="0x4"/>
    </TTGlyph>
    <TTGlyph name="Z" xMin="46" yMin="0" xMax="445" yMax="603">
      <contour>
        <pt x="46" y="0" on="1"/>
        <pt x="46" y="38" on="1"/>
        <pt x="305" y="540" on="1"/>
        <pt x="136" y="554" on="1"/>
        <pt x="127" y="428" on="1"/>
        <pt x="72" y="428" on="1"/>
        <pt x="59" y="603" on="1"/>
        <pt x="422" y="603" on="1"/>
        <pt x="422" y="565" on="1"/>
        <pt x="165" y="65" on="1"/>
        <pt x="368" y="49" on="1"/>
        <pt x="380" y="184" on="1"/>
        <pt x="434" y="184" on="1"/>
        <pt x="445" y="0" on="1"/>
      </contour>
    </TTGlyph>
    <TTGlyph name="Zacute" xMin="46" yMin="0" xMax="445" yMax="790">
      <component glyphName="Z" x="0" y="0" flags="0x204"/>
      <component glyphName="acutecomb.case" x="152" y="0" flags="0x4"/>
    </TTGlyph>
    <TTGlyph name="Zacute.loclPLK" xMin="46" yMin="0" xMax="445" yMax="819">
      <component glyphName="Z" x="0" y="0" flags="0x204"/>
      <component glyphName="acute.loclPLK.case" x="224" y="0" flags="0x4"/>
    </TTGlyph>
    <TTGlyph name="Zcaron" xMin="46" yMin="0" xMax="445" yMax="805">
      <component glyphName="Z" x="0" y="0" flags="0x204"/>
      <component glyphName="uni030C.case" x="117" y="0" flags="0x4"/>
    </TTGlyph>
    <TTGlyph name="Zdotaccent" xMin="46" yMin="0" xMax="445" yMax="768">
      <component glyphName="Z" x="0" y="0" flags="0x204"/>
      <component glyphName="uni0307.case" x="200" y="0" flags="0x4"/>
    </TTGlyph>
    <TTGlyph name="a" xMin="38" yMin="-9" xMax="416" yMax="457">
      <contour>
        <pt x="194" y="-9" on="1"/>
        <pt x="155" y="-9" on="0"/>
        <pt x="83" y="37" on="0"/>
        <pt x="38" y="133" on="0"/>
        <pt x="38" y="209" on="1"/>
        <pt x="38" y="257" on="0"/>
        <pt x="52" y="337" on="0"/>
        <pt x="62" y="358" on="1"/>
        <pt x="70" y="369" on="0"/>
        <pt x="110" y="402" on="0"/>
        <pt x="157" y="435" on="0"/>
        <pt x="198" y="457" on="0"/>
        <pt x="207" y="457" on="1"/>
        <pt x="212" y="457" on="0"/>
        <pt x="246" y="453" on="0"/>
        <pt x="291" y="447" on="0"/>
        <pt x="337" y="441" on="0"/>
        <pt x="374" y="435" on="0"/>
        <pt x="382" y="434" on="1"/>
        <pt x="382" y="58" on="1"/>
        <pt x="416" y="44" on="1"/>
        <pt x="416" y="7" on="1"/>
        <pt x="416" y="7" on="0"/>
        <pt x="400" y="4" on="0"/>
        <pt x="376" y="-1" on="0"/>
        <pt x="350" y="-6" on="0"/>
        <pt x="331" y="-9" on="0"/>
        <pt x="328" y="-9" on="1"/>
        <pt x="326" y="-9" on="0"/>
        <pt x="309" y="5" on="0"/>
        <pt x="294" y="21" on="0"/>
        <pt x="294" y="24" on="1"/>
        <pt x="294" y="63" on="1"/>
        <pt x="277" y="50" on="0"/>
        <pt x="233" y="16" on="0"/>
        <pt x="198" y="-9" on="0"/>
      </contour>
      <contour>
        <pt x="200" y="65" on="1"/>
        <pt x="205" y="65" on="0"/>
        <pt x="238" y="79" on="0"/>
        <pt x="277" y="98" on="0"/>
        <pt x="291" y="105" on="1"/>
        <pt x="291" y="380" on="1"/>
        <pt x="275" y="385" on="0"/>
        <pt x="226" y="395" on="0"/>
        <pt x="182" y="401" on="0"/>
        <pt x="172" y="399" on="1"/>
        <pt x="161" y="397" on="0"/>
        <pt x="143" y="365" on="0"/>
        <pt x="134" y="287" on="0"/>
        <pt x="134" y="216" on="1"/>
        <pt x="134" y="160" on="0"/>
        <pt x="159" y="94" on="0"/>
        <pt x="190" y="65" on="0"/>
      </contour>
    </TTGlyph>
    <TTGlyph name="aacute" xMin="38" yMin="-9" xMax="416" yMax="680">
      <component glyphName="a" x="0" y="0" flags="0x204"/>
      <component glyphName="acutecomb" x="155" y="0" flags="0x4"/>
    </TTGlyph>
    <TTGlyph name="abreve" xMin="38" yMin="-9" xMax="416" yMax="662">
      <component glyphName="a" x="0" y="0" flags="0x204"/>
      <component glyphName="uni0306" x="83" y="0" flags="0x4"/>
    </TTGlyph>
    <TTGlyph name="acircumflex" xMin="38" yMin="-9" xMax="416" yMax="680">
      <component glyphName="a" x="0" y="0" flags="0x204"/>
      <component glyphName="uni0302" x="97" y="0" flags="0x4"/>
    </TTGlyph>
    <TTGlyph name="acute" xMin="0" yMin="519" xMax="185" yMax="680">
      <contour>
        <pt x="23" y="519" on="1"/>
        <pt x="0" y="549" on="1"/>
        <pt x="136" y="680" on="1"/>
        <pt x="185" y="630" on="1"/>
        <pt x="185" y="605" on="1"/>
      </contour>
    </TTGlyph>
    <TTGlyph name="acute.loclPLK" xMin="0" yMin="515" xMax="158" yMax="689">
      <contour>
        <pt x="36" y="515" on="1"/>
        <pt x="0" y="542" on="1"/>
        <pt x="75" y="689" on="1"/>
        <pt x="144" y="656" on="1"/>
        <pt x="158" y="620" on="1"/>
      </contour>
    </TTGlyph>
    <TTGlyph name="acute.loclPLK.case" xMin="0" yMin="641" xMax="124" yMax="819">
      <contour>
        <pt x="42" y="641" on="1"/>
        <pt x="0" y="658" on="1"/>
        <pt x="35" y="819" on="1"/>
        <pt x="101" y="805" on="1"/>
        <pt x="124" y="774" on="1"/>
      </contour>
    </TTGlyph>
    <TTGlyph name="acutecomb" xMin="0" yMin="519" xMax="185" yMax="680">
      <component glyphName="acute" x="0" y="0" flags="0x4"/>
    </TTGlyph>
    <TTGlyph name="acutecomb.case" xMin="0" yMin="660" xMax="203" yMax="790">
      <contour>
        <pt x="15" y="660" on="1"/>
        <pt x="0" y="696" on="1"/>
        <pt x="163" y="790" on="1"/>
        <pt x="203" y="730" on="1"/>
        <pt x="199" y="704" on="1"/>
      </contour>
    </TTGlyph>
    <TTGlyph name="adieresis" xMin="38" yMin="-9" xMax="416" yMax="646">
      <component glyphName="a" x="0" y="0" flags="0x204"/>
      <component glyphName="uni0308" x="105" y="0" flags="0x4"/>
    </TTGlyph>
    <TTGlyph name="ae" xMin="38" yMin="-9" xMax="609" yMax="461">
      <contour>
        <pt x="194" y="-9" on="1"/>
        <pt x="155" y="-9" on="0"/>
        <pt x="83" y="37" on="0"/>
        <pt x="38" y="133" on="0"/>
        <pt x="38" y="209" on="1"/>
        <pt x="38" y="257" on="0"/>
        <pt x="52" y="337" on="0"/>
        <pt x="62" y="358" on="1"/>
        <pt x="70" y="369" on="0"/>
        <pt x="110" y="402" on="0"/>
        <pt x="157" y="435" on="0"/>
        <pt x="198" y="457" on="0"/>
        <pt x="207" y="457" on="1"/>
        <pt x="212" y="457" on="0"/>
        <pt x="250" y="452" on="0"/>
        <pt x="301" y="445" on="0"/>
        <pt x="354" y="437" on="0"/>
        <pt x="396" y="431" on="0"/>
        <pt x="405" y="429" on="1"/>
        <pt x="319" y="371" on="1"/>
        <pt x="307" y="375" on="0"/>
        <pt x="264" y="387" on="0"/>
        <pt x="217" y="398" on="0"/>
        <pt x="179" y="405" on="0"/>
        <pt x="172" y="404" on="1"/>
        <pt x="161" y="402" on="0"/>
        <pt x="143" y="367" on="0"/>
        <pt x="134" y="287" on="0"/>
        <pt x="134" y="216" on="1"/>
        <pt x="134" y="160" on="0"/>
        <pt x="159" y="94" on="0"/>
        <pt x="190" y="65" on="0"/>
        <pt x="200" y="65" on="1"/>
        <pt x="204" y="65" on="0"/>
        <pt x="239" y="80" on="0"/>
        <pt x="281" y="101" on="0"/>
        <pt x="312" y="116" on="0"/>
        <pt x="312" y="116" on="1"/>
        <pt x="319" y="81" on="1"/>
        <pt x="306" y="71" on="0"/>
        <pt x="266" y="41" on="0"/>
        <pt x="226" y="11" on="0"/>
        <pt x="197" y="-9" on="0"/>
      </contour>
      <contour>
        <pt x="443" y="-9" on="1"/>
        <pt x="402" y="-9" on="0"/>
        <pt x="326" y="36" on="0"/>
        <pt x="277" y="130" on="0"/>
        <pt x="277" y="203" on="1"/>
        <pt x="277" y="254" on="0"/>
        <pt x="291" y="339" on="0"/>
        <pt x="301" y="358" on="1"/>
        <pt x="309" y="370" on="0"/>
        <pt x="350" y="405" on="0"/>
        <pt x="399" y="438" on="0"/>
        <pt x="441" y="461" on="0"/>
        <pt x="451" y="461" on="1"/>
        <pt x="500" y="461" on="0"/>
        <pt x="571" y="429" on="0"/>
        <pt x="609" y="334" on="0"/>
        <pt x="609" y="241" on="1"/>
        <pt x="373" y="221" on="1"/>
        <pt x="373" y="172" on="0"/>
        <pt x="394" y="109" on="0"/>
        <pt x="424" y="75" on="0"/>
        <pt x="456" y="62" on="0"/>
        <pt x="466" y="62" on="1"/>
        <pt x="470" y="62" on="0"/>
        <pt x="500" y="63" on="0"/>
        <pt x="540" y="65" on="0"/>
        <pt x="580" y="67" on="0"/>
        <pt x="595" y="67" on="1"/>
        <pt x="595" y="26" on="1"/>
        <pt x="577" y="20" on="0"/>
        <pt x="531" y="8" on="0"/>
        <pt x="485" y="-2" on="0"/>
        <pt x="450" y="-9" on="0"/>
      </contour>
      <contour>
        <pt x="375" y="262" on="1"/>
        <pt x="512" y="280" on="1"/>
        <pt x="512" y="337" on="0"/>
        <pt x="481" y="406" on="0"/>
        <pt x="443" y="406" on="1"/>
        <pt x="435" y="406" on="0"/>
        <pt x="416" y="404" on="0"/>
        <pt x="405" y="399" on="1"/>
        <pt x="396" y="395" on="0"/>
        <pt x="383" y="352" on="0"/>
        <pt x="375" y="292" on="0"/>
      </contour>
    </TTGlyph>
    <TTGlyph name="aeacute" xMin="38" yMin="-9" xMax="609" yMax="680">
      <component glyphName="ae" x="0" y="0" flags="0x204"/>
      <component glyphName="acutecomb" x="253" y="0" flags="0x4"/>
    </TTGlyph>
    <TTGlyph name="agrave" xMin="38" yMin="-9" xMax="416" yMax="680">
      <component glyphName="a" x="0" y="0" flags="0x204"/>
      <component glyphName="gravecomb" x="127" y="0" flags="0x4"/>
    </TTGlyph>
    <TTGlyph name="amacron" xMin="38" yMin="-9" xMax="416" yMax="613">
      <component glyphName="a" x="0" y="0" flags="0x204"/>
      <component glyphName="uni0304" x="87" y="0" flags="0x4"/>
    </TTGlyph>
    <TTGlyph name="ampersand" xMin="30" yMin="-9" xMax="569" yMax="611">
      <contour>
        <pt x="473" y="0" on="1"/>
        <pt x="468" y="0" on="0"/>
        <pt x="433" y="31" on="0"/>
        <pt x="380" y="85" on="0"/>
        <pt x="317" y="153" on="0"/>
        <pt x="249" y="227" on="0"/>
        <pt x="184" y="300" on="0"/>
        <pt x="156" y="330" on="1"/>
        <pt x="116" y="374" on="0"/>
        <pt x="96" y="452" on="0"/>
        <pt x="96" y="475" on="1"/>
        <pt x="96" y="483" on="0"/>
        <pt x="100" y="517" on="0"/>
        <pt x="105" y="527" on="1"/>
        <pt x="110" y="535" on="0"/>
        <pt x="140" y="562" on="0"/>
        <pt x="178" y="591" on="0"/>
        <pt x="211" y="611" on="0"/>
        <pt x="218" y="611" on="1"/>
        <pt x="260" y="611" on="0"/>
        <pt x="323" y="592" on="0"/>
        <pt x="358" y="554" on="0"/>
        <pt x="358" y="523" on="1"/>
        <pt x="358" y="501" on="0"/>
        <pt x="349" y="445" on="0"/>
        <pt x="346" y="427" on="1"/>
        <pt x="295" y="427" on="1"/>
        <pt x="290" y="507" on="1"/>
        <pt x="290" y="532" on="0"/>
        <pt x="254" y="551" on="0"/>
        <pt x="209" y="555" on="0"/>
        <pt x="194" y="555" on="1"/>
        <pt x="183" y="555" on="0"/>
        <pt x="167" y="526" on="0"/>
        <pt x="167" y="505" on="1"/>
        <pt x="167" y="477" on="0"/>
        <pt x="188" y="422" on="0"/>
        <pt x="213" y="392" on="1"/>
        <pt x="234" y="367" on="0"/>
        <pt x="283" y="313" on="0"/>
        <pt x="340" y="252" on="0"/>
        <pt x="406" y="183" on="0"/>
        <pt x="483" y="104" on="0"/>
        <pt x="527" y="58" on="1"/>
        <pt x="569" y="45" on="1"/>
        <pt x="569" y="0" on="1"/>
      </contour>
      <contour>
        <pt x="219" y="-9" on="1"/>
        <pt x="191" y="-9" on="0"/>
        <pt x="126" y="5" on="0"/>
        <pt x="67" y="40" on="0"/>
        <pt x="30" y="104" on="0"/>
        <pt x="30" y="154" on="1"/>
        <pt x="30" y="197" on="0"/>
        <pt x="69" y="271" on="0"/>
        <pt x="126" y="329" on="0"/>
        <pt x="151" y="347" on="1"/>
        <pt x="180" y="313" on="1"/>
        <pt x="152" y="283" on="0"/>
        <pt x="126" y="203" on="0"/>
        <pt x="126" y="165" on="1"/>
        <pt x="126" y="122" on="0"/>
        <pt x="157" y="74" on="0"/>
        <pt x="206" y="54" on="0"/>
        <pt x="232" y="54" on="1"/>
        <pt x="243" y="54" on="0"/>
        <pt x="265" y="56" on="0"/>
        <pt x="276" y="59" on="1"/>
        <pt x="284" y="61" on="0"/>
        <pt x="320" y="109" on="0"/>
        <pt x="365" y="181" on="0"/>
        <pt x="409" y="261" on="0"/>
        <pt x="443" y="332" on="0"/>
        <pt x="450" y="353" on="1"/>
        <pt x="542" y="353" on="1"/>
        <pt x="520" y="321" on="0"/>
        <pt x="481" y="258" on="0"/>
        <pt x="445" y="199" on="0"/>
        <pt x="412" y="142" on="0"/>
        <pt x="381" y="87" on="0"/>
        <pt x="366" y="61" on="1"/>
        <pt x="358" y="53" on="0"/>
        <pt x="320" y="29" on="0"/>
        <pt x="274" y="6" on="0"/>
        <pt x="231" y="-9" on="0"/>
      </contour>
      <contour>
        <pt x="458" y="286" on="1"/>
        <pt x="361" y="315" on="1"/>
        <pt x="361" y="353" on="1"/>
        <pt x="544" y="353" on="1"/>
        <pt x="544" y="307" on="1"/>
      </contour>
    </TTGlyph>
    <TTGlyph name="aogonek" xMin="38" yMin="-222" xMax="416" yMax="457">
      <component glyphName="a" x="0" y="0" flags="0x204"/>
      <component glyphName="uni0328" x="238" y="7" flags="0x4"/>
    </TTGlyph>
    <TTGlyph name="apostrophe" xMin="65" yMin="477" xMax="168" yMax="698">
      <contour>
        <pt x="102" y="477" on="1"/>
        <pt x="65" y="495" on="1"/>
        <pt x="72" y="513" on="0"/>
        <pt x="86" y="564" on="0"/>
        <pt x="90" y="587" on="1"/>
        <pt x="83" y="592" on="0"/>
        <pt x="70" y="602" on="0"/>
        <pt x="70" y="605" on="1"/>
        <pt x="73" y="693" on="1"/>
        <pt x="85" y="694" on="0"/>
        <pt x="109" y="696" on="0"/>
        <pt x="133" y="698" on="0"/>
        <pt x="145" y="698" on="1"/>
        <pt x="148" y="698" on="0"/>
        <pt x="159" y="688" on="0"/>
        <pt x="168" y="675" on="0"/>
        <pt x="168" y="672" on="1"/>
        <pt x="168" y="647" on="1"/>
        <pt x="168" y="618" on="0"/>
        <pt x="149" y="553" on="0"/>
        <pt x="119" y="496" on="0"/>
      </contour>
    </TTGlyph>
    <TTGlyph name="apostrophecomb" xMin="0" yMin="477" xMax="103" yMax="698">
      <contour>
        <pt x="37" y="477" on="1"/>
        <pt x="0" y="495" on="1"/>
        <pt x="7" y="513" on="0"/>
        <pt x="21" y="564" on="0"/>
        <pt x="25" y="587" on="1"/>
        <pt x="18" y="592" on="0"/>
        <pt x="5" y="602" on="0"/>
        <pt x="5" y="605" on="1"/>
        <pt x="8" y="693" on="1"/>
        <pt x="20" y="694" on="0"/>
        <pt x="44" y="696" on="0"/>
        <pt x="68" y="698" on="0"/>
        <pt x="80" y="698" on="1"/>
        <pt x="83" y="698" on="0"/>
        <pt x="94" y="688" on="0"/>
        <pt x="103" y="675" on="0"/>
        <pt x="103" y="672" on="1"/>
        <pt x="103" y="647" on="1"/>
        <pt x="103" y="618" on="0"/>
        <pt x="84" y="553" on="0"/>
        <pt x="54" y="496" on="0"/>
      </contour>
    </TTGlyph>
    <TTGlyph name="approxequal" xMin="85" yMin="95" xMax="483" yMax="384">
      <contour>
        <pt x="388" y="276" on="1"/>
        <pt x="357" y="276" on="0"/>
        <pt x="294" y="287" on="0"/>
        <pt x="235" y="302" on="0"/>
        <pt x="187" y="313" on="0"/>
        <pt x="172" y="313" on="1"/>
        <pt x="165" y="313" on="0"/>
        <pt x="142" y="298" on="0"/>
        <pt x="121" y="282" on="0"/>
        <pt x="117" y="279" on="1"/>
        <pt x="85" y="306" on="1"/>
        <pt x="92" y="314" on="0"/>
        <pt x="114" y="340" on="0"/>
        <pt x="141" y="366" on="0"/>
        <pt x="168" y="384" on="0"/>
        <pt x="179" y="384" on="1"/>
        <pt x="202" y="384" on="0"/>
        <pt x="265" y="372" on="0"/>
        <pt x="331" y="355" on="0"/>
        <pt x="386" y="343" on="0"/>
        <pt x="401" y="343" on="1"/>
        <pt x="412" y="343" on="0"/>
        <pt x="442" y="370" on="0"/>
        <pt x="450" y="380" on="1"/>
        <pt x="483" y="352" on="1"/>
        <pt x="477" y="344" on="0"/>
        <pt x="455" y="319" on="0"/>
        <pt x="427" y="293" on="0"/>
        <pt x="399" y="276" on="0"/>
      </contour>
      <contour>
        <pt x="388" y="95" on="1"/>
        <pt x="357" y="95" on="0"/>
        <pt x="294" y="106" on="0"/>
        <pt x="235" y="121" on="0"/>
        <pt x="187" y="132" on="0"/>
        <pt x="172" y="132" on="1"/>
        <pt x="165" y="132" on="0"/>
        <pt x="142" y="118" on="0"/>
        <pt x="121" y="101" on="0"/>
        <pt x="117" y="98" on="1"/>
        <pt x="85" y="125" on="1"/>
        <pt x="92" y="133" on="0"/>
        <pt x="114" y="159" on="0"/>
        <pt x="141" y="185" on="0"/>
        <pt x="168" y="203" on="0"/>
        <pt x="179" y="203" on="1"/>
        <pt x="202" y="203" on="0"/>
        <pt x="265" y="191" on="0"/>
        <pt x="331" y="174" on="0"/>
        <pt x="386" y="162" on="0"/>
        <pt x="401" y="162" on="1"/>
        <pt x="412" y="162" on="0"/>
        <pt x="442" y="189" on="0"/>
        <pt x="450" y="199" on="1"/>
        <pt x="483" y="171" on="1"/>
        <pt x="477" y="163" on="0"/>
        <pt x="455" y="138" on="0"/>
        <pt x="427" y="112" on="0"/>
        <pt x="399" y="95" on="0"/>
      </contour>
    </TTGlyph>
    <TTGlyph name="aring" xMin="38" yMin="-9" xMax="416" yMax="725">
      <component glyphName="a" x="0" y="0" flags="0x204"/>
      <component glyphName="uni030A" x="127" y="0" flags="0x4"/>
    </TTGlyph>
    <TTGlyph name="aringacute" xMin="38" yMin="-9" xMax="416" yMax="922">
      <component glyphName="a" x="0" y="0" flags="0x204"/>
      <component glyphName="uni030A" x="127" y="0" flags="0x4"/>
      <component glyphName="acutecomb" x="158" y="242" flags="0x4"/>
    </TTGlyph>
    <TTGlyph name="asciicircum" xMin="50" yMin="251" xMax="469" yMax="603">
      <contour>
        <pt x="101" y="251" on="1"/>
        <pt x="50" y="276" on="1"/>
        <pt x="212" y="603" on="1"/>
        <pt x="306" y="603" on="1"/>
        <pt x="469" y="276" on="1"/>
        <pt x="418" y="251" on="1"/>
        <pt x="259" y="561" on="1"/>
      </contour>
    </TTGlyph>
    <TTGlyph name="asciitilde" xMin="85" yMin="276" xMax="483" yMax="384">
      <contour>
        <pt x="388" y="276" on="1"/>
        <pt x="347" y="276" on="0"/>
        <pt x="263" y="295" on="0"/>
        <pt x="192" y="313" on="0"/>
        <pt x="172" y="313" on="1"/>
        <pt x="165" y="313" on="0"/>
        <pt x="142" y="298" on="0"/>
        <pt x="121" y="282" on="0"/>
        <pt x="117" y="279" on="1"/>
        <pt x="85" y="306" on="1"/>
        <pt x="94" y="317" on="0"/>
        <pt x="127" y="354" on="0"/>
        <pt x="164" y="384" on="0"/>
        <pt x="179" y="384" on="1"/>
        <pt x="202" y="384" on="0"/>
        <pt x="265" y="372" on="0"/>
        <pt x="331" y="355" on="0"/>
        <pt x="386" y="343" on="0"/>
        <pt x="401" y="343" on="1"/>
        <pt x="412" y="343" on="0"/>
        <pt x="442" y="370" on="0"/>
        <pt x="450" y="380" on="1"/>
        <pt x="483" y="352" on="1"/>
        <pt x="475" y="342" on="0"/>
        <pt x="441" y="305" on="0"/>
        <pt x="403" y="276" on="0"/>
      </contour>
    </TTGlyph>
    <TTGlyph name="asterisk" xMin="24" yMin="383" xMax="309" yMax="681">
      <contour>
        <pt x="145" y="383" on="1"/>
        <pt x="132" y="397" on="1"/>
        <pt x="147" y="497" on="1"/>
        <pt x="67" y="435" on="1"/>
        <pt x="48" y="439" on="1"/>
        <pt x="24" y="489" on="1"/>
        <pt x="127" y="532" on="1"/>
        <pt x="24" y="575" on="1"/>
        <pt x="48" y="625" on="1"/>
        <pt x="67" y="629" on="1"/>
        <pt x="147" y="566" on="1"/>
        <pt x="132" y="677" on="1"/>
        <pt x="188" y="681" on="1"/>
        <pt x="201" y="667" on="1"/>
        <pt x="186" y="566" on="1"/>
        <pt x="266" y="629" on="1"/>
        <pt x="285" y="625" on="1"/>
        <pt x="309" y="575" on="1"/>
        <pt x="205" y="532" on="1"/>
        <pt x="309" y="489" on="1"/>
        <pt x="285" y="439" on="1"/>
        <pt x="266" y="435" on="1"/>
        <pt x="186" y="498" on="1"/>
        <pt x="201" y="387" on="1"/>
      </contour>
    </TTGlyph>
    <TTGlyph name="at" xMin="36" yMin="-166" xMax="759" yMax="647">
      <contour>
        <pt x="314" y="-166" on="1"/>
        <pt x="265" y="-166" on="0"/>
        <pt x="167" y="-125" on="0"/>
        <pt x="85" y="-40" on="0"/>
        <pt x="36" y="95" on="0"/>
        <pt x="36" y="189" on="1"/>
        <pt x="36" y="291" on="0"/>
        <pt x="85" y="459" on="0"/>
        <pt x="182" y="581" on="0"/>
        <pt x="323" y="647" on="0"/>
        <pt x="415" y="647" on="1"/>
        <pt x="543" y="647" on="0"/>
        <pt x="694" y="572" on="0"/>
        <pt x="759" y="440" on="0"/>
        <pt x="759" y="354" on="1"/>
        <pt x="759" y="291" on="0"/>
        <pt x="731" y="169" on="0"/>
        <pt x="694" y="69" on="0"/>
        <pt x="666" y="10" on="0"/>
        <pt x="666" y="9" on="1"/>
        <pt x="645" y="6" on="0"/>
        <pt x="592" y="0" on="0"/>
        <pt x="542" y="-6" on="0"/>
        <pt x="508" y="-9" on="0"/>
        <pt x="505" y="-9" on="1"/>
        <pt x="503" y="-9" on="0"/>
        <pt x="486" y="5" on="0"/>
        <pt x="471" y="21" on="0"/>
        <pt x="471" y="24" on="1"/>
        <pt x="471" y="63" on="1"/>
        <pt x="454" y="50" on="0"/>
        <pt x="409" y="16" on="0"/>
        <pt x="375" y="-9" on="0"/>
        <pt x="371" y="-9" on="1"/>
        <pt x="333" y="-9" on="0"/>
        <pt x="261" y="36" on="0"/>
        <pt x="215" y="130" on="0"/>
        <pt x="215" y="203" on="1"/>
        <pt x="215" y="247" on="0"/>
        <pt x="229" y="334" on="0"/>
        <pt x="240" y="358" on="1"/>
        <pt x="248" y="370" on="0"/>
        <pt x="287" y="403" on="0"/>
        <pt x="334" y="435" on="0"/>
        <pt x="375" y="457" on="0"/>
        <pt x="384" y="457" on="1"/>
        <pt x="389" y="457" on="0"/>
        <pt x="423" y="453" on="0"/>
        <pt x="468" y="447" on="0"/>
        <pt x="514" y="441" on="0"/>
        <pt x="551" y="435" on="0"/>
        <pt x="559" y="434" on="1"/>
        <pt x="559" y="62" on="1"/>
        <pt x="628" y="52" on="1"/>
        <pt x="642" y="98" on="0"/>
        <pt x="661" y="199" on="0"/>
        <pt x="671" y="295" on="0"/>
        <pt x="671" y="332" on="1"/>
        <pt x="671" y="463" on="0"/>
        <pt x="544" y="586" on="0"/>
        <pt x="417" y="586" on="1"/>
        <pt x="368" y="586" on="0"/>
        <pt x="255" y="556" on="0"/>
        <pt x="209" y="529" on="1"/>
        <pt x="194" y="514" on="0"/>
        <pt x="164" y="443" on="0"/>
        <pt x="140" y="350" on="0"/>
        <pt x="125" y="252" on="0"/>
        <pt x="125" y="210" on="1"/>
        <pt x="125" y="145" on="0"/>
        <pt x="140" y="30" on="0"/>
        <pt x="189" y="-58" on="0"/>
        <pt x="287" y="-108" on="0"/>
        <pt x="370" y="-108" on="1"/>
        <pt x="373" y="-108" on="0"/>
        <pt x="405" y="-107" on="0"/>
        <pt x="445" y="-105" on="0"/>
        <pt x="461" y="-104" on="1"/>
        <pt x="467" y="-146" on="1"/>
        <pt x="442" y="-152" on="0"/>
        <pt x="355" y="-166" on="0"/>
      </contour>
      <contour>
        <pt x="377" y="65" on="1"/>
        <pt x="381" y="65" on="0"/>
        <pt x="409" y="77" on="0"/>
        <pt x="443" y="93" on="0"/>
        <pt x="468" y="105" on="0"/>
        <pt x="468" y="105" on="1"/>
        <pt x="468" y="380" on="1"/>
        <pt x="447" y="385" on="0"/>
        <pt x="397" y="394" on="0"/>
        <pt x="357" y="399" on="0"/>
        <pt x="351" y="397" on="1"/>
        <pt x="342" y="394" on="0"/>
        <pt x="328" y="372" on="0"/>
        <pt x="317" y="330" on="0"/>
        <pt x="311" y="264" on="0"/>
        <pt x="311" y="216" on="1"/>
        <pt x="311" y="160" on="0"/>
        <pt x="336" y="94" on="0"/>
        <pt x="367" y="65" on="0"/>
      </contour>
    </TTGlyph>
    <TTGlyph name="atilde" xMin="38" yMin="-9" xMax="416" yMax="637">
      <component glyphName="a" x="0" y="0" flags="0x204"/>
      <component glyphName="tildecomb" x="76" y="0" flags="0x4"/>
    </TTGlyph>
    <TTGlyph name="b" xMin="30" yMin="-9" xMax="409" yMax="646">
      <contour>
        <pt x="240" y="-9" on="1"/>
        <pt x="235" y="-9" on="0"/>
        <pt x="190" y="-5" on="0"/>
        <pt x="132" y="2" on="0"/>
        <pt x="79" y="9" on="0"/>
        <pt x="65" y="12" on="1"/>
        <pt x="65" y="579" on="1"/>
        <pt x="30" y="593" on="1"/>
        <pt x="30" y="630" on="1"/>
        <pt x="38" y="632" on="0"/>
        <pt x="66" y="637" on="0"/>
        <pt x="96" y="642" on="0"/>
        <pt x="118" y="646" on="0"/>
        <pt x="121" y="646" on="1"/>
        <pt x="124" y="646" on="0"/>
        <pt x="141" y="632" on="0"/>
        <pt x="156" y="617" on="0"/>
        <pt x="156" y="613" on="1"/>
        <pt x="151" y="389" on="1"/>
        <pt x="156" y="388" on="1"/>
        <pt x="173" y="400" on="0"/>
        <pt x="216" y="433" on="0"/>
        <pt x="250" y="457" on="0"/>
        <pt x="253" y="457" on="1"/>
        <pt x="292" y="457" on="0"/>
        <pt x="363" y="412" on="0"/>
        <pt x="409" y="319" on="0"/>
        <pt x="409" y="245" on="1"/>
        <pt x="409" y="193" on="0"/>
        <pt x="396" y="111" on="0"/>
        <pt x="385" y="90" on="1"/>
        <pt x="377" y="79" on="0"/>
        <pt x="337" y="46" on="0"/>
        <pt x="290" y="13" on="0"/>
        <pt x="249" y="-9" on="0"/>
      </contour>
      <contour>
        <pt x="275" y="49" on="1"/>
        <pt x="287" y="51" on="0"/>
        <pt x="304" y="83" on="0"/>
        <pt x="313" y="162" on="0"/>
        <pt x="313" y="232" on="1"/>
        <pt x="313" y="287" on="0"/>
        <pt x="288" y="353" on="0"/>
        <pt x="257" y="383" on="0"/>
        <pt x="247" y="383" on="1"/>
        <pt x="244" y="383" on="0"/>
        <pt x="211" y="369" on="0"/>
        <pt x="171" y="351" on="0"/>
        <pt x="156" y="343" on="1"/>
        <pt x="156" y="68" on="1"/>
        <pt x="172" y="63" on="0"/>
        <pt x="221" y="53" on="0"/>
        <pt x="266" y="48" on="0"/>
      </contour>
    </TTGlyph>
    <TTGlyph name="backslash" xMin="16" yMin="-118" xMax="287" yMax="687">
      <contour>
        <pt x="219" y="-118" on="1"/>
        <pt x="16" y="687" on="1"/>
        <pt x="84" y="687" on="1"/>
        <pt x="287" y="-118" on="1"/>
      </contour>
    </TTGlyph>
    <TTGlyph name="bar" xMin="70" yMin="-196" xMax="135" yMax="673">
      <contour>
        <pt x="70" y="-196" on="1"/>
        <pt x="70" y="673" on="1"/>
        <pt x="135" y="673" on="1"/>
        <pt x="135" y="-196" on="1"/>
      </contour>
    </TTGlyph>
    <TTGlyph name="braceleft" xMin="33" yMin="-112" xMax="251" yMax="680">
      <contour>
        <pt x="246" y="-112" on="1"/>
        <pt x="103" y="-105" on="1"/>
        <pt x="103" y="212" on="1"/>
        <pt x="33" y="259" on="1"/>
        <pt x="33" y="293" on="1"/>
        <pt x="103" y="340" on="1"/>
        <pt x="103" y="673" on="1"/>
        <pt x="246" y="680" on="1"/>
        <pt x="251" y="644" on="1"/>
        <pt x="180" y="624" on="1"/>
        <pt x="180" y="324" on="1"/>
        <pt x="102" y="279" on="1"/>
        <pt x="180" y="228" on="1"/>
        <pt x="180" y="-56" on="1"/>
        <pt x="251" y="-77" on="1"/>
      </contour>
    </TTGlyph>
    <TTGlyph name="braceright" xMin="33" yMin="-112" xMax="251" yMax="680">
      <contour>
        <pt x="38" y="-112" on="1"/>
        <pt x="33" y="-77" on="1"/>
        <pt x="104" y="-56" on="1"/>
        <pt x="104" y="228" on="1"/>
        <pt x="182" y="279" on="1"/>
        <pt x="104" y="324" on="1"/>
        <pt x="104" y="624" on="1"/>
        <pt x="33" y="644" on="1"/>
        <pt x="38" y="680" on="1"/>
        <pt x="181" y="673" on="1"/>
        <pt x="181" y="340" on="1"/>
        <pt x="251" y="293" on="1"/>
        <pt x="251" y="259" on="1"/>
        <pt x="181" y="212" on="1"/>
        <pt x="181" y="-105" on="1"/>
      </contour>
    </TTGlyph>
    <TTGlyph name="bracketleft" xMin="60" yMin="-112" xMax="208" yMax="680">
      <contour>
        <pt x="203" y="-112" on="1"/>
        <pt x="60" y="-105" on="1"/>
        <pt x="60" y="673" on="1"/>
        <pt x="203" y="680" on="1"/>
        <pt x="208" y="644" on="1"/>
        <pt x="137" y="624" on="1"/>
        <pt x="137" y="-56" on="1"/>
        <pt x="208" y="-77" on="1"/>
      </contour>
    </TTGlyph>
    <TTGlyph name="bracketright" xMin="33" yMin="-112" xMax="181" yMax="680">
      <contour>
        <pt x="38" y="-112" on="1"/>
        <pt x="33" y="-77" on="1"/>
        <pt x="104" y="-56" on="1"/>
        <pt x="104" y="624" on="1"/>
        <pt x="33" y="644" on="1"/>
        <pt x="38" y="680" on="1"/>
        <pt x="181" y="673" on="1"/>
        <pt x="181" y="-105" on="1"/>
      </contour>
    </TTGlyph>
    <TTGlyph name="breve" xMin="0" yMin="537" xMax="292" yMax="662">
      <contour>
        <pt x="146" y="537" on="1"/>
        <pt x="114" y="537" on="0"/>
        <pt x="54" y="570" on="0"/>
        <pt x="10" y="617" on="0"/>
        <pt x="0" y="637" on="1"/>
        <pt x="28" y="662" on="1"/>
        <pt x="53" y="637" on="0"/>
        <pt x="110" y="602" on="0"/>
        <pt x="146" y="602" on="1"/>
        <pt x="182" y="602" on="0"/>
        <pt x="239" y="637" on="0"/>
        <pt x="264" y="662" on="1"/>
        <pt x="292" y="637" on="1"/>
        <pt x="282" y="617" on="0"/>
        <pt x="238" y="570" on="0"/>
        <pt x="179" y="537" on="0"/>
      </contour>
    </TTGlyph>
    <TTGlyph name="brokenbar" xMin="70" yMin="-196" xMax="135" yMax="673">
      <contour>
        <pt x="70" y="308" on="1"/>
        <pt x="70" y="673" on="1"/>
        <pt x="135" y="673" on="1"/>
        <pt x="135" y="308" on="1"/>
      </contour>
      <contour>
        <pt x="70" y="-196" on="1"/>
        <pt x="70" y="184" on="1"/>
        <pt x="135" y="184" on="1"/>
        <pt x="135" y="-196" on="1"/>
      </contour>
    </TTGlyph>
    <TTGlyph name="bullet" xMin="93" yMin="177" xMax="289" yMax="373">
      <contour>
        <pt x="191" y="177" on="1"/>
        <pt x="165" y="177" on="0"/>
        <pt x="120" y="200" on="0"/>
        <pt x="93" y="244" on="0"/>
        <pt x="93" y="275" on="1"/>
        <pt x="93" y="307" on="0"/>
        <pt x="120" y="350" on="0"/>
        <pt x="165" y="373" on="0"/>
        <pt x="191" y="373" on="1"/>
        <pt x="217" y="373" on="0"/>
        <pt x="262" y="350" on="0"/>
        <pt x="289" y="307" on="0"/>
        <pt x="289" y="275" on="1"/>
        <pt x="289" y="244" on="0"/>
        <pt x="262" y="200" on="0"/>
        <pt x="217" y="177" on="0"/>
      </contour>
    </TTGlyph>
    <TTGlyph name="c" xMin="38" yMin="-9" xMax="317" yMax="457">
      <contour>
        <pt x="181" y="-9" on="1"/>
        <pt x="147" y="-9" on="0"/>
        <pt x="81" y="36" on="0"/>
        <pt x="38" y="130" on="0"/>
        <pt x="38" y="203" on="1"/>
        <pt x="38" y="253" on="0"/>
        <pt x="52" y="339" on="0"/>
        <pt x="62" y="358" on="1"/>
        <pt x="70" y="370" on="0"/>
        <pt x="110" y="403" on="0"/>
        <pt x="157" y="436" on="0"/>
        <pt x="198" y="457" on="0"/>
        <pt x="207" y="457" on="1"/>
        <pt x="230" y="457" on="0"/>
        <pt x="290" y="446" on="0"/>
        <pt x="317" y="438" on="1"/>
        <pt x="314" y="310" on="1"/>
        <pt x="253" y="310" on="1"/>
        <pt x="239" y="379" on="1"/>
        <pt x="229" y="384" on="0"/>
        <pt x="192" y="395" on="0"/>
        <pt x="177" y="395" on="1"/>
        <pt x="173" y="395" on="0"/>
        <pt x="166" y="393" on="0"/>
        <pt x="163" y="391" on="1"/>
        <pt x="154" y="384" on="0"/>
        <pt x="141" y="334" on="0"/>
        <pt x="134" y="260" on="0"/>
        <pt x="134" y="216" on="1"/>
        <pt x="134" y="160" on="0"/>
        <pt x="158" y="93" on="0"/>
        <pt x="191" y="64" on="0"/>
        <pt x="204" y="64" on="1"/>
        <pt x="317" y="64" on="1"/>
        <pt x="317" y="22" on="1"/>
        <pt x="299" y="16" on="0"/>
        <pt x="257" y="5" on="0"/>
        <pt x="217" y="-4" on="0"/>
        <pt x="187" y="-9" on="0"/>
      </contour>
    </TTGlyph>
    <TTGlyph name="c_k" xMin="38" yMin="-9" xMax="772" yMax="638">
      <contour>
        <pt x="439" y="-9" on="1"/>
        <pt x="436" y="-9" on="0"/>
        <pt x="420" y="5" on="0"/>
        <pt x="406" y="21" on="0"/>
        <pt x="406" y="24" on="1"/>
        <pt x="406" y="563" on="1"/>
        <pt x="384" y="570" on="0"/>
        <pt x="332" y="584" on="0"/>
        <pt x="325" y="582" on="1"/>
        <pt x="320" y="580" on="0"/>
        <pt x="315" y="537" on="0"/>
        <pt x="313" y="461" on="0"/>
        <pt x="314" y="359" on="0"/>
        <pt x="314" y="297" on="1"/>
        <pt x="254" y="297" on="1"/>
        <pt x="240" y="367" on="0"/>
        <pt x="231" y="457" on="0"/>
        <pt x="232" y="514" on="0"/>
        <pt x="232" y="533" on="1"/>
        <pt x="236" y="547" on="0"/>
        <pt x="269" y="582" on="0"/>
        <pt x="311" y="616" on="0"/>
        <pt x="350" y="638" on="0"/>
        <pt x="359" y="638" on="1"/>
        <pt x="364" y="638" on="0"/>
        <pt x="398" y="632" on="0"/>
        <pt x="443" y="624" on="0"/>
        <pt x="485" y="616" on="0"/>
        <pt x="496" y="613" on="1"/>
        <pt x="496" y="59" on="1"/>
        <pt x="530" y="44" on="1"/>
        <pt x="530" y="7" on="1"/>
        <pt x="530" y="7" on="0"/>
        <pt x="513" y="4" on="0"/>
        <pt x="488" y="-1" on="0"/>
        <pt x="462" y="-6" on="0"/>
        <pt x="442" y="-9" on="0"/>
      </contour>
      <contour>
        <pt x="181" y="-9" on="1"/>
        <pt x="147" y="-9" on="0"/>
        <pt x="81" y="36" on="0"/>
        <pt x="38" y="130" on="0"/>
        <pt x="38" y="203" on="1"/>
        <pt x="38" y="253" on="0"/>
        <pt x="52" y="339" on="0"/>
        <pt x="62" y="358" on="1"/>
        <pt x="70" y="370" on="0"/>
        <pt x="110" y="403" on="0"/>
        <pt x="157" y="436" on="0"/>
        <pt x="198" y="457" on="0"/>
        <pt x="207" y="457" on="1"/>
        <pt x="224" y="457" on="0"/>
        <pt x="267" y="451" on="0"/>
        <pt x="289" y="446" on="1"/>
        <pt x="243" y="378" on="1"/>
        <pt x="233" y="383" on="0"/>
        <pt x="192" y="400" on="0"/>
        <pt x="177" y="400" on="1"/>
        <pt x="173" y="400" on="0"/>
        <pt x="166" y="398" on="0"/>
        <pt x="163" y="396" on="1"/>
        <pt x="154" y="389" on="0"/>
        <pt x="141" y="336" on="0"/>
        <pt x="134" y="260" on="0"/>
        <pt x="134" y="216" on="1"/>
        <pt x="134" y="160" on="0"/>
        <pt x="160" y="93" on="0"/>
        <pt x="194" y="64" on="0"/>
        <pt x="204" y="64" on="1"/>
        <pt x="317" y="64" on="1"/>
        <pt x="317" y="22" on="1"/>
        <pt x="299" y="16" on="0"/>
        <pt x="257" y="5" on="0"/>
        <pt x="217" y="-4" on="0"/>
        <pt x="187" y="-9" on="0"/>
      </contour>
      <contour>
        <pt x="690" y="-9" on="1"/>
        <pt x="687" y="-9" on="0"/>
        <pt x="671" y="4" on="0"/>
        <pt x="654" y="19" on="0"/>
        <pt x="651" y="23" on="1"/>
        <pt x="515" y="221" on="1"/>
        <pt x="515" y="262" on="1"/>
        <pt x="631" y="394" on="1"/>
        <pt x="587" y="400" on="1"/>
        <pt x="587" y="448" on="1"/>
        <pt x="587" y="448" on="0"/>
        <pt x="612" y="449" on="0"/>
        <pt x="648" y="452" on="0"/>
        <pt x="686" y="454" on="0"/>
        <pt x="714" y="455" on="0"/>
        <pt x="717" y="455" on="1"/>
        <pt x="720" y="455" on="0"/>
        <pt x="729" y="436" on="0"/>
        <pt x="735" y="414" on="0"/>
        <pt x="735" y="408" on="1"/>
        <pt x="588" y="254" on="1"/>
        <pt x="732" y="60" on="1"/>
        <pt x="772" y="44" on="1"/>
        <pt x="772" y="7" on="1"/>
        <pt x="772" y="7" on="0"/>
        <pt x="749" y="2" on="0"/>
        <pt x="719" y="-4" on="0"/>
        <pt x="693" y="-9" on="0"/>
      </contour>
    </TTGlyph>
    <TTGlyph name="cacute" xMin="38" yMin="-9" xMax="317" yMax="680">
      <component glyphName="c" x="0" y="0" flags="0x204"/>
      <component glyphName="acutecomb" x="113" y="0" flags="0x4"/>
    </TTGlyph>
    <TTGlyph name="cacute.loclPLK" xMin="38" yMin="-9" xMax="317" yMax="689">
      <component glyphName="c" x="0" y="0" flags="0x204"/>
      <component glyphName="acute.loclPLK" x="131" y="0" flags="0x4"/>
    </TTGlyph>
    <TTGlyph name="caron" xMin="0" yMin="519" xMax="262" yMax="680">
      <contour>
        <pt x="98" y="519" on="1"/>
        <pt x="0" y="655" on="1"/>
        <pt x="28" y="680" on="1"/>
        <pt x="127" y="596" on="1"/>
        <pt x="135" y="596" on="1"/>
        <pt x="234" y="680" on="1"/>
        <pt x="262" y="655" on="1"/>
        <pt x="164" y="519" on="1"/>
      </contour>
    </TTGlyph>
    <TTGlyph name="caron.alt" xMin="0" yMin="472" xMax="82" yMax="665">
      <contour>
        <pt x="33" y="472" on="1"/>
        <pt x="1" y="488" on="1"/>
        <pt x="6" y="504" on="0"/>
        <pt x="15" y="548" on="0"/>
        <pt x="17" y="568" on="1"/>
        <pt x="10" y="573" on="0"/>
        <pt x="0" y="581" on="0"/>
        <pt x="0" y="583" on="1"/>
        <pt x="3" y="660" on="1"/>
        <pt x="12" y="661" on="0"/>
        <pt x="30" y="663" on="0"/>
        <pt x="50" y="665" on="0"/>
        <pt x="62" y="665" on="1"/>
        <pt x="65" y="665" on="0"/>
        <pt x="74" y="656" on="0"/>
        <pt x="82" y="645" on="0"/>
        <pt x="82" y="642" on="1"/>
        <pt x="82" y="620" on="1"/>
        <pt x="82" y="596" on="0"/>
        <pt x="67" y="539" on="0"/>
        <pt x="44" y="488" on="0"/>
      </contour>
    </TTGlyph>
    <TTGlyph name="ccaron" xMin="38" yMin="-9" xMax="319" yMax="680">
      <component glyphName="c" x="0" y="0" flags="0x204"/>
      <component glyphName="uni030C" x="57" y="0" flags="0x4"/>
    </TTGlyph>
    <TTGlyph name="ccedilla" xMin="38" yMin="-218" xMax="317" yMax="457">
      <component glyphName="c" x="0" y="0" flags="0x204"/>
      <component glyphName="uni0327" x="139" y="0" flags="0x4"/>
    </TTGlyph>
    <TTGlyph name="ccircumflex" xMin="38" yMin="-9" xMax="317" yMax="680">
      <component glyphName="c" x="0" y="0" flags="0x204"/>
      <component glyphName="uni0302" x="55" y="0" flags="0x4"/>
    </TTGlyph>
    <TTGlyph name="cdotaccent" xMin="38" yMin="-9" xMax="317" yMax="646">
      <component glyphName="c" x="0" y="0" flags="0x204"/>
      <component glyphName="uni0307" x="142" y="0" flags="0x4"/>
    </TTGlyph>
    <TTGlyph name="cedilla" xMin="0" yMin="-218" xMax="156" yMax="11">
      <contour>
        <pt x="21" y="-218" on="1"/>
        <pt x="0" y="-185" on="1"/>
        <pt x="34" y="-167" on="0"/>
        <pt x="75" y="-141" on="0"/>
        <pt x="75" y="-124" on="1"/>
        <pt x="75" y="-109" on="0"/>
        <pt x="33" y="-92" on="0"/>
        <pt x="12" y="-90" on="1"/>
        <pt x="6" y="-66" on="1"/>
        <pt x="33" y="11" on="1"/>
        <pt x="75" y="8" on="1"/>
        <pt x="68" y="-46" on="1"/>
        <pt x="102" y="-50" on="0"/>
        <pt x="156" y="-87" on="0"/>
        <pt x="156" y="-111" on="1"/>
        <pt x="156" y="-122" on="0"/>
        <pt x="151" y="-145" on="0"/>
        <pt x="146" y="-156" on="1"/>
        <pt x="140" y="-160" on="0"/>
        <pt x="124" y="-172" on="0"/>
        <pt x="96" y="-186" on="0"/>
        <pt x="53" y="-205" on="0"/>
      </contour>
    </TTGlyph>
    <TTGlyph name="cent" xMin="52" yMin="-52" xMax="331" yMax="577">
      <contour>
        <pt x="190" y="470" on="1"/>
        <pt x="190" y="577" on="1"/>
        <pt x="241" y="577" on="1"/>
        <pt x="241" y="470" on="1"/>
      </contour>
      <contour>
        <pt x="194" y="-52" on="1"/>
        <pt x="194" y="55" on="1"/>
        <pt x="246" y="55" on="1"/>
        <pt x="246" y="-52" on="1"/>
      </contour>
      <contour>
        <pt x="195" y="32" on="1"/>
        <pt x="161" y="32" on="0"/>
        <pt x="95" y="77" on="0"/>
        <pt x="52" y="171" on="0"/>
        <pt x="52" y="244" on="1"/>
        <pt x="52" y="294" on="0"/>
        <pt x="66" y="380" on="0"/>
        <pt x="76" y="399" on="1"/>
        <pt x="84" y="411" on="0"/>
        <pt x="124" y="444" on="0"/>
        <pt x="171" y="477" on="0"/>
        <pt x="212" y="498" on="0"/>
        <pt x="221" y="498" on="1"/>
        <pt x="244" y="498" on="0"/>
        <pt x="304" y="487" on="0"/>
        <pt x="331" y="479" on="1"/>
        <pt x="328" y="351" on="1"/>
        <pt x="267" y="351" on="1"/>
        <pt x="253" y="420" on="1"/>
        <pt x="243" y="425" on="0"/>
        <pt x="206" y="436" on="0"/>
        <pt x="191" y="436" on="1"/>
        <pt x="187" y="436" on="0"/>
        <pt x="180" y="434" on="0"/>
        <pt x="177" y="432" on="1"/>
        <pt x="168" y="425" on="0"/>
        <pt x="155" y="375" on="0"/>
        <pt x="148" y="301" on="0"/>
        <pt x="148" y="257" on="1"/>
        <pt x="148" y="201" on="0"/>
        <pt x="172" y="134" on="0"/>
        <pt x="205" y="105" on="0"/>
        <pt x="218" y="105" on="1"/>
        <pt x="331" y="105" on="1"/>
        <pt x="331" y="63" on="1"/>
        <pt x="313" y="57" on="0"/>
        <pt x="271" y="46" on="0"/>
        <pt x="231" y="37" on="0"/>
        <pt x="201" y="32" on="0"/>
      </contour>
    </TTGlyph>
    <TTGlyph name="circumflex" xMin="0" yMin="519" xMax="262" yMax="680">
      <contour>
        <pt x="28" y="519" on="1"/>
        <pt x="0" y="544" on="1"/>
        <pt x="98" y="680" on="1"/>
        <pt x="164" y="680" on="1"/>
        <pt x="262" y="544" on="1"/>
        <pt x="234" y="519" on="1"/>
        <pt x="135" y="603" on="1"/>
        <pt x="127" y="603" on="1"/>
      </contour>
    </TTGlyph>
    <TTGlyph name="colon" xMin="46" yMin="-10" xMax="149" yMax="473">
      <component glyphName="period" x="0" y="0" flags="0x4"/>
      <component glyphName="period" x="0" y="357" flags="0x4"/>
    </TTGlyph>
    <TTGlyph name="colonmonetary" xMin="43" yMin="-104" xMax="440" yMax="662">
      <contour>
        <pt x="208" y="-9" on="1"/>
        <pt x="167" y="-9" on="0"/>
        <pt x="91" y="46" on="0"/>
        <pt x="43" y="162" on="0"/>
        <pt x="43" y="253" on="1"/>
        <pt x="43" y="316" on="0"/>
        <pt x="58" y="419" on="0"/>
        <pt x="70" y="450" on="1"/>
        <pt x="81" y="467" on="0"/>
        <pt x="123" y="505" on="0"/>
        <pt x="171" y="537" on="0"/>
        <pt x="213" y="557" on="0"/>
        <pt x="223" y="557" on="1"/>
        <pt x="230" y="557" on="0"/>
        <pt x="283" y="555" on="0"/>
        <pt x="353" y="553" on="0"/>
        <pt x="419" y="550" on="0"/>
        <pt x="440" y="548" on="1"/>
        <pt x="429" y="369" on="1"/>
        <pt x="380" y="369" on="1"/>
        <pt x="369" y="480" on="1"/>
        <pt x="357" y="482" on="0"/>
        <pt x="312" y="486" on="0"/>
        <pt x="263" y="489" on="0"/>
        <pt x="224" y="490" on="0"/>
        <pt x="216" y="490" on="1"/>
        <pt x="206" y="490" on="0"/>
        <pt x="192" y="487" on="0"/>
        <pt x="187" y="484" on="1"/>
        <pt x="165" y="471" on="0"/>
        <pt x="141" y="367" on="0"/>
        <pt x="141" y="285" on="1"/>
        <pt x="141" y="192" on="0"/>
        <pt x="173" y="96" on="0"/>
        <pt x="227" y="62" on="0"/>
        <pt x="258" y="62" on="1"/>
        <pt x="365" y="62" on="1"/>
        <pt x="380" y="180" on="1"/>
        <pt x="427" y="179" on="1"/>
        <pt x="428" y="12" on="1"/>
        <pt x="418" y="9" on="0"/>
        <pt x="370" y="3" on="0"/>
        <pt x="311" y="-2" on="0"/>
        <pt x="253" y="-6" on="0"/>
        <pt x="212" y="-9" on="0"/>
      </contour>
      <contour>
        <pt x="118" y="-104" on="1"/>
        <pt x="79" y="-102" on="1"/>
        <pt x="68" y="-89" on="1"/>
        <pt x="112" y="79" on="1"/>
        <pt x="161" y="59" on="1"/>
      </contour>
      <contour>
        <pt x="215" y="-104" on="1"/>
        <pt x="176" y="-102" on="1"/>
        <pt x="165" y="-89" on="1"/>
        <pt x="199" y="43" on="1"/>
        <pt x="248" y="23" on="1"/>
      </contour>
      <contour>
        <pt x="281" y="519" on="1"/>
        <pt x="228" y="524" on="1"/>
        <pt x="264" y="662" on="1"/>
        <pt x="303" y="659" on="1"/>
        <pt x="313" y="642" on="1"/>
      </contour>
      <contour>
        <pt x="375" y="509" on="1"/>
        <pt x="322" y="514" on="1"/>
        <pt x="361" y="662" on="1"/>
        <pt x="400" y="659" on="1"/>
        <pt x="410" y="642" on="1"/>
      </contour>
    </TTGlyph>
    <TTGlyph name="comma" xMin="50" yMin="-124" xMax="168" yMax="107">
      <contour>
        <pt x="87" y="-124" on="1"/>
        <pt x="50" y="-106" on="1"/>
        <pt x="56" y="-94" on="0"/>
        <pt x="72" y="-55" on="0"/>
        <pt x="87" y="-15" on="0"/>
        <pt x="90" y="-4" on="1"/>
        <pt x="83" y="1" on="0"/>
        <pt x="70" y="10" on="0"/>
        <pt x="70" y="14" on="1"/>
        <pt x="73" y="101" on="1"/>
        <pt x="86" y="103" on="0"/>
        <pt x="110" y="105" on="0"/>
        <pt x="133" y="107" on="0"/>
        <pt x="144" y="107" on="1"/>
        <pt x="147" y="107" on="0"/>
        <pt x="159" y="96" on="0"/>
        <pt x="168" y="84" on="0"/>
        <pt x="168" y="81" on="1"/>
        <pt x="168" y="31" on="1"/>
        <pt x="168" y="18" on="0"/>
        <pt x="143" y="-37" on="0"/>
        <pt x="105" y="-99" on="0"/>
      </contour>
    </TTGlyph>
    <TTGlyph name="copyright" xMin="81" yMin="93" xMax="757" yMax="769">
      <contour>
        <pt x="419" y="93" on="1"/>
        <pt x="345" y="93" on="0"/>
        <pt x="221" y="143" on="0"/>
        <pt x="131" y="233" on="0"/>
        <pt x="81" y="357" on="0"/>
        <pt x="81" y="431" on="1"/>
        <pt x="81" y="505" on="0"/>
        <pt x="131" y="629" on="0"/>
        <pt x="221" y="719" on="0"/>
        <pt x="345" y="769" on="0"/>
        <pt x="419" y="769" on="1"/>
        <pt x="493" y="769" on="0"/>
        <pt x="617" y="719" on="0"/>
        <pt x="707" y="629" on="0"/>
        <pt x="757" y="505" on="0"/>
        <pt x="757" y="431" on="1"/>
        <pt x="757" y="357" on="0"/>
        <pt x="707" y="233" on="0"/>
        <pt x="617" y="143" on="0"/>
        <pt x="493" y="93" on="0"/>
      </contour>
      <contour>
        <pt x="402" y="257" on="1"/>
        <pt x="374" y="257" on="0"/>
        <pt x="318" y="294" on="0"/>
        <pt x="280" y="371" on="0"/>
        <pt x="280" y="431" on="1"/>
        <pt x="280" y="466" on="0"/>
        <pt x="291" y="525" on="0"/>
        <pt x="295" y="541" on="1"/>
        <pt x="304" y="553" on="0"/>
        <pt x="336" y="580" on="0"/>
        <pt x="373" y="604" on="0"/>
        <pt x="404" y="620" on="0"/>
        <pt x="412" y="620" on="1"/>
        <pt x="417" y="620" on="0"/>
        <pt x="453" y="618" on="0"/>
        <pt x="496" y="616" on="0"/>
        <pt x="512" y="614" on="1"/>
        <pt x="503" y="499" on="1"/>
        <pt x="467" y="499" on="1"/>
        <pt x="459" y="564" on="1"/>
        <pt x="442" y="567" on="0"/>
        <pt x="393" y="576" on="0"/>
        <pt x="379" y="576" on="1"/>
        <pt x="371" y="576" on="0"/>
        <pt x="357" y="540" on="0"/>
        <pt x="349" y="485" on="0"/>
        <pt x="349" y="454" on="1"/>
        <pt x="349" y="393" on="0"/>
        <pt x="370" y="328" on="0"/>
        <pt x="406" y="304" on="0"/>
        <pt x="428" y="304" on="1"/>
        <pt x="508" y="314" on="1"/>
        <pt x="513" y="281" on="1"/>
        <pt x="502" y="278" on="0"/>
        <pt x="453" y="267" on="0"/>
        <pt x="408" y="257" on="0"/>
      </contour>
      <contour>
        <pt x="419" y="149" on="1"/>
        <pt x="482" y="149" on="0"/>
        <pt x="582" y="190" on="0"/>
        <pt x="653" y="265" on="0"/>
        <pt x="691" y="368" on="0"/>
        <pt x="691" y="431" on="1"/>
        <pt x="691" y="494" on="0"/>
        <pt x="653" y="597" on="0"/>
        <pt x="582" y="672" on="0"/>
        <pt x="482" y="713" on="0"/>
        <pt x="419" y="713" on="1"/>
        <pt x="356" y="713" on="0"/>
        <pt x="256" y="672" on="0"/>
        <pt x="185" y="597" on="0"/>
        <pt x="147" y="494" on="0"/>
        <pt x="147" y="431" on="1"/>
        <pt x="147" y="368" on="0"/>
        <pt x="185" y="265" on="0"/>
        <pt x="256" y="190" on="0"/>
        <pt x="356" y="149" on="0"/>
      </contour>
    </TTGlyph>
    <TTGlyph name="currency" xMin="85" yMin="139" xMax="582" yMax="598">
      <contour>
        <pt x="122" y="140" on="1"/>
        <pt x="85" y="179" on="1"/>
        <pt x="152" y="244" on="1"/>
        <pt x="136" y="270" on="0"/>
        <pt x="118" y="331" on="0"/>
        <pt x="118" y="365" on="1"/>
        <pt x="118" y="399" on="0"/>
        <pt x="138" y="462" on="0"/>
        <pt x="155" y="488" on="1"/>
        <pt x="85" y="559" on="1"/>
        <pt x="122" y="598" on="1"/>
        <pt x="191" y="530" on="1"/>
        <pt x="220" y="556" on="0"/>
        <pt x="296" y="586" on="0"/>
        <pt x="339" y="586" on="1"/>
        <pt x="381" y="586" on="0"/>
        <pt x="452" y="559" on="0"/>
        <pt x="480" y="536" on="1"/>
        <pt x="544" y="598" on="1"/>
        <pt x="581" y="559" on="1"/>
        <pt x="516" y="495" on="1"/>
        <pt x="533" y="470" on="0"/>
        <pt x="552" y="408" on="0"/>
        <pt x="552" y="373" on="1"/>
        <pt x="552" y="338" on="0"/>
        <pt x="531" y="274" on="0"/>
        <pt x="512" y="246" on="1"/>
        <pt x="582" y="178" on="1"/>
        <pt x="545" y="139" on="1"/>
        <pt x="476" y="206" on="1"/>
        <pt x="448" y="181" on="0"/>
        <pt x="373" y="152" on="0"/>
        <pt x="331" y="152" on="1"/>
        <pt x="288" y="152" on="0"/>
        <pt x="215" y="179" on="0"/>
        <pt x="187" y="203" on="1"/>
      </contour>
      <contour>
        <pt x="335" y="214" on="1"/>
        <pt x="383" y="214" on="0"/>
        <pt x="447" y="252" on="0"/>
        <pt x="480" y="321" on="0"/>
        <pt x="480" y="369" on="1"/>
        <pt x="480" y="413" on="0"/>
        <pt x="448" y="483" on="0"/>
        <pt x="384" y="524" on="0"/>
        <pt x="336" y="524" on="1"/>
        <pt x="288" y="524" on="0"/>
        <pt x="223" y="486" on="0"/>
        <pt x="190" y="417" on="0"/>
        <pt x="190" y="369" on="1"/>
        <pt x="190" y="326" on="0"/>
        <pt x="222" y="255" on="0"/>
        <pt x="287" y="214" on="0"/>
      </contour>
    </TTGlyph>
    <TTGlyph name="d" xMin="38" yMin="-9" xMax="416" yMax="646">
      <contour>
        <pt x="194" y="-9" on="1"/>
        <pt x="156" y="-9" on="0"/>
        <pt x="84" y="36" on="0"/>
        <pt x="38" y="130" on="0"/>
        <pt x="38" y="203" on="1"/>
        <pt x="38" y="256" on="0"/>
        <pt x="52" y="337" on="0"/>
        <pt x="62" y="358" on="1"/>
        <pt x="70" y="369" on="0"/>
        <pt x="110" y="402" on="0"/>
        <pt x="157" y="435" on="0"/>
        <pt x="198" y="457" on="0"/>
        <pt x="207" y="457" on="1"/>
        <pt x="217" y="457" on="0"/>
        <pt x="266" y="451" on="0"/>
        <pt x="296" y="446" on="1"/>
        <pt x="296" y="579" on="1"/>
        <pt x="261" y="593" on="1"/>
        <pt x="261" y="630" on="1"/>
        <pt x="261" y="630" on="0"/>
        <pt x="278" y="633" on="0"/>
        <pt x="303" y="638" on="0"/>
        <pt x="330" y="643" on="0"/>
        <pt x="350" y="646" on="0"/>
        <pt x="352" y="646" on="1"/>
        <pt x="355" y="646" on="0"/>
        <pt x="372" y="632" on="0"/>
        <pt x="387" y="617" on="0"/>
        <pt x="387" y="613" on="1"/>
        <pt x="382" y="427" on="1"/>
        <pt x="382" y="58" on="1"/>
        <pt x="416" y="44" on="1"/>
        <pt x="416" y="7" on="1"/>
        <pt x="416" y="7" on="0"/>
        <pt x="400" y="4" on="0"/>
        <pt x="376" y="-1" on="0"/>
        <pt x="350" y="-6" on="0"/>
        <pt x="331" y="-9" on="0"/>
        <pt x="328" y="-9" on="1"/>
        <pt x="326" y="-9" on="0"/>
        <pt x="309" y="5" on="0"/>
        <pt x="294" y="21" on="0"/>
        <pt x="294" y="24" on="1"/>
        <pt x="294" y="63" on="1"/>
        <pt x="277" y="50" on="0"/>
        <pt x="232" y="16" on="0"/>
        <pt x="198" y="-9" on="0"/>
      </contour>
      <contour>
        <pt x="200" y="65" on="1"/>
        <pt x="204" y="65" on="0"/>
        <pt x="232" y="77" on="0"/>
        <pt x="266" y="93" on="0"/>
        <pt x="291" y="105" on="0"/>
        <pt x="291" y="105" on="1"/>
        <pt x="291" y="380" on="1"/>
        <pt x="274" y="385" on="0"/>
        <pt x="225" y="395" on="0"/>
        <pt x="182" y="401" on="0"/>
        <pt x="172" y="399" on="1"/>
        <pt x="161" y="397" on="0"/>
        <pt x="143" y="365" on="0"/>
        <pt x="134" y="287" on="0"/>
        <pt x="134" y="216" on="1"/>
        <pt x="134" y="160" on="0"/>
        <pt x="159" y="94" on="0"/>
        <pt x="190" y="65" on="0"/>
      </contour>
    </TTGlyph>
    <TTGlyph name="dagger" xMin="93" yMin="-190" xMax="438" yMax="603">
      <contour>
        <pt x="265" y="-190" on="1"/>
        <pt x="223" y="-144" on="1"/>
        <pt x="230" y="545" on="1"/>
        <pt x="158" y="565" on="1"/>
        <pt x="158" y="603" on="1"/>
        <pt x="372" y="603" on="1"/>
        <pt x="372" y="565" on="1"/>
        <pt x="300" y="545" on="1"/>
        <pt x="307" y="-144" on="1"/>
      </contour>
      <contour>
        <pt x="101" y="291" on="1"/>
        <pt x="93" y="448" on="1"/>
        <pt x="438" y="448" on="1"/>
        <pt x="430" y="291" on="1"/>
        <pt x="388" y="291" on="1"/>
        <pt x="379" y="392" on="1"/>
        <pt x="265" y="399" on="1"/>
        <pt x="152" y="392" on="1"/>
        <pt x="143" y="291" on="1"/>
      </contour>
    </TTGlyph>
    <TTGlyph name="daggerdbl" xMin="93" yMin="-190" xMax="438" yMax="603">
      <contour>
        <pt x="159" y="-190" on="1"/>
        <pt x="159" y="-152" on="1"/>
        <pt x="231" y="-132" on="1"/>
        <pt x="230" y="545" on="1"/>
        <pt x="158" y="565" on="1"/>
        <pt x="158" y="603" on="1"/>
        <pt x="372" y="603" on="1"/>
        <pt x="372" y="565" on="1"/>
        <pt x="300" y="545" on="1"/>
        <pt x="301" y="-132" on="1"/>
        <pt x="373" y="-152" on="1"/>
        <pt x="373" y="-190" on="1"/>
      </contour>
      <contour>
        <pt x="93" y="-35" on="1"/>
        <pt x="101" y="122" on="1"/>
        <pt x="143" y="122" on="1"/>
        <pt x="152" y="21" on="1"/>
        <pt x="266" y="14" on="1"/>
        <pt x="379" y="21" on="1"/>
        <pt x="388" y="122" on="1"/>
        <pt x="430" y="122" on="1"/>
        <pt x="438" y="-35" on="1"/>
      </contour>
      <contour>
        <pt x="101" y="291" on="1"/>
        <pt x="93" y="448" on="1"/>
        <pt x="438" y="448" on="1"/>
        <pt x="430" y="291" on="1"/>
        <pt x="388" y="291" on="1"/>
        <pt x="379" y="392" on="1"/>
        <pt x="265" y="399" on="1"/>
        <pt x="152" y="392" on="1"/>
        <pt x="143" y="291" on="1"/>
      </contour>
    </TTGlyph>
    <TTGlyph name="dcaron" xMin="38" yMin="-9" xMax="540" yMax="665">
      <component glyphName="d" x="0" y="0" flags="0x4"/>
      <component glyphName="uni030C.alt" x="458" y="0" flags="0x4"/>
    </TTGlyph>
    <TTGlyph name="dcroat" xMin="38" yMin="-9" xMax="424" yMax="646">
      <component glyphName="d" x="0" y="0" flags="0x204"/>
      <component glyphName="uni0335" x="178" y="210" flags="0x4"/>
    </TTGlyph>
    <TTGlyph name="degree" xMin="40" yMin="384" xMax="269" yMax="607">
      <contour>
        <pt x="152" y="384" on="1"/>
        <pt x="120" y="384" on="0"/>
        <pt x="69" y="411" on="0"/>
        <pt x="40" y="461" on="0"/>
        <pt x="40" y="493" on="1"/>
        <pt x="40" y="525" on="0"/>
        <pt x="71" y="577" on="0"/>
        <pt x="124" y="607" on="0"/>
        <pt x="156" y="607" on="1"/>
        <pt x="188" y="607" on="0"/>
        <pt x="239" y="579" on="0"/>
        <pt x="269" y="529" on="0"/>
        <pt x="269" y="497" on="1"/>
        <pt x="269" y="465" on="0"/>
        <pt x="237" y="413" on="0"/>
        <pt x="184" y="384" on="0"/>
      </contour>
      <contour>
        <pt x="154" y="439" on="1"/>
        <pt x="176" y="439" on="0"/>
        <pt x="208" y="470" on="0"/>
        <pt x="208" y="495" on="1"/>
        <pt x="208" y="521" on="0"/>
        <pt x="176" y="552" on="0"/>
        <pt x="154" y="552" on="1"/>
        <pt x="132" y="552" on="0"/>
        <pt x="101" y="521" on="0"/>
        <pt x="101" y="495" on="1"/>
        <pt x="101" y="470" on="0"/>
        <pt x="132" y="439" on="0"/>
      </contour>
    </TTGlyph>
    <TTGlyph name="dieresis" xMin="0" yMin="537" xMax="247" yMax="646">
      <contour>
        <pt x="162" y="537" on="1"/>
        <pt x="155" y="641" on="1"/>
        <pt x="232" y="646" on="1"/>
        <pt x="247" y="624" on="1"/>
        <pt x="242" y="537" on="1"/>
      </contour>
      <contour>
        <pt x="7" y="537" on="1"/>
        <pt x="0" y="641" on="1"/>
        <pt x="77" y="646" on="1"/>
        <pt x="92" y="624" on="1"/>
        <pt x="87" y="537" on="1"/>
      </contour>
    </TTGlyph>
    <TTGlyph name="divide" xMin="100" yMin="-10" xMax="519" yMax="498">
      <component glyphName="period" x="211" y="382" flags="0x4"/>
      <component glyphName="minus" x="0" y="-5" flags="0x204"/>
      <component glyphName="period" x="211" y="0" flags="0x4"/>
    </TTGlyph>
    <TTGlyph name="dollar" xMin="65" yMin="-103" xMax="436" yMax="659">
      <contour>
        <pt x="274" y="-10" on="1"/>
        <pt x="256" y="-10" on="0"/>
        <pt x="203" y="-9" on="0"/>
        <pt x="143" y="-6" on="0"/>
        <pt x="87" y="-3" on="0"/>
        <pt x="65" y="-1" on="1"/>
        <pt x="70" y="152" on="1"/>
        <pt x="125" y="152" on="1"/>
        <pt x="137" y="70" on="1"/>
        <pt x="163" y="65" on="0"/>
        <pt x="217" y="57" on="0"/>
        <pt x="269" y="53" on="0"/>
        <pt x="291" y="53" on="1"/>
        <pt x="305" y="53" on="0"/>
        <pt x="326" y="87" on="0"/>
        <pt x="337" y="128" on="0"/>
        <pt x="337" y="138" on="1"/>
        <pt x="337" y="157" on="0"/>
        <pt x="305" y="188" on="0"/>
        <pt x="242" y="221" on="0"/>
        <pt x="194" y="243" on="1"/>
        <pt x="146" y="265" on="0"/>
        <pt x="90" y="308" on="0"/>
        <pt x="66" y="355" on="0"/>
        <pt x="66" y="381" on="1"/>
        <pt x="66" y="394" on="0"/>
        <pt x="68" y="418" on="0"/>
        <pt x="71" y="431" on="1"/>
        <pt x="78" y="447" on="0"/>
        <pt x="113" y="490" on="0"/>
        <pt x="157" y="530" on="0"/>
        <pt x="203" y="556" on="0"/>
        <pt x="221" y="556" on="1"/>
        <pt x="246" y="556" on="0"/>
        <pt x="305" y="554" on="0"/>
        <pt x="371" y="550" on="0"/>
        <pt x="407" y="546" on="1"/>
        <pt x="396" y="395" on="1"/>
        <pt x="342" y="395" on="1"/>
        <pt x="333" y="481" on="1"/>
        <pt x="310" y="485" on="0"/>
        <pt x="257" y="493" on="0"/>
        <pt x="210" y="499" on="0"/>
        <pt x="195" y="499" on="1"/>
        <pt x="187" y="499" on="0"/>
        <pt x="171" y="489" on="0"/>
        <pt x="159" y="470" on="0"/>
        <pt x="152" y="445" on="0"/>
        <pt x="152" y="430" on="1"/>
        <pt x="152" y="403" on="0"/>
        <pt x="172" y="368" on="0"/>
        <pt x="214" y="342" on="0"/>
        <pt x="245" y="326" on="1"/>
        <pt x="272" y="313" on="0"/>
        <pt x="337" y="282" on="0"/>
        <pt x="397" y="243" on="0"/>
        <pt x="436" y="194" on="0"/>
        <pt x="436" y="163" on="1"/>
        <pt x="436" y="150" on="0"/>
        <pt x="434" y="120" on="0"/>
        <pt x="431" y="107" on="1"/>
        <pt x="421" y="88" on="0"/>
        <pt x="383" y="46" on="0"/>
        <pt x="337" y="12" on="0"/>
        <pt x="291" y="-10" on="0"/>
      </contour>
      <contour>
        <pt x="216" y="-103" on="1"/>
        <pt x="216" y="21" on="1"/>
        <pt x="274" y="20" on="1"/>
        <pt x="274" y="-103" on="1"/>
      </contour>
      <contour>
        <pt x="221" y="526" on="1"/>
        <pt x="221" y="659" on="1"/>
        <pt x="279" y="659" on="1"/>
        <pt x="279" y="526" on="1"/>
      </contour>
    </TTGlyph>
    <TTGlyph name="dong" xMin="38" yMin="-132" xMax="426" yMax="646">
      <contour>
        <pt x="48" y="-132" on="1"/>
        <pt x="53" y="-83" on="1"/>
        <pt x="426" y="-83" on="1"/>
        <pt x="421" y="-132" on="1"/>
      </contour>
      <contour>
        <pt x="194" y="-9" on="1"/>
        <pt x="156" y="-9" on="0"/>
        <pt x="84" y="36" on="0"/>
        <pt x="38" y="130" on="0"/>
        <pt x="38" y="203" on="1"/>
        <pt x="38" y="256" on="0"/>
        <pt x="52" y="337" on="0"/>
        <pt x="62" y="358" on="1"/>
        <pt x="70" y="369" on="0"/>
        <pt x="110" y="402" on="0"/>
        <pt x="157" y="435" on="0"/>
        <pt x="198" y="457" on="0"/>
        <pt x="207" y="457" on="1"/>
        <pt x="217" y="457" on="0"/>
        <pt x="266" y="451" on="0"/>
        <pt x="296" y="446" on="1"/>
        <pt x="296" y="579" on="1"/>
        <pt x="261" y="593" on="1"/>
        <pt x="261" y="630" on="1"/>
        <pt x="261" y="630" on="0"/>
        <pt x="278" y="633" on="0"/>
        <pt x="303" y="638" on="0"/>
        <pt x="330" y="643" on="0"/>
        <pt x="350" y="646" on="0"/>
        <pt x="352" y="646" on="1"/>
        <pt x="355" y="646" on="0"/>
        <pt x="372" y="632" on="0"/>
        <pt x="387" y="617" on="0"/>
        <pt x="387" y="613" on="1"/>
        <pt x="382" y="427" on="1"/>
        <pt x="382" y="58" on="1"/>
        <pt x="416" y="44" on="1"/>
        <pt x="416" y="7" on="1"/>
        <pt x="416" y="7" on="0"/>
        <pt x="400" y="4" on="0"/>
        <pt x="376" y="-1" on="0"/>
        <pt x="350" y="-6" on="0"/>
        <pt x="331" y="-9" on="0"/>
        <pt x="328" y="-9" on="1"/>
        <pt x="326" y="-9" on="0"/>
        <pt x="309" y="5" on="0"/>
        <pt x="294" y="21" on="0"/>
        <pt x="294" y="24" on="1"/>
        <pt x="294" y="63" on="1"/>
        <pt x="277" y="50" on="0"/>
        <pt x="232" y="16" on="0"/>
        <pt x="198" y="-9" on="0"/>
      </contour>
      <contour>
        <pt x="200" y="65" on="1"/>
        <pt x="204" y="65" on="0"/>
        <pt x="232" y="77" on="0"/>
        <pt x="266" y="93" on="0"/>
        <pt x="291" y="105" on="0"/>
        <pt x="291" y="105" on="1"/>
        <pt x="291" y="380" on="1"/>
        <pt x="274" y="385" on="0"/>
        <pt x="225" y="395" on="0"/>
        <pt x="182" y="401" on="0"/>
        <pt x="172" y="399" on="1"/>
        <pt x="161" y="397" on="0"/>
        <pt x="143" y="365" on="0"/>
        <pt x="134" y="287" on="0"/>
        <pt x="134" y="216" on="1"/>
        <pt x="134" y="160" on="0"/>
        <pt x="159" y="94" on="0"/>
        <pt x="190" y="65" on="0"/>
      </contour>
      <contour>
        <pt x="178" y="491" on="1"/>
        <pt x="178" y="540" on="1"/>
        <pt x="424" y="540" on="1"/>
        <pt x="423" y="491" on="1"/>
      </contour>
    </TTGlyph>
    <TTGlyph name="dotaccent" xMin="0" yMin="537" xMax="92" yMax="646">
      <contour>
        <pt x="7" y="537" on="1"/>
        <pt x="0" y="641" on="1"/>
        <pt x="77" y="646" on="1"/>
        <pt x="92" y="624" on="1"/>
        <pt x="87" y="537" on="1"/>
      </contour>
    </TTGlyph>
    <TTGlyph name="dotbelowcomb" xMin="0" yMin="-169" xMax="92" yMax="-60">
      <contour>
        <pt x="7" y="-169" on="1"/>
        <pt x="0" y="-65" on="1"/>
        <pt x="77" y="-60" on="1"/>
        <pt x="92" y="-82" on="1"/>
        <pt x="87" y="-169" on="1"/>
      </contour>
    </TTGlyph>
    <TTGlyph name="dotbelowcomb.case" xMin="0" yMin="-169" xMax="92" yMax="-60">
      <contour>
        <pt x="7" y="-169" on="1"/>
        <pt x="0" y="-65" on="1"/>
        <pt x="77" y="-60" on="1"/>
        <pt x="92" y="-82" on="1"/>
        <pt x="87" y="-169" on="1"/>
      </contour>
    </TTGlyph>
    <TTGlyph name="dotlessi" xMin="34" yMin="-9" xMax="194" yMax="456">
      <contour>
        <pt x="109" y="-9" on="1"/>
        <pt x="106" y="-9" on="0"/>
        <pt x="86" y="7" on="0"/>
        <pt x="69" y="25" on="0"/>
        <pt x="69" y="28" on="1"/>
        <pt x="69" y="393" on="1"/>
        <pt x="34" y="404" on="1"/>
        <pt x="34" y="441" on="1"/>
        <pt x="34" y="441" on="0"/>
        <pt x="50" y="444" on="0"/>
        <pt x="73" y="449" on="0"/>
        <pt x="98" y="453" on="0"/>
        <pt x="116" y="456" on="0"/>
        <pt x="119" y="456" on="1"/>
        <pt x="123" y="456" on="0"/>
        <pt x="142" y="441" on="0"/>
        <pt x="159" y="424" on="0"/>
        <pt x="159" y="419" on="1"/>
        <pt x="159" y="54" on="1"/>
        <pt x="194" y="44" on="1"/>
        <pt x="194" y="7" on="1"/>
        <pt x="194" y="7" on="0"/>
        <pt x="178" y="4" on="0"/>
        <pt x="155" y="-1" on="0"/>
        <pt x="130" y="-6" on="0"/>
        <pt x="112" y="-9" on="0"/>
      </contour>
    </TTGlyph>
    <TTGlyph name="e" xMin="38" yMin="-9" xMax="370" yMax="461">
      <contour>
        <pt x="204" y="-9" on="1"/>
        <pt x="163" y="-9" on="0"/>
        <pt x="87" y="36" on="0"/>
        <pt x="38" y="130" on="0"/>
        <pt x="38" y="203" on="1"/>
        <pt x="38" y="254" on="0"/>
        <pt x="52" y="339" on="0"/>
        <pt x="62" y="358" on="1"/>
        <pt x="70" y="370" on="0"/>
        <pt x="111" y="405" on="0"/>
        <pt x="160" y="438" on="0"/>
        <pt x="202" y="461" on="0"/>
        <pt x="212" y="461" on="1"/>
        <pt x="261" y="461" on="0"/>
        <pt x="332" y="429" on="0"/>
        <pt x="370" y="334" on="0"/>
        <pt x="370" y="241" on="1"/>
        <pt x="134" y="221" on="1"/>
        <pt x="134" y="172" on="0"/>
        <pt x="155" y="109" on="0"/>
        <pt x="185" y="75" on="0"/>
        <pt x="217" y="62" on="0"/>
        <pt x="227" y="62" on="1"/>
        <pt x="231" y="62" on="0"/>
        <pt x="261" y="63" on="0"/>
        <pt x="301" y="65" on="0"/>
        <pt x="341" y="67" on="0"/>
        <pt x="356" y="67" on="1"/>
        <pt x="356" y="26" on="1"/>
        <pt x="338" y="20" on="0"/>
        <pt x="292" y="8" on="0"/>
        <pt x="246" y="-2" on="0"/>
        <pt x="211" y="-9" on="0"/>
      </contour>
      <contour>
        <pt x="136" y="262" on="1"/>
        <pt x="273" y="280" on="1"/>
        <pt x="273" y="337" on="0"/>
        <pt x="242" y="401" on="0"/>
        <pt x="204" y="401" on="1"/>
        <pt x="196" y="401" on="0"/>
        <pt x="177" y="399" on="0"/>
        <pt x="166" y="394" on="1"/>
        <pt x="157" y="390" on="0"/>
        <pt x="144" y="349" on="0"/>
        <pt x="136" y="292" on="0"/>
      </contour>
    </TTGlyph>
    <TTGlyph name="eacute" xMin="38" yMin="-9" xMax="370" yMax="680">
      <component glyphName="e" x="0" y="0" flags="0x204"/>
      <component glyphName="acutecomb" x="131" y="0" flags="0x4"/>
    </TTGlyph>
    <TTGlyph name="ebreve" xMin="38" yMin="-9" xMax="370" yMax="662">
      <component glyphName="e" x="0" y="0" flags="0x204"/>
      <component glyphName="uni0306" x="59" y="0" flags="0x4"/>
    </TTGlyph>
    <TTGlyph name="ecaron" xMin="38" yMin="-9" xMax="370" yMax="680">
      <component glyphName="e" x="0" y="0" flags="0x204"/>
      <component glyphName="uni030C" x="75" y="0" flags="0x4"/>
    </TTGlyph>
    <TTGlyph name="ecircumflex" xMin="38" yMin="-9" xMax="370" yMax="680">
      <component glyphName="e" x="0" y="0" flags="0x204"/>
      <component glyphName="uni0302" x="73" y="0" flags="0x4"/>
    </TTGlyph>
    <TTGlyph name="edieresis" xMin="38" yMin="-9" xMax="370" yMax="646">
      <component glyphName="e" x="0" y="0" flags="0x204"/>
      <component glyphName="uni0308" x="81" y="0" flags="0x4"/>
    </TTGlyph>
    <TTGlyph name="edotaccent" xMin="38" yMin="-9" xMax="370" yMax="646">
      <component glyphName="e" x="0" y="0" flags="0x204"/>
      <component glyphName="uni0307" x="160" y="0" flags="0x4"/>
    </TTGlyph>
    <TTGlyph name="egrave" xMin="38" yMin="-9" xMax="370" yMax="680">
      <component glyphName="e" x="0" y="0" flags="0x204"/>
      <component glyphName="gravecomb" x="103" y="0" flags="0x4"/>
    </TTGlyph>
    <TTGlyph name="eight" xMin="48" yMin="-10" xMax="389" yMax="553">
      <contour>
        <pt x="230" y="-10" on="1"/>
        <pt x="177" y="-10" on="0"/>
        <pt x="106" y="22" on="0"/>
        <pt x="65" y="71" on="0"/>
        <pt x="48" y="124" on="0"/>
        <pt x="48" y="145" on="1"/>
        <pt x="48" y="184" on="0"/>
        <pt x="87" y="249" on="0"/>
        <pt x="129" y="281" on="1"/>
        <pt x="129" y="286" on="1"/>
        <pt x="100" y="306" on="0"/>
        <pt x="61" y="362" on="0"/>
        <pt x="61" y="402" on="1"/>
        <pt x="61" y="430" on="0"/>
        <pt x="67" y="454" on="0"/>
        <pt x="67" y="454" on="1"/>
        <pt x="73" y="463" on="0"/>
        <pt x="107" y="496" on="0"/>
        <pt x="153" y="529" on="0"/>
        <pt x="200" y="553" on="0"/>
        <pt x="217" y="553" on="1"/>
        <pt x="267" y="553" on="0"/>
        <pt x="338" y="520" on="0"/>
        <pt x="376" y="463" on="0"/>
        <pt x="376" y="427" on="1"/>
        <pt x="376" y="376" on="0"/>
        <pt x="333" y="302" on="0"/>
        <pt x="307" y="279" on="1"/>
        <pt x="307" y="274" on="1"/>
        <pt x="330" y="260" on="0"/>
        <pt x="367" y="223" on="0"/>
        <pt x="389" y="176" on="0"/>
        <pt x="389" y="145" on="1"/>
        <pt x="389" y="129" on="0"/>
        <pt x="384" y="100" on="0"/>
        <pt x="380" y="89" on="1"/>
        <pt x="374" y="80" on="0"/>
        <pt x="340" y="47" on="0"/>
        <pt x="294" y="14" on="0"/>
        <pt x="247" y="-10" on="0"/>
      </contour>
      <contour>
        <pt x="262" y="49" on="1"/>
        <pt x="266" y="49" on="0"/>
        <pt x="278" y="60" on="0"/>
        <pt x="289" y="81" on="0"/>
        <pt x="297" y="110" on="0"/>
        <pt x="297" y="128" on="1"/>
        <pt x="297" y="160" on="0"/>
        <pt x="259" y="205" on="0"/>
        <pt x="200" y="240" on="0"/>
        <pt x="168" y="258" on="1"/>
        <pt x="160" y="244" on="0"/>
        <pt x="136" y="188" on="0"/>
        <pt x="136" y="160" on="1"/>
        <pt x="136" y="135" on="0"/>
        <pt x="154" y="84" on="0"/>
        <pt x="208" y="49" on="0"/>
      </contour>
      <contour>
        <pt x="266" y="302" on="1"/>
        <pt x="273" y="319" on="0"/>
        <pt x="288" y="374" on="0"/>
        <pt x="288" y="402" on="1"/>
        <pt x="288" y="426" on="0"/>
        <pt x="275" y="468" on="0"/>
        <pt x="232" y="494" on="0"/>
        <pt x="186" y="494" on="1"/>
        <pt x="178" y="494" on="0"/>
        <pt x="166" y="488" on="0"/>
        <pt x="157" y="473" on="0"/>
        <pt x="153" y="451" on="0"/>
        <pt x="153" y="434" on="1"/>
        <pt x="153" y="397" on="0"/>
        <pt x="186" y="350" on="0"/>
        <pt x="238" y="318" on="0"/>
      </contour>
    </TTGlyph>
    <TTGlyph name="eight.dnom" xMin="42" yMin="-10" xMax="269" yMax="352">
      <component glyphName="uni2078" x="0" y="-365" flags="0x204"/>
    </TTGlyph>
    <TTGlyph name="eight.lf" xMin="32" yMin="-9" xMax="379" yMax="574">
      <contour>
        <pt x="217" y="-9" on="1"/>
        <pt x="146" y="-9" on="0"/>
        <pt x="65" y="42" on="0"/>
        <pt x="32" y="116" on="0"/>
        <pt x="32" y="151" on="1"/>
        <pt x="32" y="194" on="0"/>
        <pt x="74" y="264" on="0"/>
        <pt x="116" y="292" on="1"/>
        <pt x="116" y="297" on="1"/>
        <pt x="87" y="317" on="0"/>
        <pt x="45" y="378" on="0"/>
        <pt x="45" y="418" on="1"/>
        <pt x="45" y="437" on="0"/>
        <pt x="51" y="465" on="0"/>
        <pt x="55" y="475" on="1"/>
        <pt x="61" y="485" on="0"/>
        <pt x="95" y="518" on="0"/>
        <pt x="141" y="551" on="0"/>
        <pt x="187" y="574" on="0"/>
        <pt x="204" y="574" on="1"/>
        <pt x="254" y="574" on="0"/>
        <pt x="327" y="538" on="0"/>
        <pt x="366" y="479" on="0"/>
        <pt x="366" y="443" on="1"/>
        <pt x="366" y="388" on="0"/>
        <pt x="323" y="313" on="0"/>
        <pt x="294" y="290" on="1"/>
        <pt x="294" y="285" on="1"/>
        <pt x="317" y="271" on="0"/>
        <pt x="355" y="232" on="0"/>
        <pt x="379" y="182" on="0"/>
        <pt x="379" y="151" on="1"/>
        <pt x="379" y="135" on="0"/>
        <pt x="374" y="101" on="0"/>
        <pt x="370" y="90" on="1"/>
        <pt x="364" y="81" on="0"/>
        <pt x="329" y="48" on="0"/>
        <pt x="282" y="15" on="0"/>
        <pt x="234" y="-9" on="0"/>
      </contour>
      <contour>
        <pt x="249" y="50" on="1"/>
        <pt x="251" y="50" on="0"/>
        <pt x="263" y="64" on="0"/>
        <pt x="277" y="88" on="0"/>
        <pt x="287" y="118" on="0"/>
        <pt x="287" y="134" on="1"/>
        <pt x="287" y="166" on="0"/>
        <pt x="247" y="213" on="0"/>
        <pt x="187" y="251" on="0"/>
        <pt x="155" y="269" on="1"/>
        <pt x="144" y="255" on="0"/>
        <pt x="120" y="198" on="0"/>
        <pt x="120" y="166" on="1"/>
        <pt x="120" y="135" on="0"/>
        <pt x="139" y="82" on="0"/>
        <pt x="195" y="50" on="0"/>
      </contour>
      <contour>
        <pt x="253" y="313" on="1"/>
        <pt x="264" y="330" on="0"/>
        <pt x="278" y="387" on="0"/>
        <pt x="278" y="418" on="1"/>
        <pt x="278" y="442" on="0"/>
        <pt x="263" y="487" on="0"/>
        <pt x="222" y="515" on="0"/>
        <pt x="183" y="515" on="1"/>
        <pt x="176" y="515" on="0"/>
        <pt x="160" y="510" on="0"/>
        <pt x="146" y="496" on="0"/>
        <pt x="137" y="468" on="0"/>
        <pt x="137" y="445" on="1"/>
        <pt x="137" y="410" on="0"/>
        <pt x="171" y="363" on="0"/>
        <pt x="225" y="329" on="0"/>
      </contour>
    </TTGlyph>
    <TTGlyph name="eight.numr" xMin="42" yMin="255" xMax="269" yMax="617">
      <component glyphName="uni2078" x="0" y="-100" flags="0x204"/>
    </TTGlyph>
    <TTGlyph name="eight.osf" xMin="48" yMin="-10" xMax="389" yMax="553">
      <component glyphName="eight" x="0" y="0" flags="0x204"/>
    </TTGlyph>
    <TTGlyph name="eight.tf" xMin="77" yMin="-9" xMax="424" yMax="574">
      <component glyphName="eight.lf" x="45" y="0" flags="0x4"/>
    </TTGlyph>
    <TTGlyph name="eight.tosf" xMin="80" yMin="-10" xMax="421" yMax="553">
      <component glyphName="eight" x="32" y="0" flags="0x4"/>
    </TTGlyph>
    <TTGlyph name="ellipsis" xMin="46" yMin="-10" xMax="505" yMax="116">
      <component glyphName="period" x="0" y="0" flags="0x4"/>
      <component glyphName="period" x="178" y="0" flags="0x4"/>
      <component glyphName="period" x="356" y="0" flags="0x4"/>
    </TTGlyph>
    <TTGlyph name="emacron" xMin="38" yMin="-9" xMax="370" yMax="613">
      <component glyphName="e" x="0" y="0" flags="0x204"/>
      <component glyphName="uni0304" x="63" y="0" flags="0x4"/>
    </TTGlyph>
    <TTGlyph name="emdash" xMin="40" yMin="219" xMax="830" yMax="279">
      <contour>
        <pt x="40" y="219" on="1"/>
        <pt x="40" y="279" on="1"/>
        <pt x="830" y="279" on="1"/>
        <pt x="830" y="219" on="1"/>
      </contour>
    </TTGlyph>
    <TTGlyph name="emdash.case" xMin="40" yMin="289" xMax="830" yMax="349">
      <component glyphName="emdash" x="0" y="70" flags="0x204"/>
    </TTGlyph>
    <TTGlyph name="emptyset" xMin="70" yMin="140" xMax="566" yMax="598">
      <contour>
        <pt x="107" y="140" on="1"/>
        <pt x="70" y="179" on="1"/>
        <pt x="529" y="598" on="1"/>
        <pt x="566" y="559" on="1"/>
      </contour>
      <contour>
        <pt x="316" y="152" on="1"/>
        <pt x="252" y="152" on="0"/>
        <pt x="156" y="209" on="0"/>
        <pt x="103" y="305" on="0"/>
        <pt x="103" y="365" on="1"/>
        <pt x="103" y="426" on="0"/>
        <pt x="161" y="526" on="0"/>
        <pt x="262" y="586" on="0"/>
        <pt x="324" y="586" on="1"/>
        <pt x="387" y="586" on="0"/>
        <pt x="483" y="529" on="0"/>
        <pt x="537" y="433" on="0"/>
        <pt x="537" y="373" on="1"/>
        <pt x="537" y="313" on="0"/>
        <pt x="478" y="213" on="0"/>
        <pt x="378" y="152" on="0"/>
      </contour>
      <contour>
        <pt x="320" y="214" on="1"/>
        <pt x="368" y="214" on="0"/>
        <pt x="432" y="252" on="0"/>
        <pt x="465" y="321" on="0"/>
        <pt x="465" y="369" on="1"/>
        <pt x="465" y="413" on="0"/>
        <pt x="433" y="483" on="0"/>
        <pt x="369" y="524" on="0"/>
        <pt x="321" y="524" on="1"/>
        <pt x="273" y="524" on="0"/>
        <pt x="208" y="486" on="0"/>
        <pt x="175" y="417" on="0"/>
        <pt x="175" y="369" on="1"/>
        <pt x="175" y="326" on="0"/>
        <pt x="207" y="255" on="0"/>
        <pt x="272" y="214" on="0"/>
      </contour>
    </TTGlyph>
    <TTGlyph name="endash" xMin="40" yMin="219" xMax="435" yMax="279">
      <contour>
        <pt x="40" y="219" on="1"/>
        <pt x="40" y="279" on="1"/>
        <pt x="435" y="279" on="1"/>
        <pt x="435" y="219" on="1"/>
      </contour>
    </TTGlyph>
    <TTGlyph name="endash.case" xMin="40" yMin="289" xMax="435" yMax="349">
      <component glyphName="endash" x="0" y="70" flags="0x204"/>
    </TTGlyph>
    <TTGlyph name="eng" xMin="34" yMin="-181" xMax="404" yMax="456">
      <contour>
        <pt x="282" y="-181" on="1"/>
        <pt x="275" y="-181" on="0"/>
        <pt x="243" y="-171" on="0"/>
        <pt x="205" y="-158" on="0"/>
        <pt x="187" y="-152" on="1"/>
        <pt x="187" y="-113" on="1"/>
        <pt x="197" y="-112" on="0"/>
        <pt x="242" y="-110" on="0"/>
        <pt x="284" y="-105" on="0"/>
        <pt x="288" y="-102" on="1"/>
        <pt x="300" y="-95" on="0"/>
        <pt x="310" y="-54" on="0"/>
        <pt x="313" y="-4" on="0"/>
        <pt x="313" y="13" on="1"/>
        <pt x="313" y="288" on="1"/>
        <pt x="313" y="336" on="0"/>
        <pt x="290" y="375" on="0"/>
        <pt x="262" y="382" on="0"/>
        <pt x="255" y="382" on="1"/>
        <pt x="251" y="382" on="0"/>
        <pt x="231" y="375" on="0"/>
        <pt x="204" y="364" on="0"/>
        <pt x="174" y="350" on="0"/>
        <pt x="160" y="344" on="1"/>
        <pt x="160" y="59" on="1"/>
        <pt x="194" y="44" on="1"/>
        <pt x="194" y="7" on="1"/>
        <pt x="194" y="7" on="0"/>
        <pt x="177" y="4" on="0"/>
        <pt x="152" y="-1" on="0"/>
        <pt x="126" y="-6" on="0"/>
        <pt x="106" y="-9" on="0"/>
        <pt x="103" y="-9" on="1"/>
        <pt x="100" y="-9" on="0"/>
        <pt x="84" y="5" on="0"/>
        <pt x="69" y="21" on="0"/>
        <pt x="69" y="24" on="1"/>
        <pt x="69" y="389" on="1"/>
        <pt x="34" y="404" on="1"/>
        <pt x="34" y="441" on="1"/>
        <pt x="34" y="441" on="0"/>
        <pt x="51" y="444" on="0"/>
        <pt x="76" y="449" on="0"/>
        <pt x="102" y="453" on="0"/>
        <pt x="122" y="456" on="0"/>
        <pt x="125" y="456" on="1"/>
        <pt x="128" y="456" on="0"/>
        <pt x="144" y="443" on="0"/>
        <pt x="157" y="427" on="0"/>
        <pt x="157" y="424" on="1"/>
        <pt x="157" y="386" on="1"/>
        <pt x="170" y="396" on="0"/>
        <pt x="203" y="420" on="0"/>
        <pt x="235" y="442" on="0"/>
        <pt x="258" y="456" on="0"/>
        <pt x="260" y="456" on="1"/>
        <pt x="305" y="456" on="0"/>
        <pt x="369" y="426" on="0"/>
        <pt x="404" y="353" on="0"/>
        <pt x="404" y="288" on="1"/>
        <pt x="404" y="-22" on="1"/>
        <pt x="404" y="-45" on="0"/>
        <pt x="375" y="-100" on="0"/>
        <pt x="334" y="-149" on="0"/>
        <pt x="294" y="-181" on="0"/>
      </contour>
    </TTGlyph>
    <TTGlyph name="eogonek" xMin="38" yMin="-203" xMax="370" yMax="461">
      <component glyphName="e" x="0" y="0" flags="0x204"/>
      <component glyphName="uni0328" x="178" y="26" flags="0x4"/>
    </TTGlyph>
    <TTGlyph name="equal" xMin="100" yMin="118" xMax="499" yMax="358">
      <contour>
        <pt x="100" y="298" on="1"/>
        <pt x="100" y="358" on="1"/>
        <pt x="499" y="358" on="1"/>
        <pt x="499" y="298" on="1"/>
      </contour>
      <contour>
        <pt x="100" y="118" on="1"/>
        <pt x="100" y="178" on="1"/>
        <pt x="499" y="178" on="1"/>
        <pt x="499" y="118" on="1"/>
      </contour>
    </TTGlyph>
    <TTGlyph name="estimated" xMin="70" yMin="-12" xMax="512" yMax="457">
      <contour>
        <pt x="294" y="-12" on="1"/>
        <pt x="231" y="-12" on="0"/>
        <pt x="130" y="41" on="0"/>
        <pt x="70" y="146" on="0"/>
        <pt x="70" y="222" on="1"/>
        <pt x="70" y="300" on="0"/>
        <pt x="130" y="404" on="0"/>
        <pt x="231" y="457" on="0"/>
        <pt x="294" y="457" on="1"/>
        <pt x="350" y="457" on="0"/>
        <pt x="448" y="409" on="0"/>
        <pt x="510" y="313" on="0"/>
        <pt x="512" y="240" on="1"/>
        <pt x="512" y="210" on="1"/>
        <pt x="177" y="210" on="1"/>
        <pt x="177" y="100" on="1"/>
        <pt x="177" y="67" on="0"/>
        <pt x="215" y="27" on="0"/>
        <pt x="271" y="9" on="0"/>
        <pt x="299" y="9" on="1"/>
        <pt x="351" y="9" on="0"/>
        <pt x="429" y="55" on="0"/>
        <pt x="468" y="100" on="1"/>
        <pt x="482" y="91" on="1"/>
        <pt x="441" y="35" on="0"/>
        <pt x="344" y="-12" on="0"/>
      </contour>
      <contour>
        <pt x="177" y="237" on="1"/>
        <pt x="208" y="237" on="0"/>
        <pt x="292" y="239" on="0"/>
        <pt x="372" y="240" on="0"/>
        <pt x="395" y="240" on="1"/>
        <pt x="405" y="240" on="1"/>
        <pt x="405" y="345" on="1"/>
        <pt x="405" y="379" on="0"/>
        <pt x="371" y="419" on="0"/>
        <pt x="320" y="436" on="0"/>
        <pt x="294" y="436" on="1"/>
        <pt x="266" y="436" on="0"/>
        <pt x="212" y="419" on="0"/>
        <pt x="177" y="379" on="0"/>
        <pt x="177" y="345" on="1"/>
      </contour>
    </TTGlyph>
    <TTGlyph name="eth" xMin="36" yMin="-9" xMax="409" yMax="611">
      <contour>
        <pt x="191" y="-9" on="1"/>
        <pt x="184" y="-9" on="0"/>
        <pt x="156" y="4" on="0"/>
        <pt x="121" y="26" on="0"/>
        <pt x="86" y="53" on="0"/>
        <pt x="58" y="79" on="0"/>
        <pt x="50" y="89" on="1"/>
        <pt x="43" y="111" on="0"/>
        <pt x="36" y="182" on="0"/>
        <pt x="36" y="214" on="1"/>
        <pt x="36" y="249" on="0"/>
        <pt x="67" y="326" on="0"/>
        <pt x="138" y="380" on="0"/>
        <pt x="197" y="380" on="1"/>
        <pt x="201" y="380" on="0"/>
        <pt x="224" y="370" on="0"/>
        <pt x="254" y="355" on="0"/>
        <pt x="284" y="339" on="0"/>
        <pt x="295" y="333" on="1"/>
        <pt x="294" y="288" on="1"/>
        <pt x="282" y="295" on="0"/>
        <pt x="248" y="310" on="0"/>
        <pt x="216" y="322" on="0"/>
        <pt x="206" y="322" on="1"/>
        <pt x="187" y="322" on="0"/>
        <pt x="153" y="292" on="0"/>
        <pt x="132" y="234" on="0"/>
        <pt x="132" y="191" on="1"/>
        <pt x="132" y="166" on="0"/>
        <pt x="135" y="113" on="0"/>
        <pt x="142" y="68" on="0"/>
        <pt x="154" y="40" on="0"/>
        <pt x="163" y="40" on="1"/>
        <pt x="190" y="40" on="0"/>
        <pt x="237" y="51" on="0"/>
        <pt x="271" y="84" on="0"/>
        <pt x="290" y="150" on="0"/>
        <pt x="290" y="204" on="1"/>
        <pt x="290" y="301" on="0"/>
        <pt x="279" y="435" on="0"/>
        <pt x="247" y="518" on="0"/>
        <pt x="187" y="557" on="0"/>
        <pt x="138" y="560" on="1"/>
        <pt x="120" y="611" on="1"/>
        <pt x="212" y="611" on="0"/>
        <pt x="330" y="538" on="0"/>
        <pt x="386" y="400" on="0"/>
        <pt x="386" y="303" on="1"/>
        <pt x="386" y="199" on="0"/>
        <pt x="352" y="74" on="0"/>
        <pt x="296" y="11" on="0"/>
        <pt x="227" y="-9" on="0"/>
      </contour>
      <contour>
        <pt x="176" y="443" on="1"/>
        <pt x="129" y="476" on="1"/>
        <pt x="134" y="490" on="1"/>
        <pt x="362" y="601" on="1"/>
        <pt x="409" y="568" on="1"/>
        <pt x="404" y="554" on="1"/>
      </contour>
    </TTGlyph>
    <TTGlyph name="exclam" xMin="82" yMin="-1" xMax="179" yMax="624">
      <contour>
        <pt x="114" y="184" on="1"/>
        <pt x="112" y="184" on="0"/>
        <pt x="100" y="195" on="0"/>
        <pt x="100" y="197" on="1"/>
        <pt x="82" y="610" on="1"/>
        <pt x="95" y="613" on="0"/>
        <pt x="129" y="619" on="0"/>
        <pt x="156" y="624" on="0"/>
        <pt x="158" y="624" on="1"/>
        <pt x="160" y="624" on="0"/>
        <pt x="170" y="616" on="0"/>
        <pt x="179" y="607" on="0"/>
        <pt x="179" y="605" on="1"/>
        <pt x="161" y="189" on="1"/>
        <pt x="150" y="188" on="0"/>
        <pt x="121" y="184" on="0"/>
      </contour>
      <contour>
        <pt x="99" y="-1" on="1"/>
        <pt x="97" y="-1" on="0"/>
        <pt x="89" y="8" on="0"/>
        <pt x="82" y="19" on="0"/>
        <pt x="82" y="21" on="1"/>
        <pt x="87" y="112" on="1"/>
        <pt x="171" y="112" on="1"/>
        <pt x="178" y="5" on="1"/>
        <pt x="158" y="3" on="0"/>
        <pt x="119" y="-1" on="0"/>
      </contour>
    </TTGlyph>
    <TTGlyph name="exclamdown" xMin="81" yMin="-177" xMax="178" yMax="448">
      <contour>
        <pt x="102" y="-177" on="1"/>
        <pt x="101" y="-177" on="0"/>
        <pt x="90" y="-169" on="0"/>
        <pt x="81" y="-160" on="0"/>
        <pt x="81" y="-158" on="1"/>
        <pt x="99" y="258" on="1"/>
        <pt x="110" y="260" on="0"/>
        <pt x="139" y="263" on="0"/>
        <pt x="146" y="263" on="1"/>
        <pt x="148" y="263" on="0"/>
        <pt x="160" y="252" on="0"/>
        <pt x="160" y="250" on="1"/>
        <pt x="178" y="-163" on="1"/>
        <pt x="165" y="-165" on="0"/>
        <pt x="131" y="-172" on="0"/>
        <pt x="105" y="-177" on="0"/>
      </contour>
      <contour>
        <pt x="89" y="335" on="1"/>
        <pt x="82" y="442" on="1"/>
        <pt x="102" y="444" on="0"/>
        <pt x="141" y="448" on="0"/>
        <pt x="161" y="448" on="1"/>
        <pt x="163" y="448" on="0"/>
        <pt x="171" y="439" on="0"/>
        <pt x="178" y="428" on="0"/>
        <pt x="178" y="426" on="1"/>
        <pt x="173" y="335" on="1"/>
      </contour>
    </TTGlyph>
    <TTGlyph name="exclamdown.case" xMin="81" yMin="-15" xMax="178" yMax="610">
      <component glyphName="exclamdown" x="0" y="162" flags="0x204"/>
    </TTGlyph>
    <TTGlyph name="f" xMin="22" yMin="-9" xMax="304" yMax="646">
      <contour>
        <pt x="103" y="-9" on="1"/>
        <pt x="100" y="-9" on="0"/>
        <pt x="84" y="5" on="0"/>
        <pt x="69" y="21" on="0"/>
        <pt x="69" y="24" on="1"/>
        <pt x="69" y="395" on="1"/>
        <pt x="22" y="395" on="1"/>
        <pt x="22" y="434" on="1"/>
        <pt x="69" y="453" on="1"/>
        <pt x="69" y="491" on="1"/>
        <pt x="69" y="503" on="0"/>
        <pt x="89" y="542" on="0"/>
        <pt x="119" y="584" on="0"/>
        <pt x="154" y="622" on="0"/>
        <pt x="185" y="646" on="0"/>
        <pt x="194" y="646" on="1"/>
        <pt x="199" y="646" on="0"/>
        <pt x="231" y="644" on="0"/>
        <pt x="269" y="642" on="0"/>
        <pt x="282" y="640" on="1"/>
        <pt x="287" y="637" on="0"/>
        <pt x="297" y="625" on="0"/>
        <pt x="304" y="614" on="0"/>
        <pt x="304" y="610" on="1"/>
        <pt x="304" y="609" on="0"/>
        <pt x="299" y="596" on="0"/>
        <pt x="292" y="579" on="0"/>
        <pt x="286" y="564" on="0"/>
        <pt x="284" y="560" on="1"/>
        <pt x="276" y="562" on="0"/>
        <pt x="246" y="570" on="0"/>
        <pt x="213" y="577" on="0"/>
        <pt x="186" y="582" on="0"/>
        <pt x="180" y="582" on="1"/>
        <pt x="176" y="582" on="0"/>
        <pt x="167" y="566" on="0"/>
        <pt x="161" y="540" on="0"/>
        <pt x="161" y="526" on="1"/>
        <pt x="160" y="448" on="1"/>
        <pt x="255" y="448" on="1"/>
        <pt x="255" y="394" on="1"/>
        <pt x="160" y="394" on="1"/>
        <pt x="160" y="63" on="1"/>
        <pt x="211" y="48" on="1"/>
        <pt x="211" y="7" on="1"/>
        <pt x="211" y="7" on="0"/>
        <pt x="191" y="4" on="0"/>
        <pt x="161" y="-1" on="0"/>
        <pt x="129" y="-6" on="0"/>
        <pt x="106" y="-9" on="0"/>
      </contour>
    </TTGlyph>
    <TTGlyph name="f_f" xMin="22" yMin="-9" xMax="558" yMax="646">
      <contour>
        <pt x="103" y="-9" on="1"/>
        <pt x="100" y="-9" on="0"/>
        <pt x="84" y="5" on="0"/>
        <pt x="69" y="21" on="0"/>
        <pt x="69" y="24" on="1"/>
        <pt x="69" y="403" on="1"/>
        <pt x="22" y="403" on="1"/>
        <pt x="22" y="442" on="1"/>
        <pt x="69" y="461" on="1"/>
        <pt x="69" y="491" on="1"/>
        <pt x="69" y="503" on="0"/>
        <pt x="89" y="542" on="0"/>
        <pt x="119" y="584" on="0"/>
        <pt x="154" y="622" on="0"/>
        <pt x="185" y="646" on="0"/>
        <pt x="194" y="646" on="1"/>
        <pt x="199" y="646" on="0"/>
        <pt x="231" y="644" on="0"/>
        <pt x="269" y="642" on="0"/>
        <pt x="282" y="640" on="1"/>
        <pt x="287" y="637" on="0"/>
        <pt x="297" y="625" on="0"/>
        <pt x="304" y="614" on="0"/>
        <pt x="304" y="610" on="1"/>
        <pt x="304" y="609" on="0"/>
        <pt x="299" y="596" on="0"/>
        <pt x="292" y="579" on="0"/>
        <pt x="286" y="564" on="0"/>
        <pt x="284" y="560" on="1"/>
        <pt x="276" y="562" on="0"/>
        <pt x="246" y="570" on="0"/>
        <pt x="213" y="577" on="0"/>
        <pt x="186" y="582" on="0"/>
        <pt x="180" y="582" on="1"/>
        <pt x="176" y="582" on="0"/>
        <pt x="167" y="566" on="0"/>
        <pt x="161" y="540" on="0"/>
        <pt x="161" y="526" on="1"/>
        <pt x="160" y="456" on="1"/>
        <pt x="323" y="456" on="1"/>
        <pt x="323" y="491" on="1"/>
        <pt x="323" y="506" on="0"/>
        <pt x="353" y="558" on="0"/>
        <pt x="395" y="610" on="0"/>
        <pt x="436" y="646" on="0"/>
        <pt x="448" y="646" on="1"/>
        <pt x="453" y="646" on="0"/>
        <pt x="485" y="644" on="0"/>
        <pt x="523" y="642" on="0"/>
        <pt x="536" y="640" on="1"/>
        <pt x="541" y="637" on="0"/>
        <pt x="551" y="625" on="0"/>
        <pt x="558" y="614" on="0"/>
        <pt x="558" y="610" on="1"/>
        <pt x="558" y="609" on="0"/>
        <pt x="553" y="596" on="0"/>
        <pt x="546" y="579" on="0"/>
        <pt x="540" y="564" on="0"/>
        <pt x="538" y="560" on="1"/>
        <pt x="530" y="562" on="0"/>
        <pt x="500" y="570" on="0"/>
        <pt x="467" y="577" on="0"/>
        <pt x="440" y="582" on="0"/>
        <pt x="434" y="582" on="1"/>
        <pt x="430" y="582" on="0"/>
        <pt x="421" y="566" on="0"/>
        <pt x="415" y="540" on="0"/>
        <pt x="415" y="526" on="1"/>
        <pt x="414" y="456" on="1"/>
        <pt x="509" y="456" on="1"/>
        <pt x="509" y="402" on="1"/>
        <pt x="414" y="402" on="1"/>
        <pt x="414" y="63" on="1"/>
        <pt x="465" y="48" on="1"/>
        <pt x="465" y="7" on="1"/>
        <pt x="465" y="7" on="0"/>
        <pt x="445" y="4" on="0"/>
        <pt x="415" y="-1" on="0"/>
        <pt x="383" y="-6" on="0"/>
        <pt x="360" y="-9" on="0"/>
        <pt x="357" y="-9" on="1"/>
        <pt x="354" y="-9" on="0"/>
        <pt x="338" y="5" on="0"/>
        <pt x="323" y="21" on="0"/>
        <pt x="323" y="24" on="1"/>
        <pt x="323" y="402" on="1"/>
        <pt x="160" y="402" on="1"/>
        <pt x="160" y="63" on="1"/>
        <pt x="211" y="48" on="1"/>
        <pt x="211" y="7" on="1"/>
        <pt x="211" y="7" on="0"/>
        <pt x="191" y="4" on="0"/>
        <pt x="161" y="-1" on="0"/>
        <pt x="129" y="-6" on="0"/>
        <pt x="106" y="-9" on="0"/>
      </contour>
    </TTGlyph>
    <TTGlyph name="f_f_i" xMin="22" yMin="-9" xMax="687" yMax="646">
      <contour>
        <pt x="103" y="-9" on="1"/>
        <pt x="100" y="-9" on="0"/>
        <pt x="84" y="5" on="0"/>
        <pt x="69" y="21" on="0"/>
        <pt x="69" y="24" on="1"/>
        <pt x="69" y="403" on="1"/>
        <pt x="22" y="403" on="1"/>
        <pt x="22" y="442" on="1"/>
        <pt x="69" y="461" on="1"/>
        <pt x="69" y="491" on="1"/>
        <pt x="69" y="503" on="0"/>
        <pt x="89" y="542" on="0"/>
        <pt x="119" y="584" on="0"/>
        <pt x="154" y="622" on="0"/>
        <pt x="185" y="646" on="0"/>
        <pt x="194" y="646" on="1"/>
        <pt x="199" y="646" on="0"/>
        <pt x="231" y="644" on="0"/>
        <pt x="269" y="642" on="0"/>
        <pt x="282" y="640" on="1"/>
        <pt x="287" y="637" on="0"/>
        <pt x="297" y="625" on="0"/>
        <pt x="304" y="614" on="0"/>
        <pt x="304" y="610" on="1"/>
        <pt x="304" y="609" on="0"/>
        <pt x="299" y="596" on="0"/>
        <pt x="292" y="579" on="0"/>
        <pt x="286" y="564" on="0"/>
        <pt x="284" y="560" on="1"/>
        <pt x="276" y="562" on="0"/>
        <pt x="246" y="570" on="0"/>
        <pt x="213" y="577" on="0"/>
        <pt x="186" y="582" on="0"/>
        <pt x="180" y="582" on="1"/>
        <pt x="176" y="582" on="0"/>
        <pt x="167" y="566" on="0"/>
        <pt x="161" y="540" on="0"/>
        <pt x="161" y="526" on="1"/>
        <pt x="160" y="456" on="1"/>
        <pt x="323" y="456" on="1"/>
        <pt x="323" y="491" on="1"/>
        <pt x="323" y="503" on="0"/>
        <pt x="343" y="542" on="0"/>
        <pt x="373" y="584" on="0"/>
        <pt x="408" y="622" on="0"/>
        <pt x="439" y="646" on="0"/>
        <pt x="448" y="646" on="1"/>
        <pt x="452" y="646" on="0"/>
        <pt x="480" y="645" on="0"/>
        <pt x="516" y="643" on="0"/>
        <pt x="550" y="641" on="0"/>
        <pt x="560" y="640" on="1"/>
        <pt x="565" y="637" on="0"/>
        <pt x="575" y="625" on="0"/>
        <pt x="582" y="614" on="0"/>
        <pt x="582" y="610" on="1"/>
        <pt x="582" y="608" on="0"/>
        <pt x="574" y="587" on="0"/>
        <pt x="564" y="565" on="0"/>
        <pt x="562" y="560" on="1"/>
        <pt x="554" y="562" on="0"/>
        <pt x="517" y="570" on="0"/>
        <pt x="475" y="577" on="0"/>
        <pt x="440" y="582" on="0"/>
        <pt x="434" y="582" on="1"/>
        <pt x="430" y="582" on="0"/>
        <pt x="421" y="566" on="0"/>
        <pt x="415" y="540" on="0"/>
        <pt x="415" y="526" on="1"/>
        <pt x="415" y="456" on="1"/>
        <pt x="612" y="456" on="1"/>
        <pt x="616" y="456" on="0"/>
        <pt x="635" y="441" on="0"/>
        <pt x="652" y="424" on="0"/>
        <pt x="652" y="419" on="1"/>
        <pt x="652" y="54" on="1"/>
        <pt x="687" y="44" on="1"/>
        <pt x="687" y="7" on="1"/>
        <pt x="687" y="7" on="0"/>
        <pt x="671" y="4" on="0"/>
        <pt x="648" y="-1" on="0"/>
        <pt x="623" y="-6" on="0"/>
        <pt x="605" y="-9" on="0"/>
        <pt x="602" y="-9" on="1"/>
        <pt x="599" y="-9" on="0"/>
        <pt x="579" y="7" on="0"/>
        <pt x="562" y="25" on="0"/>
        <pt x="562" y="28" on="1"/>
        <pt x="562" y="402" on="1"/>
        <pt x="414" y="402" on="1"/>
        <pt x="414" y="63" on="1"/>
        <pt x="465" y="48" on="1"/>
        <pt x="465" y="7" on="1"/>
        <pt x="465" y="7" on="0"/>
        <pt x="445" y="4" on="0"/>
        <pt x="415" y="-1" on="0"/>
        <pt x="383" y="-6" on="0"/>
        <pt x="360" y="-9" on="0"/>
        <pt x="357" y="-9" on="1"/>
        <pt x="354" y="-9" on="0"/>
        <pt x="338" y="5" on="0"/>
        <pt x="323" y="21" on="0"/>
        <pt x="323" y="24" on="1"/>
        <pt x="323" y="402" on="1"/>
        <pt x="160" y="402" on="1"/>
        <pt x="160" y="63" on="1"/>
        <pt x="211" y="48" on="1"/>
        <pt x="211" y="7" on="1"/>
        <pt x="211" y="7" on="0"/>
        <pt x="191" y="4" on="0"/>
        <pt x="161" y="-1" on="0"/>
        <pt x="129" y="-6" on="0"/>
        <pt x="106" y="-9" on="0"/>
      </contour>
    </TTGlyph>
    <TTGlyph name="f_f_l" xMin="22" yMin="-9" xMax="707" yMax="646">
      <contour>
        <pt x="103" y="-9" on="1"/>
        <pt x="100" y="-9" on="0"/>
        <pt x="84" y="5" on="0"/>
        <pt x="69" y="21" on="0"/>
        <pt x="69" y="24" on="1"/>
        <pt x="69" y="403" on="1"/>
        <pt x="22" y="403" on="1"/>
        <pt x="22" y="442" on="1"/>
        <pt x="69" y="461" on="1"/>
        <pt x="69" y="491" on="1"/>
        <pt x="69" y="503" on="0"/>
        <pt x="89" y="542" on="0"/>
        <pt x="119" y="584" on="0"/>
        <pt x="154" y="622" on="0"/>
        <pt x="185" y="646" on="0"/>
        <pt x="194" y="646" on="1"/>
        <pt x="199" y="646" on="0"/>
        <pt x="231" y="644" on="0"/>
        <pt x="269" y="642" on="0"/>
        <pt x="282" y="640" on="1"/>
        <pt x="287" y="637" on="0"/>
        <pt x="297" y="625" on="0"/>
        <pt x="304" y="614" on="0"/>
        <pt x="304" y="610" on="1"/>
        <pt x="304" y="609" on="0"/>
        <pt x="299" y="596" on="0"/>
        <pt x="292" y="579" on="0"/>
        <pt x="286" y="564" on="0"/>
        <pt x="284" y="560" on="1"/>
        <pt x="276" y="562" on="0"/>
        <pt x="246" y="570" on="0"/>
        <pt x="213" y="577" on="0"/>
        <pt x="186" y="582" on="0"/>
        <pt x="180" y="582" on="1"/>
        <pt x="176" y="582" on="0"/>
        <pt x="167" y="566" on="0"/>
        <pt x="161" y="540" on="0"/>
        <pt x="161" y="526" on="1"/>
        <pt x="160" y="456" on="1"/>
        <pt x="323" y="456" on="1"/>
        <pt x="323" y="491" on="1"/>
        <pt x="323" y="503" on="0"/>
        <pt x="343" y="542" on="0"/>
        <pt x="373" y="584" on="0"/>
        <pt x="408" y="622" on="0"/>
        <pt x="439" y="646" on="0"/>
        <pt x="448" y="646" on="1"/>
        <pt x="462" y="646" on="0"/>
        <pt x="518" y="640" on="0"/>
        <pt x="585" y="630" on="0"/>
        <pt x="650" y="620" on="0"/>
        <pt x="673" y="615" on="1"/>
        <pt x="673" y="59" on="1"/>
        <pt x="707" y="44" on="1"/>
        <pt x="707" y="7" on="1"/>
        <pt x="707" y="7" on="0"/>
        <pt x="690" y="4" on="0"/>
        <pt x="665" y="-1" on="0"/>
        <pt x="639" y="-6" on="0"/>
        <pt x="619" y="-9" on="0"/>
        <pt x="616" y="-9" on="1"/>
        <pt x="613" y="-9" on="0"/>
        <pt x="597" y="5" on="0"/>
        <pt x="583" y="21" on="0"/>
        <pt x="583" y="24" on="1"/>
        <pt x="583" y="562" on="1"/>
        <pt x="570" y="565" on="0"/>
        <pt x="525" y="572" on="0"/>
        <pt x="477" y="578" on="0"/>
        <pt x="440" y="582" on="0"/>
        <pt x="434" y="582" on="1"/>
        <pt x="430" y="582" on="0"/>
        <pt x="421" y="566" on="0"/>
        <pt x="415" y="540" on="0"/>
        <pt x="415" y="526" on="1"/>
        <pt x="414" y="456" on="1"/>
        <pt x="497" y="456" on="1"/>
        <pt x="497" y="402" on="1"/>
        <pt x="414" y="402" on="1"/>
        <pt x="414" y="63" on="1"/>
        <pt x="465" y="48" on="1"/>
        <pt x="465" y="7" on="1"/>
        <pt x="465" y="7" on="0"/>
        <pt x="445" y="4" on="0"/>
        <pt x="415" y="-1" on="0"/>
        <pt x="383" y="-6" on="0"/>
        <pt x="360" y="-9" on="0"/>
        <pt x="357" y="-9" on="1"/>
        <pt x="354" y="-9" on="0"/>
        <pt x="338" y="5" on="0"/>
        <pt x="323" y="21" on="0"/>
        <pt x="323" y="24" on="1"/>
        <pt x="323" y="402" on="1"/>
        <pt x="160" y="402" on="1"/>
        <pt x="160" y="63" on="1"/>
        <pt x="211" y="48" on="1"/>
        <pt x="211" y="7" on="1"/>
        <pt x="211" y="7" on="0"/>
        <pt x="191" y="4" on="0"/>
        <pt x="161" y="-1" on="0"/>
        <pt x="129" y="-6" on="0"/>
        <pt x="106" y="-9" on="0"/>
      </contour>
    </TTGlyph>
    <TTGlyph name="f_h" xMin="22" yMin="-9" xMax="684" yMax="646">
      <contour>
        <pt x="103" y="-9" on="1"/>
        <pt x="100" y="-9" on="0"/>
        <pt x="84" y="5" on="0"/>
        <pt x="69" y="21" on="0"/>
        <pt x="69" y="24" on="1"/>
        <pt x="69" y="403" on="1"/>
        <pt x="22" y="403" on="1"/>
        <pt x="22" y="442" on="1"/>
        <pt x="69" y="461" on="1"/>
        <pt x="69" y="491" on="1"/>
        <pt x="69" y="503" on="0"/>
        <pt x="89" y="542" on="0"/>
        <pt x="119" y="584" on="0"/>
        <pt x="154" y="622" on="0"/>
        <pt x="185" y="646" on="0"/>
        <pt x="194" y="646" on="1"/>
        <pt x="203" y="646" on="0"/>
        <pt x="252" y="640" on="0"/>
        <pt x="315" y="631" on="0"/>
        <pt x="380" y="619" on="0"/>
        <pt x="405" y="613" on="1"/>
        <pt x="321" y="554" on="1"/>
        <pt x="312" y="557" on="0"/>
        <pt x="271" y="566" on="0"/>
        <pt x="224" y="575" on="0"/>
        <pt x="186" y="582" on="0"/>
        <pt x="180" y="582" on="1"/>
        <pt x="176" y="582" on="0"/>
        <pt x="167" y="566" on="0"/>
        <pt x="161" y="540" on="0"/>
        <pt x="161" y="526" on="1"/>
        <pt x="160" y="456" on="1"/>
        <pt x="255" y="456" on="1"/>
        <pt x="255" y="402" on="1"/>
        <pt x="160" y="402" on="1"/>
        <pt x="160" y="63" on="1"/>
        <pt x="211" y="48" on="1"/>
        <pt x="211" y="7" on="1"/>
        <pt x="211" y="7" on="0"/>
        <pt x="191" y="4" on="0"/>
        <pt x="161" y="-1" on="0"/>
        <pt x="129" y="-6" on="0"/>
        <pt x="106" y="-9" on="0"/>
      </contour>
      <contour>
        <pt x="347" y="-9" on="1"/>
        <pt x="344" y="-9" on="0"/>
        <pt x="328" y="5" on="0"/>
        <pt x="314" y="21" on="0"/>
        <pt x="314" y="24" on="1"/>
        <pt x="314" y="579" on="1"/>
        <pt x="405" y="613" on="1"/>
        <pt x="400" y="387" on="1"/>
        <pt x="405" y="386" on="1"/>
        <pt x="418" y="396" on="0"/>
        <pt x="451" y="420" on="0"/>
        <pt x="482" y="442" on="0"/>
        <pt x="504" y="456" on="0"/>
        <pt x="505" y="456" on="1"/>
        <pt x="551" y="456" on="0"/>
        <pt x="615" y="426" on="0"/>
        <pt x="649" y="353" on="0"/>
        <pt x="649" y="288" on="1"/>
        <pt x="649" y="59" on="1"/>
        <pt x="684" y="44" on="1"/>
        <pt x="684" y="7" on="1"/>
        <pt x="684" y="7" on="0"/>
        <pt x="667" y="4" on="0"/>
        <pt x="642" y="-1" on="0"/>
        <pt x="615" y="-6" on="0"/>
        <pt x="595" y="-9" on="0"/>
        <pt x="592" y="-9" on="1"/>
        <pt x="589" y="-9" on="0"/>
        <pt x="572" y="5" on="0"/>
        <pt x="558" y="21" on="0"/>
        <pt x="558" y="24" on="1"/>
        <pt x="558" y="288" on="1"/>
        <pt x="558" y="336" on="0"/>
        <pt x="535" y="375" on="0"/>
        <pt x="508" y="382" on="0"/>
        <pt x="500" y="382" on="1"/>
        <pt x="496" y="382" on="0"/>
        <pt x="456" y="366" on="0"/>
        <pt x="414" y="348" on="0"/>
        <pt x="405" y="344" on="1"/>
        <pt x="405" y="59" on="1"/>
        <pt x="439" y="44" on="1"/>
        <pt x="439" y="7" on="1"/>
        <pt x="439" y="7" on="0"/>
        <pt x="422" y="4" on="0"/>
        <pt x="397" y="-1" on="0"/>
        <pt x="370" y="-6" on="0"/>
        <pt x="350" y="-9" on="0"/>
      </contour>
    </TTGlyph>
    <TTGlyph name="f_iacute" xMin="22" yMin="-9" xMax="469" yMax="680">
      <contour>
        <pt x="103" y="-9" on="1"/>
        <pt x="100" y="-9" on="0"/>
        <pt x="84" y="5" on="0"/>
        <pt x="69" y="21" on="0"/>
        <pt x="69" y="24" on="1"/>
        <pt x="69" y="395" on="1"/>
        <pt x="22" y="395" on="1"/>
        <pt x="22" y="434" on="1"/>
        <pt x="69" y="453" on="1"/>
        <pt x="69" y="491" on="1"/>
        <pt x="69" y="503" on="0"/>
        <pt x="89" y="542" on="0"/>
        <pt x="119" y="584" on="0"/>
        <pt x="154" y="622" on="0"/>
        <pt x="185" y="646" on="0"/>
        <pt x="194" y="646" on="1"/>
        <pt x="202" y="646" on="0"/>
        <pt x="236" y="645" on="0"/>
        <pt x="256" y="643" on="1"/>
        <pt x="261" y="640" on="0"/>
        <pt x="271" y="628" on="0"/>
        <pt x="278" y="617" on="0"/>
        <pt x="278" y="613" on="1"/>
        <pt x="278" y="611" on="0"/>
        <pt x="270" y="590" on="0"/>
        <pt x="260" y="568" on="0"/>
        <pt x="258" y="563" on="1"/>
        <pt x="242" y="568" on="0"/>
        <pt x="192" y="582" on="0"/>
        <pt x="180" y="582" on="1"/>
        <pt x="176" y="582" on="0"/>
        <pt x="167" y="566" on="0"/>
        <pt x="161" y="540" on="0"/>
        <pt x="161" y="526" on="1"/>
        <pt x="161" y="448" on="1"/>
        <pt x="358" y="448" on="1"/>
        <pt x="362" y="448" on="0"/>
        <pt x="381" y="433" on="0"/>
        <pt x="398" y="416" on="0"/>
        <pt x="398" y="411" on="1"/>
        <pt x="398" y="54" on="1"/>
        <pt x="433" y="44" on="1"/>
        <pt x="433" y="7" on="1"/>
        <pt x="433" y="7" on="0"/>
        <pt x="417" y="4" on="0"/>
        <pt x="394" y="-1" on="0"/>
        <pt x="369" y="-6" on="0"/>
        <pt x="351" y="-9" on="0"/>
        <pt x="348" y="-9" on="1"/>
        <pt x="345" y="-9" on="0"/>
        <pt x="325" y="7" on="0"/>
        <pt x="308" y="25" on="0"/>
        <pt x="308" y="28" on="1"/>
        <pt x="308" y="394" on="1"/>
        <pt x="160" y="394" on="1"/>
        <pt x="160" y="63" on="1"/>
        <pt x="211" y="48" on="1"/>
        <pt x="211" y="7" on="1"/>
        <pt x="211" y="7" on="0"/>
        <pt x="191" y="4" on="0"/>
        <pt x="161" y="-1" on="0"/>
        <pt x="129" y="-6" on="0"/>
        <pt x="106" y="-9" on="0"/>
      </contour>
      <contour>
        <pt x="307" y="519" on="1"/>
        <pt x="284" y="549" on="1"/>
        <pt x="420" y="680" on="1"/>
        <pt x="469" y="630" on="1"/>
        <pt x="469" y="605" on="1"/>
      </contour>
    </TTGlyph>
    <TTGlyph name="fi" xMin="22" yMin="-9" xMax="433" yMax="646">
      <contour>
        <pt x="103" y="-9" on="1"/>
        <pt x="100" y="-9" on="0"/>
        <pt x="84" y="5" on="0"/>
        <pt x="69" y="21" on="0"/>
        <pt x="69" y="24" on="1"/>
        <pt x="69" y="395" on="1"/>
        <pt x="22" y="395" on="1"/>
        <pt x="22" y="434" on="1"/>
        <pt x="69" y="453" on="1"/>
        <pt x="69" y="491" on="1"/>
        <pt x="69" y="503" on="0"/>
        <pt x="89" y="542" on="0"/>
        <pt x="119" y="584" on="0"/>
        <pt x="154" y="622" on="0"/>
        <pt x="185" y="646" on="0"/>
        <pt x="194" y="646" on="1"/>
        <pt x="198" y="646" on="0"/>
        <pt x="226" y="645" on="0"/>
        <pt x="262" y="643" on="0"/>
        <pt x="296" y="641" on="0"/>
        <pt x="306" y="640" on="1"/>
        <pt x="311" y="637" on="0"/>
        <pt x="321" y="625" on="0"/>
        <pt x="328" y="614" on="0"/>
        <pt x="328" y="610" on="1"/>
        <pt x="328" y="608" on="0"/>
        <pt x="320" y="587" on="0"/>
        <pt x="310" y="565" on="0"/>
        <pt x="308" y="560" on="1"/>
        <pt x="300" y="562" on="0"/>
        <pt x="263" y="570" on="0"/>
        <pt x="221" y="577" on="0"/>
        <pt x="186" y="582" on="0"/>
        <pt x="180" y="582" on="1"/>
        <pt x="176" y="582" on="0"/>
        <pt x="167" y="566" on="0"/>
        <pt x="161" y="540" on="0"/>
        <pt x="161" y="526" on="1"/>
        <pt x="161" y="448" on="1"/>
        <pt x="358" y="448" on="1"/>
        <pt x="362" y="448" on="0"/>
        <pt x="381" y="433" on="0"/>
        <pt x="398" y="416" on="0"/>
        <pt x="398" y="411" on="1"/>
        <pt x="398" y="54" on="1"/>
        <pt x="433" y="44" on="1"/>
        <pt x="433" y="7" on="1"/>
        <pt x="433" y="7" on="0"/>
        <pt x="417" y="4" on="0"/>
        <pt x="394" y="-1" on="0"/>
        <pt x="369" y="-6" on="0"/>
        <pt x="351" y="-9" on="0"/>
        <pt x="348" y="-9" on="1"/>
        <pt x="345" y="-9" on="0"/>
        <pt x="325" y="7" on="0"/>
        <pt x="308" y="25" on="0"/>
        <pt x="308" y="28" on="1"/>
        <pt x="308" y="394" on="1"/>
        <pt x="160" y="394" on="1"/>
        <pt x="160" y="63" on="1"/>
        <pt x="211" y="48" on="1"/>
        <pt x="211" y="7" on="1"/>
        <pt x="211" y="7" on="0"/>
        <pt x="191" y="4" on="0"/>
        <pt x="161" y="-1" on="0"/>
        <pt x="129" y="-6" on="0"/>
        <pt x="106" y="-9" on="0"/>
      </contour>
    </TTGlyph>
    <TTGlyph name="five" xMin="49" yMin="-92" xMax="343" yMax="510">
      <contour>
        <pt x="57" y="-92" on="1"/>
        <pt x="57" y="-37" on="1"/>
        <pt x="93" y="-27" on="0"/>
        <pt x="161" y="-3" on="0"/>
        <pt x="215" y="34" on="0"/>
        <pt x="247" y="89" on="0"/>
        <pt x="247" y="130" on="1"/>
        <pt x="247" y="166" on="0"/>
        <pt x="224" y="206" on="0"/>
        <pt x="189" y="223" on="0"/>
        <pt x="170" y="223" on="1"/>
        <pt x="165" y="223" on="0"/>
        <pt x="127" y="210" on="0"/>
        <pt x="82" y="194" on="0"/>
        <pt x="65" y="189" on="1"/>
        <pt x="49" y="211" on="1"/>
        <pt x="72" y="465" on="1"/>
        <pt x="252" y="465" on="1"/>
        <pt x="257" y="510" on="1"/>
        <pt x="305" y="510" on="1"/>
        <pt x="311" y="391" on="1"/>
        <pt x="133" y="391" on="1"/>
        <pt x="122" y="258" on="1"/>
        <pt x="128" y="261" on="0"/>
        <pt x="146" y="270" on="0"/>
        <pt x="167" y="279" on="0"/>
        <pt x="185" y="285" on="0"/>
        <pt x="189" y="285" on="1"/>
        <pt x="245" y="285" on="0"/>
        <pt x="313" y="244" on="0"/>
        <pt x="343" y="181" on="0"/>
        <pt x="343" y="148" on="1"/>
        <pt x="343" y="96" on="0"/>
        <pt x="292" y="11" on="0"/>
        <pt x="209" y="-50" on="0"/>
        <pt x="108" y="-87" on="0"/>
      </contour>
    </TTGlyph>
    <TTGlyph name="five.dnom" xMin="67" yMin="-9" xMax="285" yMax="379">
      <component glyphName="uni2075" x="0" y="-364" flags="0x204"/>
    </TTGlyph>
    <TTGlyph name="five.lf" xMin="54" yMin="-9" xMax="360" yMax="609">
      <contour>
        <pt x="186" y="-9" on="1"/>
        <pt x="176" y="-9" on="0"/>
        <pt x="126" y="-1" on="0"/>
        <pt x="72" y="9" on="0"/>
        <pt x="54" y="12" on="1"/>
        <pt x="58" y="61" on="1"/>
        <pt x="97" y="60" on="0"/>
        <pt x="149" y="59" on="0"/>
        <pt x="184" y="59" on="0"/>
        <pt x="206" y="62" on="0"/>
        <pt x="213" y="64" on="1"/>
        <pt x="221" y="67" on="0"/>
        <pt x="246" y="97" on="0"/>
        <pt x="265" y="150" on="0"/>
        <pt x="265" y="185" on="1"/>
        <pt x="265" y="208" on="0"/>
        <pt x="256" y="255" on="0"/>
        <pt x="237" y="287" on="0"/>
        <pt x="222" y="287" on="1"/>
        <pt x="215" y="287" on="0"/>
        <pt x="173" y="286" on="0"/>
        <pt x="120" y="284" on="0"/>
        <pt x="95" y="282" on="1"/>
        <pt x="67" y="326" on="1"/>
        <pt x="109" y="336" on="0"/>
        <pt x="170" y="352" on="0"/>
        <pt x="207" y="361" on="0"/>
        <pt x="213" y="361" on="1"/>
        <pt x="261" y="361" on="0"/>
        <pt x="326" y="318" on="0"/>
        <pt x="360" y="244" on="0"/>
        <pt x="360" y="199" on="1"/>
        <pt x="360" y="163" on="0"/>
        <pt x="331" y="89" on="0"/>
        <pt x="282" y="28" on="0"/>
        <pt x="220" y="-9" on="0"/>
      </contour>
      <contour>
        <pt x="95" y="282" on="1"/>
        <pt x="67" y="326" on="1"/>
        <pt x="83" y="564" on="1"/>
        <pt x="311" y="564" on="1"/>
        <pt x="334" y="490" on="1"/>
        <pt x="143" y="490" on="1"/>
        <pt x="133" y="337" on="1"/>
      </contour>
      <contour>
        <pt x="270" y="490" on="1"/>
        <pt x="283" y="609" on="1"/>
        <pt x="329" y="609" on="1"/>
        <pt x="334" y="490" on="1"/>
      </contour>
    </TTGlyph>
    <TTGlyph name="five.numr" xMin="67" yMin="255" xMax="285" yMax="643">
      <component glyphName="uni2075" x="0" y="-100" flags="0x204"/>
    </TTGlyph>
    <TTGlyph name="five.osf" xMin="49" yMin="-92" xMax="343" yMax="510">
      <component glyphName="five" x="0" y="0" flags="0x204"/>
    </TTGlyph>
    <TTGlyph name="five.tf" xMin="97" yMin="-9" xMax="403" yMax="609">
      <component glyphName="five.lf" x="43" y="0" flags="0x4"/>
    </TTGlyph>
    <TTGlyph name="five.tosf" xMin="105" yMin="-92" xMax="399" yMax="510">
      <component glyphName="five" x="56" y="0" flags="0x4"/>
    </TTGlyph>
    <TTGlyph name="fiveeighths" xMin="67" yMin="-10" xMax="678" yMax="643">
      <component glyphName="five.numr" x="0" y="0" flags="0x4"/>
      <component glyphName="fraction" x="121" y="0" flags="0x4"/>
      <component glyphName="eight.dnom" x="409" y="0" flags="0x4"/>
    </TTGlyph>
    <TTGlyph name="fl" xMin="22" yMin="-9" xMax="453" yMax="646">
      <contour>
        <pt x="103" y="-9" on="1"/>
        <pt x="100" y="-9" on="0"/>
        <pt x="84" y="5" on="0"/>
        <pt x="69" y="21" on="0"/>
        <pt x="69" y="24" on="1"/>
        <pt x="69" y="403" on="1"/>
        <pt x="22" y="403" on="1"/>
        <pt x="22" y="442" on="1"/>
        <pt x="69" y="461" on="1"/>
        <pt x="69" y="491" on="1"/>
        <pt x="69" y="503" on="0"/>
        <pt x="89" y="542" on="0"/>
        <pt x="119" y="584" on="0"/>
        <pt x="154" y="622" on="0"/>
        <pt x="185" y="646" on="0"/>
        <pt x="194" y="646" on="1"/>
        <pt x="206" y="646" on="0"/>
        <pt x="250" y="642" on="0"/>
        <pt x="305" y="634" on="0"/>
        <pt x="362" y="626" on="0"/>
        <pt x="386" y="621" on="1"/>
        <pt x="391" y="620" on="0"/>
        <pt x="406" y="607" on="0"/>
        <pt x="419" y="592" on="0"/>
        <pt x="419" y="588" on="1"/>
        <pt x="419" y="59" on="1"/>
        <pt x="453" y="44" on="1"/>
        <pt x="453" y="7" on="1"/>
        <pt x="453" y="7" on="0"/>
        <pt x="436" y="4" on="0"/>
        <pt x="411" y="-1" on="0"/>
        <pt x="385" y="-6" on="0"/>
        <pt x="365" y="-9" on="0"/>
        <pt x="362" y="-9" on="1"/>
        <pt x="359" y="-9" on="0"/>
        <pt x="343" y="5" on="0"/>
        <pt x="329" y="21" on="0"/>
        <pt x="329" y="24" on="1"/>
        <pt x="329" y="562" on="1"/>
        <pt x="316" y="565" on="0"/>
        <pt x="271" y="572" on="0"/>
        <pt x="223" y="578" on="0"/>
        <pt x="186" y="582" on="0"/>
        <pt x="180" y="582" on="1"/>
        <pt x="176" y="582" on="0"/>
        <pt x="167" y="566" on="0"/>
        <pt x="161" y="540" on="0"/>
        <pt x="161" y="526" on="1"/>
        <pt x="160" y="456" on="1"/>
        <pt x="243" y="456" on="1"/>
        <pt x="243" y="402" on="1"/>
        <pt x="160" y="402" on="1"/>
        <pt x="160" y="63" on="1"/>
        <pt x="211" y="48" on="1"/>
        <pt x="211" y="7" on="1"/>
        <pt x="211" y="7" on="0"/>
        <pt x="191" y="4" on="0"/>
        <pt x="161" y="-1" on="0"/>
        <pt x="129" y="-6" on="0"/>
        <pt x="106" y="-9" on="0"/>
      </contour>
    </TTGlyph>
    <TTGlyph name="florin" xMin="-65" yMin="-181" xMax="416" yMax="646">
      <contour>
        <pt x="44" y="-181" on="1"/>
        <pt x="41" y="-181" on="0"/>
        <pt x="19" y="-180" on="0"/>
        <pt x="-9" y="-178" on="0"/>
        <pt x="-36" y="-176" on="0"/>
        <pt x="-46" y="-175" on="1"/>
        <pt x="-50" y="-172" on="0"/>
        <pt x="-60" y="-160" on="0"/>
        <pt x="-65" y="-148" on="0"/>
        <pt x="-64" y="-145" on="1"/>
        <pt x="-63" y="-143" on="0"/>
        <pt x="-57" y="-122" on="0"/>
        <pt x="-50" y="-100" on="0"/>
        <pt x="-48" y="-95" on="1"/>
        <pt x="-38" y="-98" on="0"/>
        <pt x="4" y="-108" on="0"/>
        <pt x="44" y="-117" on="0"/>
        <pt x="52" y="-117" on="1"/>
        <pt x="56" y="-117" on="0"/>
        <pt x="67" y="-101" on="0"/>
        <pt x="78" y="-75" on="0"/>
        <pt x="80" y="-61" on="1"/>
        <pt x="174" y="491" on="1"/>
        <pt x="176" y="503" on="0"/>
        <pt x="200" y="542" on="0"/>
        <pt x="234" y="584" on="0"/>
        <pt x="270" y="622" on="0"/>
        <pt x="302" y="646" on="0"/>
        <pt x="311" y="646" on="1"/>
        <pt x="314" y="646" on="0"/>
        <pt x="334" y="645" on="0"/>
        <pt x="359" y="643" on="0"/>
        <pt x="385" y="641" on="0"/>
        <pt x="395" y="640" on="1"/>
        <pt x="400" y="637" on="0"/>
        <pt x="409" y="625" on="0"/>
        <pt x="416" y="614" on="0"/>
        <pt x="416" y="610" on="1"/>
        <pt x="416" y="608" on="0"/>
        <pt x="408" y="587" on="0"/>
        <pt x="399" y="565" on="0"/>
        <pt x="397" y="560" on="1"/>
        <pt x="387" y="563" on="0"/>
        <pt x="345" y="573" on="0"/>
        <pt x="305" y="582" on="0"/>
        <pt x="297" y="582" on="1"/>
        <pt x="293" y="582" on="0"/>
        <pt x="282" y="566" on="0"/>
        <pt x="272" y="540" on="0"/>
        <pt x="269" y="526" on="1"/>
        <pt x="175" y="-26" on="1"/>
        <pt x="173" y="-38" on="0"/>
        <pt x="151" y="-77" on="0"/>
        <pt x="118" y="-119" on="0"/>
        <pt x="83" y="-157" on="0"/>
        <pt x="53" y="-181" on="0"/>
      </contour>
      <contour>
        <pt x="337" y="394" on="1"/>
        <pt x="111" y="395" on="1"/>
        <pt x="118" y="434" on="1"/>
        <pt x="167" y="453" on="1"/>
        <pt x="346" y="448" on="1"/>
      </contour>
    </TTGlyph>
    <TTGlyph name="four" xMin="23" yMin="-90" xMax="426" yMax="475">
      <contour>
        <pt x="272" y="-90" on="1"/>
        <pt x="272" y="43" on="1"/>
        <pt x="29" y="43" on="1"/>
        <pt x="23" y="92" on="1"/>
        <pt x="41" y="129" on="0"/>
        <pt x="85" y="228" on="0"/>
        <pt x="132" y="335" on="0"/>
        <pt x="175" y="436" on="0"/>
        <pt x="190" y="475" on="1"/>
        <pt x="269" y="442" on="1"/>
        <pt x="269" y="421" on="1"/>
        <pt x="261" y="404" on="0"/>
        <pt x="225" y="329" on="0"/>
        <pt x="178" y="237" on="0"/>
        <pt x="132" y="149" on="0"/>
        <pt x="115" y="119" on="1"/>
        <pt x="117" y="111" on="1"/>
        <pt x="272" y="111" on="1"/>
        <pt x="272" y="248" on="1"/>
        <pt x="339" y="273" on="1"/>
        <pt x="358" y="266" on="1"/>
        <pt x="358" y="111" on="1"/>
        <pt x="426" y="111" on="1"/>
        <pt x="426" y="43" on="1"/>
        <pt x="358" y="43" on="1"/>
        <pt x="358" y="-90" on="1"/>
      </contour>
    </TTGlyph>
    <TTGlyph name="four.dnom" xMin="49" yMin="0" xMax="330" yMax="344">
      <component glyphName="uni2074" x="0" y="-363" flags="0x204"/>
    </TTGlyph>
    <TTGlyph name="four.lf" xMin="0" yMin="0" xMax="407" yMax="564">
      <contour>
        <pt x="15" y="146" on="1"/>
        <pt x="0" y="198" on="1"/>
        <pt x="193" y="564" on="1"/>
        <pt x="327" y="564" on="1"/>
        <pt x="322" y="505" on="1"/>
        <pt x="230" y="505" on="1"/>
        <pt x="90" y="222" on="1"/>
        <pt x="100" y="146" on="1"/>
      </contour>
      <contour>
        <pt x="147" y="0" on="1"/>
        <pt x="147" y="45" on="1"/>
        <pt x="279" y="70" on="1"/>
        <pt x="407" y="42" on="1"/>
        <pt x="407" y="0" on="1"/>
      </contour>
      <contour>
        <pt x="15" y="146" on="1"/>
        <pt x="0" y="198" on="1"/>
        <pt x="92" y="214" on="1"/>
        <pt x="407" y="214" on="1"/>
        <pt x="407" y="146" on="1"/>
      </contour>
      <contour>
        <pt x="243" y="0" on="1"/>
        <pt x="243" y="564" on="1"/>
        <pt x="327" y="564" on="1"/>
        <pt x="327" y="0" on="1"/>
      </contour>
    </TTGlyph>
    <TTGlyph name="four.numr" xMin="49" yMin="263" xMax="330" yMax="607">
      <component glyphName="uni2074" x="0" y="-100" flags="0x204"/>
    </TTGlyph>
    <TTGlyph name="four.osf" xMin="23" yMin="-90" xMax="426" yMax="475">
      <component glyphName="four" x="0" y="0" flags="0x204"/>
    </TTGlyph>
    <TTGlyph name="four.tf" xMin="39" yMin="0" xMax="446" yMax="564">
      <component glyphName="four.lf" x="39" y="0" flags="0x4"/>
    </TTGlyph>
    <TTGlyph name="four.tosf" xMin="42" yMin="-90" xMax="445" yMax="475">
      <component glyphName="four" x="19" y="0" flags="0x4"/>
    </TTGlyph>
    <TTGlyph name="fraction" xMin="70" yMin="-9" xMax="430" yMax="611">
      <contour>
        <pt x="70" y="-9" on="1"/>
        <pt x="368" y="611" on="1"/>
        <pt x="430" y="611" on="1"/>
        <pt x="132" y="-9" on="1"/>
      </contour>
    </TTGlyph>
</ttFont>
